<svg width="88" height="88" viewBox="0 0 88 88" fill="none" xmlns="http://www.w3.org/2000/svg">
<g filter="url(#filter0_dddii_4572_84228)">
<rect x="14" y="13.7197" width="60" height="60" rx="8" fill="white" fill-opacity="0.2" shape-rendering="crispEdges"/>
<mask id="path-2-outside-1_4572_84228" maskUnits="userSpaceOnUse" x="28.5" y="32.7197" width="30" height="21" fill="black">
<rect fill="white" x="28.5" y="32.7197" width="30" height="21"/>
<path d="M36.7 52.0077C35.404 52.0077 34.268 51.6557 33.292 50.9517C32.332 50.2477 31.588 49.2477 31.06 47.9517C30.532 46.6397 30.268 45.0957 30.268 43.3197C30.268 41.5277 30.532 39.9837 31.06 38.6877C31.588 37.3917 32.332 36.3917 33.292 35.6877C34.268 34.9837 35.404 34.6317 36.7 34.6317C38.012 34.6317 39.148 34.9837 40.108 35.6877C41.068 36.3917 41.812 37.3917 42.34 38.6877C42.868 39.9837 43.132 41.5277 43.132 43.3197C43.132 45.0957 42.868 46.6397 42.34 47.9517C41.812 49.2477 41.068 50.2477 40.108 50.9517C39.148 51.6557 38.012 52.0077 36.7 52.0077ZM32.86 43.3197C32.86 44.2157 32.94 45.0317 33.1 45.7677C33.26 46.5037 33.484 47.1437 33.772 47.6877L37.972 37.2957C37.572 37.1037 37.148 37.0077 36.7 37.0077C35.58 37.0077 34.66 37.5757 33.94 38.7117C33.22 39.8317 32.86 41.3677 32.86 43.3197ZM36.7 49.6557C37.452 49.6557 38.116 49.3997 38.692 48.8877C39.268 48.3757 39.716 47.6477 40.036 46.7037C40.372 45.7437 40.54 44.6157 40.54 43.3197C40.54 42.4237 40.46 41.6077 40.3 40.8717C40.14 40.1357 39.916 39.5037 39.628 38.9757L35.428 49.3677C35.828 49.5597 36.252 49.6557 36.7 49.6557ZM45.4746 51.7197V49.4397H49.6266V37.9197L45.6666 38.6397V36.5757L50.6106 34.9197H52.1706V49.4397H56.6346V51.7197H45.4746Z"/>
</mask>
<g filter="url(#filter1_i_4572_84228)">
<path d="M36.7 52.0077C35.404 52.0077 34.268 51.6557 33.292 50.9517C32.332 50.2477 31.588 49.2477 31.06 47.9517C30.532 46.6397 30.268 45.0957 30.268 43.3197C30.268 41.5277 30.532 39.9837 31.06 38.6877C31.588 37.3917 32.332 36.3917 33.292 35.6877C34.268 34.9837 35.404 34.6317 36.7 34.6317C38.012 34.6317 39.148 34.9837 40.108 35.6877C41.068 36.3917 41.812 37.3917 42.34 38.6877C42.868 39.9837 43.132 41.5277 43.132 43.3197C43.132 45.0957 42.868 46.6397 42.34 47.9517C41.812 49.2477 41.068 50.2477 40.108 50.9517C39.148 51.6557 38.012 52.0077 36.7 52.0077ZM32.86 43.3197C32.86 44.2157 32.94 45.0317 33.1 45.7677C33.26 46.5037 33.484 47.1437 33.772 47.6877L37.972 37.2957C37.572 37.1037 37.148 37.0077 36.7 37.0077C35.58 37.0077 34.66 37.5757 33.94 38.7117C33.22 39.8317 32.86 41.3677 32.86 43.3197ZM36.7 49.6557C37.452 49.6557 38.116 49.3997 38.692 48.8877C39.268 48.3757 39.716 47.6477 40.036 46.7037C40.372 45.7437 40.54 44.6157 40.54 43.3197C40.54 42.4237 40.46 41.6077 40.3 40.8717C40.14 40.1357 39.916 39.5037 39.628 38.9757L35.428 49.3677C35.828 49.5597 36.252 49.6557 36.7 49.6557ZM45.4746 51.7197V49.4397H49.6266V37.9197L45.6666 38.6397V36.5757L50.6106 34.9197H52.1706V49.4397H56.6346V51.7197H45.4746Z" fill="white"/>
</g>
<path d="M33.292 50.9517L32.7006 51.7582L32.707 51.7628L33.292 50.9517ZM31.06 47.9517L30.1323 48.3251L30.1339 48.329L31.06 47.9517ZM31.06 38.6877L30.1339 38.3104H30.1339L31.06 38.6877ZM33.292 35.6877L32.707 34.8767L32.7006 34.8813L33.292 35.6877ZM40.108 35.6877L40.6994 34.8813L40.6994 34.8813L40.108 35.6877ZM42.34 38.6877L43.2661 38.3104L42.34 38.6877ZM42.34 47.9517L43.2661 48.329L43.2677 48.3251L42.34 47.9517ZM40.108 50.9517L40.6994 51.7581L40.108 50.9517ZM33.1 45.7677L34.0772 45.5553L33.1 45.7677ZM33.772 47.6877L32.8882 48.1556L33.8938 50.0551L34.6991 48.0624L33.772 47.6877ZM37.972 37.2957L38.8991 37.6704L39.2508 36.8003L38.4047 36.3942L37.972 37.2957ZM33.94 38.7117L34.7812 39.2525L34.7846 39.2471L33.94 38.7117ZM38.692 48.8877L38.0276 48.1403V48.1403L38.692 48.8877ZM40.036 46.7037L39.0921 46.3734L39.0889 46.3827L40.036 46.7037ZM39.628 38.9757L40.5059 38.4969L39.4933 36.6404L38.7009 38.601L39.628 38.9757ZM35.428 49.3677L34.5009 48.993L34.1492 49.8631L34.9953 50.2692L35.428 49.3677ZM36.7 51.0077C35.5969 51.0077 34.6693 50.7122 33.877 50.1407L32.707 51.7628C33.8667 52.5992 35.2111 53.0077 36.7 53.0077V51.0077ZM33.8834 50.1453C33.0969 49.5686 32.4567 48.7296 31.9861 47.5744L30.1339 48.329C30.7193 49.7658 31.5671 50.9269 32.7006 51.7581L33.8834 50.1453ZM31.9877 47.5784C31.518 46.4112 31.268 44.9993 31.268 43.3197H29.268C29.268 45.1921 29.546 46.8683 30.1323 48.3251L31.9877 47.5784ZM31.268 43.3197C31.268 41.6223 31.5185 40.2128 31.9861 39.065L30.1339 38.3104C29.5455 39.7547 29.268 41.4331 29.268 43.3197H31.268ZM31.9861 39.065C32.4567 37.9098 33.0969 37.0709 33.8834 36.4941L32.7006 34.8813C31.5671 35.7126 30.7193 36.8736 30.1339 38.3104L31.9861 39.065ZM33.877 36.4988C34.6693 35.9272 35.5969 35.6317 36.7 35.6317V33.6317C35.2111 33.6317 33.8667 34.0402 32.707 34.8767L33.877 36.4988ZM36.7 35.6317C37.8222 35.6317 38.7457 35.9288 39.5166 36.4941L40.6994 34.8813C39.5503 34.0387 38.2018 33.6317 36.7 33.6317V35.6317ZM39.5166 36.4941C40.3031 37.0709 40.9433 37.9098 41.4139 39.065L43.2661 38.3104C42.6807 36.8736 41.8329 35.7126 40.6994 34.8813L39.5166 36.4941ZM41.4139 39.065C41.8815 40.2128 42.132 41.6223 42.132 43.3197H44.132C44.132 41.4331 43.8545 39.7547 43.2661 38.3104L41.4139 39.065ZM42.132 43.3197C42.132 44.9993 41.882 46.4112 41.4123 47.5784L43.2677 48.3251C43.854 46.8683 44.132 45.1921 44.132 43.3197H42.132ZM41.4139 47.5744C40.9433 48.7296 40.3031 49.5686 39.5166 50.1453L40.6994 51.7581C41.8329 50.9269 42.6807 49.7658 43.2661 48.329L41.4139 47.5744ZM39.5166 50.1453C38.7457 50.7107 37.8222 51.0077 36.7 51.0077V53.0077C38.2018 53.0077 39.5503 52.6008 40.6994 51.7581L39.5166 50.1453ZM31.86 43.3197C31.86 44.2741 31.9451 45.1627 32.1228 45.9802L34.0772 45.5553C33.9349 44.9008 33.86 44.1573 33.86 43.3197H31.86ZM32.1228 45.9802C32.298 46.7861 32.5493 47.5155 32.8882 48.1556L34.6558 47.2198C34.4187 46.7719 34.222 46.2214 34.0772 45.5553L32.1228 45.9802ZM34.6991 48.0624L38.8991 37.6704L37.0449 36.921L32.8449 47.313L34.6991 48.0624ZM38.4047 36.3942C37.8683 36.1367 37.2963 36.0077 36.7 36.0077V38.0077C36.9997 38.0077 37.2757 38.0707 37.5393 38.1972L38.4047 36.3942ZM36.7 36.0077C35.1646 36.0077 33.956 36.8184 33.0954 38.1764L34.7846 39.2471C35.364 38.333 35.9954 38.0077 36.7 38.0077V36.0077ZM33.0988 38.171C32.2374 39.5109 31.86 41.2603 31.86 43.3197H33.86C33.86 41.4752 34.2026 40.1525 34.7812 39.2525L33.0988 38.171ZM36.7 50.6557C37.7035 50.6557 38.6023 50.3054 39.3564 49.6351L38.0276 48.1403C37.6297 48.494 37.2005 48.6557 36.7 48.6557V50.6557ZM39.3564 49.6351C40.0946 48.9789 40.6233 48.086 40.9831 47.0248L39.0889 46.3827C38.8087 47.2095 38.4414 47.7725 38.0276 48.1403L39.3564 49.6351ZM40.9799 47.0341C41.3616 45.9433 41.54 44.6988 41.54 43.3197H39.54C39.54 44.5326 39.3824 45.5441 39.0921 46.3734L40.9799 47.0341ZM41.54 43.3197C41.54 42.3653 41.4549 41.4768 41.2772 40.6593L39.3228 41.0842C39.4651 41.7387 39.54 42.4821 39.54 43.3197H41.54ZM41.2772 40.6593C41.1018 39.8526 40.8493 39.1265 40.5059 38.4969L38.7501 39.4546C38.9827 39.881 39.1782 40.4189 39.3228 41.0842L41.2772 40.6593ZM38.7009 38.601L34.5009 48.993L36.3551 49.7424L40.5551 39.3504L38.7009 38.601ZM34.9953 50.2692C35.5317 50.5267 36.1037 50.6557 36.7 50.6557V48.6557C36.4003 48.6557 36.1243 48.5927 35.8607 48.4662L34.9953 50.2692ZM45.4746 51.7197H44.4746V52.7197H45.4746V51.7197ZM45.4746 49.4397V48.4397H44.4746V49.4397H45.4746ZM49.6266 49.4397V50.4397H50.6266V49.4397H49.6266ZM49.6266 37.9197H50.6266V36.7215L49.4477 36.9359L49.6266 37.9197ZM45.6666 38.6397H44.6666V39.8379L45.8455 39.6236L45.6666 38.6397ZM45.6666 36.5757L45.349 35.6275L44.6666 35.8561V36.5757H45.6666ZM50.6106 34.9197V33.9197H50.4476L50.293 33.9715L50.6106 34.9197ZM52.1706 34.9197H53.1706V33.9197H52.1706V34.9197ZM52.1706 49.4397H51.1706V50.4397H52.1706V49.4397ZM56.6346 49.4397H57.6346V48.4397H56.6346V49.4397ZM56.6346 51.7197V52.7197H57.6346V51.7197H56.6346ZM46.4746 51.7197V49.4397H44.4746V51.7197H46.4746ZM45.4746 50.4397H49.6266V48.4397H45.4746V50.4397ZM50.6266 49.4397V37.9197H48.6266V49.4397H50.6266ZM49.4477 36.9359L45.4877 37.6559L45.8455 39.6236L49.8055 38.9036L49.4477 36.9359ZM46.6666 38.6397V36.5757H44.6666V38.6397H46.6666ZM45.9842 37.5239L50.9282 35.8679L50.293 33.9715L45.349 35.6275L45.9842 37.5239ZM50.6106 35.9197H52.1706V33.9197H50.6106V35.9197ZM51.1706 34.9197V49.4397H53.1706V34.9197H51.1706ZM52.1706 50.4397H56.6346V48.4397H52.1706V50.4397ZM55.6346 49.4397V51.7197H57.6346V49.4397H55.6346ZM56.6346 50.7197H45.4746V52.7197H56.6346V50.7197Z" fill="#474747" mask="url(#path-2-outside-1_4572_84228)"/>
</g>
<defs>
<filter id="filter0_dddii_4572_84228" x="0.447444" y="0.167171" width="87.1051" height="87.1051" filterUnits="userSpaceOnUse" color-interpolation-filters="sRGB">
<feFlood flood-opacity="0" result="BackgroundImageFix"/>
<feColorMatrix in="SourceAlpha" type="matrix" values="0 0 0 0 0 0 0 0 0 0 0 0 0 0 0 0 0 0 127 0" result="hardAlpha"/>
<feOffset dy="6.02336"/>
<feGaussianBlur stdDeviation="3.01168"/>
<feComposite in2="hardAlpha" operator="out"/>
<feColorMatrix type="matrix" values="0 0 0 0 0 0 0 0 0 0 0 0 0 0 0 0 0 0 0.25 0"/>
<feBlend mode="normal" in2="BackgroundImageFix" result="effect1_dropShadow_4572_84228"/>
<feColorMatrix in="SourceAlpha" type="matrix" values="0 0 0 0 0 0 0 0 0 0 0 0 0 0 0 0 0 0 127 0" result="hardAlpha"/>
<feMorphology radius="6.02336" operator="dilate" in="SourceAlpha" result="effect2_dropShadow_4572_84228"/>
<feOffset/>
<feGaussianBlur stdDeviation="3.7646"/>
<feComposite in2="hardAlpha" operator="out"/>
<feColorMatrix type="matrix" values="0 0 0 0 0.968627 0 0 0 0 0.239216 0 0 0 0 0.176471 0 0 0 0.07 0"/>
<feBlend mode="normal" in2="effect1_dropShadow_4572_84228" result="effect2_dropShadow_4572_84228"/>
<feColorMatrix in="SourceAlpha" type="matrix" values="0 0 0 0 0 0 0 0 0 0 0 0 0 0 0 0 0 0 127 0" result="hardAlpha"/>
<feMorphology radius="1.50584" operator="dilate" in="SourceAlpha" result="effect3_dropShadow_4572_84228"/>
<feOffset/>
<feComposite in2="hardAlpha" operator="out"/>
<feColorMatrix type="matrix" values="0 0 0 0 0 0 0 0 0 0 0 0 0 0 0 0 0 0 1 0"/>
<feBlend mode="normal" in2="effect2_dropShadow_4572_84228" result="effect3_dropShadow_4572_84228"/>
<feBlend mode="normal" in="SourceGraphic" in2="effect3_dropShadow_4572_84228" result="shape"/>
<feColorMatrix in="SourceAlpha" type="matrix" values="0 0 0 0 0 0 0 0 0 0 0 0 0 0 0 0 0 0 127 0" result="hardAlpha"/>
<feOffset dy="4"/>
<feGaussianBlur stdDeviation="0.5"/>
<feComposite in2="hardAlpha" operator="arithmetic" k2="-1" k3="1"/>
<feColorMatrix type="matrix" values="0 0 0 0 1 0 0 0 0 1 0 0 0 0 1 0 0 0 0.08 0"/>
<feBlend mode="normal" in2="shape" result="effect4_innerShadow_4572_84228"/>
<feColorMatrix in="SourceAlpha" type="matrix" values="0 0 0 0 0 0 0 0 0 0 0 0 0 0 0 0 0 0 127 0" result="hardAlpha"/>
<feOffset dy="-3"/>
<feComposite in2="hardAlpha" operator="arithmetic" k2="-1" k3="1"/>
<feColorMatrix type="matrix" values="0 0 0 0 0 0 0 0 0 0 0 0 0 0 0 0 0 0 1 0"/>
<feBlend mode="normal" in2="effect4_innerShadow_4572_84228" result="effect5_innerShadow_4572_84228"/>
</filter>
<filter id="filter1_i_4572_84228" x="30.2676" y="34.6318" width="27.3672" height="18.376" filterUnits="userSpaceOnUse" color-interpolation-filters="sRGB">
<feFlood flood-opacity="0" result="BackgroundImageFix"/>
<feBlend mode="normal" in="SourceGraphic" in2="BackgroundImageFix" result="shape"/>
<feColorMatrix in="SourceAlpha" type="matrix" values="0 0 0 0 0 0 0 0 0 0 0 0 0 0 0 0 0 0 127 0" result="hardAlpha"/>
<feOffset dx="1" dy="1"/>
<feGaussianBlur stdDeviation="1"/>
<feComposite in2="hardAlpha" operator="arithmetic" k2="-1" k3="1"/>
<feColorMatrix type="matrix" values="0 0 0 0 0 0 0 0 0 0 0 0 0 0 0 0 0 0 1 0"/>
<feBlend mode="normal" in2="shape" result="effect1_innerShadow_4572_84228"/>
</filter>
</defs>
</svg>
