<svg width="60" height="61" viewBox="0 0 60 61" fill="none" xmlns="http://www.w3.org/2000/svg">
<g filter="url(#filter0_dddii_4572_84228)">
<rect y="0.719727" width="60" height="60" rx="8" fill="white" fill-opacity="0.2" shape-rendering="crispEdges"/>
<mask id="path-2-outside-1_4572_84228" maskUnits="userSpaceOnUse" x="14.5" y="19.7197" width="30" height="21" fill="black">
<rect fill="white" x="14.5" y="19.7197" width="30" height="21"/>
<path d="M22.7 39.0077C21.404 39.0077 20.268 38.6557 19.292 37.9517C18.332 37.2477 17.588 36.2477 17.06 34.9517C16.532 33.6397 16.268 32.0957 16.268 30.3197C16.268 28.5277 16.532 26.9837 17.06 25.6877C17.588 24.3917 18.332 23.3917 19.292 22.6877C20.268 21.9837 21.404 21.6317 22.7 21.6317C24.012 21.6317 25.148 21.9837 26.108 22.6877C27.068 23.3917 27.812 24.3917 28.34 25.6877C28.868 26.9837 29.132 28.5277 29.132 30.3197C29.132 32.0957 28.868 33.6397 28.34 34.9517C27.812 36.2477 27.068 37.2477 26.108 37.9517C25.148 38.6557 24.012 39.0077 22.7 39.0077ZM18.86 30.3197C18.86 31.2157 18.94 32.0317 19.1 32.7677C19.26 33.5037 19.484 34.1437 19.772 34.6877L23.972 24.2957C23.572 24.1037 23.148 24.0077 22.7 24.0077C21.58 24.0077 20.66 24.5757 19.94 25.7117C19.22 26.8317 18.86 28.3677 18.86 30.3197ZM22.7 36.6557C23.452 36.6557 24.116 36.3997 24.692 35.8877C25.268 35.3757 25.716 34.6477 26.036 33.7037C26.372 32.7437 26.54 31.6157 26.54 30.3197C26.54 29.4237 26.46 28.6077 26.3 27.8717C26.14 27.1357 25.916 26.5037 25.628 25.9757L21.428 36.3677C21.828 36.5597 22.252 36.6557 22.7 36.6557ZM31.4746 38.7197V36.4397H35.6266V24.9197L31.6666 25.6397V23.5757L36.6106 21.9197H38.1706V36.4397H42.6346V38.7197H31.4746Z"/>
</mask>
<g filter="url(#filter1_i_4572_84228)">
<path d="M22.7 39.0077C21.404 39.0077 20.268 38.6557 19.292 37.9517C18.332 37.2477 17.588 36.2477 17.06 34.9517C16.532 33.6397 16.268 32.0957 16.268 30.3197C16.268 28.5277 16.532 26.9837 17.06 25.6877C17.588 24.3917 18.332 23.3917 19.292 22.6877C20.268 21.9837 21.404 21.6317 22.7 21.6317C24.012 21.6317 25.148 21.9837 26.108 22.6877C27.068 23.3917 27.812 24.3917 28.34 25.6877C28.868 26.9837 29.132 28.5277 29.132 30.3197C29.132 32.0957 28.868 33.6397 28.34 34.9517C27.812 36.2477 27.068 37.2477 26.108 37.9517C25.148 38.6557 24.012 39.0077 22.7 39.0077ZM18.86 30.3197C18.86 31.2157 18.94 32.0317 19.1 32.7677C19.26 33.5037 19.484 34.1437 19.772 34.6877L23.972 24.2957C23.572 24.1037 23.148 24.0077 22.7 24.0077C21.58 24.0077 20.66 24.5757 19.94 25.7117C19.22 26.8317 18.86 28.3677 18.86 30.3197ZM22.7 36.6557C23.452 36.6557 24.116 36.3997 24.692 35.8877C25.268 35.3757 25.716 34.6477 26.036 33.7037C26.372 32.7437 26.54 31.6157 26.54 30.3197C26.54 29.4237 26.46 28.6077 26.3 27.8717C26.14 27.1357 25.916 26.5037 25.628 25.9757L21.428 36.3677C21.828 36.5597 22.252 36.6557 22.7 36.6557ZM31.4746 38.7197V36.4397H35.6266V24.9197L31.6666 25.6397V23.5757L36.6106 21.9197H38.1706V36.4397H42.6346V38.7197H31.4746Z" fill="white"/>
</g>
<path d="M19.292 37.9517L18.7006 38.7582L18.707 38.7628L19.292 37.9517ZM17.06 34.9517L16.1323 35.3251L16.1339 35.329L17.06 34.9517ZM17.06 25.6877L16.1339 25.3104H16.1339L17.06 25.6877ZM19.292 22.6877L18.707 21.8767L18.7006 21.8813L19.292 22.6877ZM26.108 22.6877L26.6994 21.8813L26.6994 21.8813L26.108 22.6877ZM28.34 25.6877L29.2661 25.3104L28.34 25.6877ZM28.34 34.9517L29.2661 35.329L29.2677 35.3251L28.34 34.9517ZM26.108 37.9517L26.6994 38.7581L26.108 37.9517ZM19.1 32.7677L20.0772 32.5553L19.1 32.7677ZM19.772 34.6877L18.8882 35.1556L19.8938 37.0551L20.6991 35.0624L19.772 34.6877ZM23.972 24.2957L24.8991 24.6704L25.2508 23.8003L24.4047 23.3942L23.972 24.2957ZM19.94 25.7117L20.7812 26.2525L20.7846 26.2471L19.94 25.7117ZM24.692 35.8877L24.0276 35.1403V35.1403L24.692 35.8877ZM26.036 33.7037L25.0921 33.3734L25.0889 33.3827L26.036 33.7037ZM25.628 25.9757L26.5059 25.4969L25.4933 23.6404L24.7009 25.601L25.628 25.9757ZM21.428 36.3677L20.5009 35.993L20.1492 36.8631L20.9953 37.2692L21.428 36.3677ZM22.7 38.0077C21.5969 38.0077 20.6693 37.7122 19.877 37.1407L18.707 38.7628C19.8667 39.5992 21.2111 40.0077 22.7 40.0077V38.0077ZM19.8834 37.1453C19.0969 36.5686 18.4567 35.7296 17.9861 34.5744L16.1339 35.329C16.7193 36.7658 17.5671 37.9269 18.7006 38.7581L19.8834 37.1453ZM17.9877 34.5784C17.518 33.4112 17.268 31.9993 17.268 30.3197H15.268C15.268 32.1921 15.546 33.8683 16.1323 35.3251L17.9877 34.5784ZM17.268 30.3197C17.268 28.6223 17.5185 27.2128 17.9861 26.065L16.1339 25.3104C15.5455 26.7547 15.268 28.4331 15.268 30.3197H17.268ZM17.9861 26.065C18.4567 24.9098 19.0969 24.0709 19.8834 23.4941L18.7006 21.8813C17.5671 22.7126 16.7193 23.8736 16.1339 25.3104L17.9861 26.065ZM19.877 23.4988C20.6693 22.9272 21.5969 22.6317 22.7 22.6317V20.6317C21.2111 20.6317 19.8667 21.0402 18.707 21.8767L19.877 23.4988ZM22.7 22.6317C23.8222 22.6317 24.7457 22.9288 25.5166 23.4941L26.6994 21.8813C25.5503 21.0387 24.2018 20.6317 22.7 20.6317V22.6317ZM25.5166 23.4941C26.3031 24.0709 26.9433 24.9098 27.4139 26.065L29.2661 25.3104C28.6807 23.8736 27.8329 22.7126 26.6994 21.8813L25.5166 23.4941ZM27.4139 26.065C27.8815 27.2128 28.132 28.6223 28.132 30.3197H30.132C30.132 28.4331 29.8545 26.7547 29.2661 25.3104L27.4139 26.065ZM28.132 30.3197C28.132 31.9993 27.882 33.4112 27.4123 34.5784L29.2677 35.3251C29.854 33.8683 30.132 32.1921 30.132 30.3197H28.132ZM27.4139 34.5744C26.9433 35.7296 26.3031 36.5686 25.5166 37.1453L26.6994 38.7581C27.8329 37.9269 28.6807 36.7658 29.2661 35.329L27.4139 34.5744ZM25.5166 37.1453C24.7457 37.7107 23.8222 38.0077 22.7 38.0077V40.0077C24.2018 40.0077 25.5503 39.6008 26.6994 38.7581L25.5166 37.1453ZM17.86 30.3197C17.86 31.2741 17.9451 32.1627 18.1228 32.9802L20.0772 32.5553C19.9349 31.9008 19.86 31.1573 19.86 30.3197H17.86ZM18.1228 32.9802C18.298 33.7861 18.5493 34.5155 18.8882 35.1556L20.6558 34.2198C20.4187 33.7719 20.222 33.2214 20.0772 32.5553L18.1228 32.9802ZM20.6991 35.0624L24.8991 24.6704L23.0449 23.921L18.8449 34.313L20.6991 35.0624ZM24.4047 23.3942C23.8683 23.1367 23.2963 23.0077 22.7 23.0077V25.0077C22.9997 25.0077 23.2757 25.0707 23.5393 25.1972L24.4047 23.3942ZM22.7 23.0077C21.1646 23.0077 19.956 23.8184 19.0954 25.1764L20.7846 26.2471C21.364 25.333 21.9954 25.0077 22.7 25.0077V23.0077ZM19.0988 25.171C18.2374 26.5109 17.86 28.2603 17.86 30.3197H19.86C19.86 28.4752 20.2026 27.1525 20.7812 26.2525L19.0988 25.171ZM22.7 37.6557C23.7035 37.6557 24.6023 37.3054 25.3564 36.6351L24.0276 35.1403C23.6297 35.494 23.2005 35.6557 22.7 35.6557V37.6557ZM25.3564 36.6351C26.0946 35.9789 26.6233 35.086 26.9831 34.0248L25.0889 33.3827C24.8087 34.2095 24.4414 34.7725 24.0276 35.1403L25.3564 36.6351ZM26.9799 34.0341C27.3616 32.9433 27.54 31.6988 27.54 30.3197H25.54C25.54 31.5326 25.3824 32.5441 25.0921 33.3734L26.9799 34.0341ZM27.54 30.3197C27.54 29.3653 27.4549 28.4768 27.2772 27.6593L25.3228 28.0842C25.4651 28.7387 25.54 29.4821 25.54 30.3197H27.54ZM27.2772 27.6593C27.1018 26.8526 26.8493 26.1265 26.5059 25.4969L24.7501 26.4546C24.9827 26.881 25.1782 27.4189 25.3228 28.0842L27.2772 27.6593ZM24.7009 25.601L20.5009 35.993L22.3551 36.7424L26.5551 26.3504L24.7009 25.601ZM20.9953 37.2692C21.5317 37.5267 22.1037 37.6557 22.7 37.6557V35.6557C22.4003 35.6557 22.1243 35.5927 21.8607 35.4662L20.9953 37.2692ZM31.4746 38.7197H30.4746V39.7197H31.4746V38.7197ZM31.4746 36.4397V35.4397H30.4746V36.4397H31.4746ZM35.6266 36.4397V37.4397H36.6266V36.4397H35.6266ZM35.6266 24.9197H36.6266V23.7215L35.4477 23.9359L35.6266 24.9197ZM31.6666 25.6397H30.6666V26.8379L31.8455 26.6236L31.6666 25.6397ZM31.6666 23.5757L31.349 22.6275L30.6666 22.8561V23.5757H31.6666ZM36.6106 21.9197V20.9197H36.4476L36.293 20.9715L36.6106 21.9197ZM38.1706 21.9197H39.1706V20.9197H38.1706V21.9197ZM38.1706 36.4397H37.1706V37.4397H38.1706V36.4397ZM42.6346 36.4397H43.6346V35.4397H42.6346V36.4397ZM42.6346 38.7197V39.7197H43.6346V38.7197H42.6346ZM32.4746 38.7197V36.4397H30.4746V38.7197H32.4746ZM31.4746 37.4397H35.6266V35.4397H31.4746V37.4397ZM36.6266 36.4397V24.9197H34.6266V36.4397H36.6266ZM35.4477 23.9359L31.4877 24.6559L31.8455 26.6236L35.8055 25.9036L35.4477 23.9359ZM32.6666 25.6397V23.5757H30.6666V25.6397H32.6666ZM31.9842 24.5239L36.9282 22.8679L36.293 20.9715L31.349 22.6275L31.9842 24.5239ZM36.6106 22.9197H38.1706V20.9197H36.6106V22.9197ZM37.1706 21.9197V36.4397H39.1706V21.9197H37.1706ZM38.1706 37.4397H42.6346V35.4397H38.1706V37.4397ZM41.6346 36.4397V38.7197H43.6346V36.4397H41.6346ZM42.6346 37.7197H31.4746V39.7197H42.6346V37.7197Z" fill="#474747" mask="url(#path-2-outside-1_4572_84228)"/>
</g>
<defs>
<filter id="filter0_dddii_4572_84228" x="-13.5526" y="-12.8328" width="87.1051" height="87.1051" filterUnits="userSpaceOnUse" color-interpolation-filters="sRGB">
<feFlood flood-opacity="0" result="BackgroundImageFix"/>
<feColorMatrix in="SourceAlpha" type="matrix" values="0 0 0 0 0 0 0 0 0 0 0 0 0 0 0 0 0 0 127 0" result="hardAlpha"/>
<feOffset dy="6.02336"/>
<feGaussianBlur stdDeviation="3.01168"/>
<feComposite in2="hardAlpha" operator="out"/>
<feColorMatrix type="matrix" values="0 0 0 0 0 0 0 0 0 0 0 0 0 0 0 0 0 0 0.25 0"/>
<feBlend mode="normal" in2="BackgroundImageFix" result="effect1_dropShadow_4572_84228"/>
<feColorMatrix in="SourceAlpha" type="matrix" values="0 0 0 0 0 0 0 0 0 0 0 0 0 0 0 0 0 0 127 0" result="hardAlpha"/>
<feMorphology radius="6.02336" operator="dilate" in="SourceAlpha" result="effect2_dropShadow_4572_84228"/>
<feOffset/>
<feGaussianBlur stdDeviation="3.7646"/>
<feComposite in2="hardAlpha" operator="out"/>
<feColorMatrix type="matrix" values="0 0 0 0 0.968627 0 0 0 0 0.239216 0 0 0 0 0.176471 0 0 0 0.07 0"/>
<feBlend mode="normal" in2="effect1_dropShadow_4572_84228" result="effect2_dropShadow_4572_84228"/>
<feColorMatrix in="SourceAlpha" type="matrix" values="0 0 0 0 0 0 0 0 0 0 0 0 0 0 0 0 0 0 127 0" result="hardAlpha"/>
<feMorphology radius="1.50584" operator="dilate" in="SourceAlpha" result="effect3_dropShadow_4572_84228"/>
<feOffset/>
<feComposite in2="hardAlpha" operator="out"/>
<feColorMatrix type="matrix" values="0 0 0 0 0 0 0 0 0 0 0 0 0 0 0 0 0 0 1 0"/>
<feBlend mode="normal" in2="effect2_dropShadow_4572_84228" result="effect3_dropShadow_4572_84228"/>
<feBlend mode="normal" in="SourceGraphic" in2="effect3_dropShadow_4572_84228" result="shape"/>
<feColorMatrix in="SourceAlpha" type="matrix" values="0 0 0 0 0 0 0 0 0 0 0 0 0 0 0 0 0 0 127 0" result="hardAlpha"/>
<feOffset dy="4"/>
<feGaussianBlur stdDeviation="0.5"/>
<feComposite in2="hardAlpha" operator="arithmetic" k2="-1" k3="1"/>
<feColorMatrix type="matrix" values="0 0 0 0 1 0 0 0 0 1 0 0 0 0 1 0 0 0 0.08 0"/>
<feBlend mode="normal" in2="shape" result="effect4_innerShadow_4572_84228"/>
<feColorMatrix in="SourceAlpha" type="matrix" values="0 0 0 0 0 0 0 0 0 0 0 0 0 0 0 0 0 0 127 0" result="hardAlpha"/>
<feOffset dy="-3"/>
<feComposite in2="hardAlpha" operator="arithmetic" k2="-1" k3="1"/>
<feColorMatrix type="matrix" values="0 0 0 0 0 0 0 0 0 0 0 0 0 0 0 0 0 0 1 0"/>
<feBlend mode="normal" in2="effect4_innerShadow_4572_84228" result="effect5_innerShadow_4572_84228"/>
</filter>
<filter id="filter1_i_4572_84228" x="16.2676" y="21.6318" width="27.3672" height="18.376" filterUnits="userSpaceOnUse" color-interpolation-filters="sRGB">
<feFlood flood-opacity="0" result="BackgroundImageFix"/>
<feBlend mode="normal" in="SourceGraphic" in2="BackgroundImageFix" result="shape"/>
<feColorMatrix in="SourceAlpha" type="matrix" values="0 0 0 0 0 0 0 0 0 0 0 0 0 0 0 0 0 0 127 0" result="hardAlpha"/>
<feOffset dx="1" dy="1"/>
<feGaussianBlur stdDeviation="1"/>
<feComposite in2="hardAlpha" operator="arithmetic" k2="-1" k3="1"/>
<feColorMatrix type="matrix" values="0 0 0 0 0 0 0 0 0 0 0 0 0 0 0 0 0 0 1 0"/>
<feBlend mode="normal" in2="shape" result="effect1_innerShadow_4572_84228"/>
</filter>
</defs>
</svg>
