<svg width="60" height="60" viewBox="0 0 60 60" fill="none" xmlns="http://www.w3.org/2000/svg">
<g filter="url(#filter0_dddii_4102_5412)">
<rect width="60" height="60" rx="8" fill="white" fill-opacity="0.2" shape-rendering="crispEdges"/>
<mask id="path-2-outside-1_4102_5412" maskUnits="userSpaceOnUse" x="14.5" y="19" width="30" height="21" fill="black">
<rect fill="white" x="14.5" y="19" width="30" height="21"/>
<path d="M22.7 38.288C21.404 38.288 20.268 37.936 19.292 37.232C18.332 36.528 17.588 35.528 17.06 34.232C16.532 32.92 16.268 31.376 16.268 29.6C16.268 27.808 16.532 26.264 17.06 24.968C17.588 23.672 18.332 22.672 19.292 21.968C20.268 21.264 21.404 20.912 22.7 20.912C24.012 20.912 25.148 21.264 26.108 21.968C27.068 22.672 27.812 23.672 28.34 24.968C28.868 26.264 29.132 27.808 29.132 29.6C29.132 31.376 28.868 32.92 28.34 34.232C27.812 35.528 27.068 36.528 26.108 37.232C25.148 37.936 24.012 38.288 22.7 38.288ZM18.86 29.6C18.86 30.496 18.94 31.312 19.1 32.048C19.26 32.784 19.484 33.424 19.772 33.968L23.972 23.576C23.572 23.384 23.148 23.288 22.7 23.288C21.58 23.288 20.66 23.856 19.94 24.992C19.22 26.112 18.86 27.648 18.86 29.6ZM22.7 35.936C23.452 35.936 24.116 35.68 24.692 35.168C25.268 34.656 25.716 33.928 26.036 32.984C26.372 32.024 26.54 30.896 26.54 29.6C26.54 28.704 26.46 27.888 26.3 27.152C26.14 26.416 25.916 25.784 25.628 25.256L21.428 35.648C21.828 35.84 22.252 35.936 22.7 35.936ZM31.5706 38V35.984C33.2186 34.672 34.6586 33.464 35.8906 32.36C37.1386 31.256 38.1146 30.192 38.8186 29.168C39.5226 28.144 39.8746 27.104 39.8746 26.048C39.8746 25.168 39.6266 24.48 39.1306 23.984C38.6346 23.472 37.9626 23.216 37.1146 23.216C36.1386 23.216 35.3866 23.528 34.8586 24.152C34.3306 24.76 34.0666 25.488 34.0666 26.336H31.5946C31.6106 25.152 31.8586 24.16 32.3386 23.36C32.8186 22.56 33.4666 21.952 34.2826 21.536C35.1146 21.12 36.0586 20.912 37.1146 20.912C38.8266 20.912 40.1466 21.376 41.0746 22.304C42.0026 23.216 42.4666 24.44 42.4666 25.976C42.4666 26.952 42.2506 27.896 41.8186 28.808C41.4026 29.704 40.8506 30.56 40.1626 31.376C39.4746 32.192 38.7066 32.968 37.8586 33.704C37.0266 34.44 36.1866 35.144 35.3386 35.816H42.9226V38H31.5706Z"/>
</mask>
<g filter="url(#filter1_i_4102_5412)">
<path d="M22.7 38.288C21.404 38.288 20.268 37.936 19.292 37.232C18.332 36.528 17.588 35.528 17.06 34.232C16.532 32.92 16.268 31.376 16.268 29.6C16.268 27.808 16.532 26.264 17.06 24.968C17.588 23.672 18.332 22.672 19.292 21.968C20.268 21.264 21.404 20.912 22.7 20.912C24.012 20.912 25.148 21.264 26.108 21.968C27.068 22.672 27.812 23.672 28.34 24.968C28.868 26.264 29.132 27.808 29.132 29.6C29.132 31.376 28.868 32.92 28.34 34.232C27.812 35.528 27.068 36.528 26.108 37.232C25.148 37.936 24.012 38.288 22.7 38.288ZM18.86 29.6C18.86 30.496 18.94 31.312 19.1 32.048C19.26 32.784 19.484 33.424 19.772 33.968L23.972 23.576C23.572 23.384 23.148 23.288 22.7 23.288C21.58 23.288 20.66 23.856 19.94 24.992C19.22 26.112 18.86 27.648 18.86 29.6ZM22.7 35.936C23.452 35.936 24.116 35.68 24.692 35.168C25.268 34.656 25.716 33.928 26.036 32.984C26.372 32.024 26.54 30.896 26.54 29.6C26.54 28.704 26.46 27.888 26.3 27.152C26.14 26.416 25.916 25.784 25.628 25.256L21.428 35.648C21.828 35.84 22.252 35.936 22.7 35.936ZM31.5706 38V35.984C33.2186 34.672 34.6586 33.464 35.8906 32.36C37.1386 31.256 38.1146 30.192 38.8186 29.168C39.5226 28.144 39.8746 27.104 39.8746 26.048C39.8746 25.168 39.6266 24.48 39.1306 23.984C38.6346 23.472 37.9626 23.216 37.1146 23.216C36.1386 23.216 35.3866 23.528 34.8586 24.152C34.3306 24.76 34.0666 25.488 34.0666 26.336H31.5946C31.6106 25.152 31.8586 24.16 32.3386 23.36C32.8186 22.56 33.4666 21.952 34.2826 21.536C35.1146 21.12 36.0586 20.912 37.1146 20.912C38.8266 20.912 40.1466 21.376 41.0746 22.304C42.0026 23.216 42.4666 24.44 42.4666 25.976C42.4666 26.952 42.2506 27.896 41.8186 28.808C41.4026 29.704 40.8506 30.56 40.1626 31.376C39.4746 32.192 38.7066 32.968 37.8586 33.704C37.0266 34.44 36.1866 35.144 35.3386 35.816H42.9226V38H31.5706Z" fill="white"/>
</g>
<path d="M19.292 37.232L18.7006 38.0384L18.707 38.043L19.292 37.232ZM17.06 34.232L16.1323 34.6053L16.1339 34.6093L17.06 34.232ZM17.06 24.968L16.1339 24.5907H16.1339L17.06 24.968ZM19.292 21.968L18.707 21.1569L18.7006 21.1616L19.292 21.968ZM26.108 21.968L26.6994 21.1616L26.6994 21.1616L26.108 21.968ZM28.34 24.968L29.2661 24.5907L28.34 24.968ZM28.34 34.232L29.2661 34.6093L29.2677 34.6053L28.34 34.232ZM26.108 37.232L26.6994 38.0384L26.108 37.232ZM19.1 32.048L20.0772 31.8356L19.1 32.048ZM19.772 33.968L18.8882 34.4359L19.8938 36.3353L20.6991 34.3427L19.772 33.968ZM23.972 23.576L24.8991 23.9507L25.2508 23.0806L24.4047 22.6745L23.972 23.576ZM19.94 24.992L20.7812 25.5328L20.7846 25.5273L19.94 24.992ZM24.692 35.168L24.0276 34.4206V34.4206L24.692 35.168ZM26.036 32.984L25.0921 32.6536L25.0889 32.663L26.036 32.984ZM25.628 25.256L26.5059 24.7771L25.4933 22.9207L24.7009 24.8813L25.628 25.256ZM21.428 35.648L20.5009 35.2733L20.1492 36.1434L20.9953 36.5495L21.428 35.648ZM22.7 37.288C21.5969 37.288 20.6693 36.9925 19.877 36.421L18.707 38.043C19.8667 38.8795 21.2111 39.288 22.7 39.288V37.288ZM19.8834 36.4256C19.0969 35.8489 18.4567 35.0099 17.9861 33.8547L16.1339 34.6093C16.7193 36.0461 17.5671 37.2071 18.7006 38.0384L19.8834 36.4256ZM17.9877 33.8587C17.518 32.6914 17.268 31.2796 17.268 29.6H15.268C15.268 31.4724 15.546 33.1486 16.1323 34.6053L17.9877 33.8587ZM17.268 29.6C17.268 27.9026 17.5185 26.493 17.9861 25.3453L16.1339 24.5907C15.5455 26.035 15.268 27.7134 15.268 29.6H17.268ZM17.9861 25.3453C18.4567 24.1901 19.0969 23.3511 19.8834 22.7744L18.7006 21.1616C17.5671 21.9929 16.7193 23.1539 16.1339 24.5907L17.9861 25.3453ZM19.877 22.779C20.6693 22.2075 21.5969 21.912 22.7 21.912V19.912C21.2111 19.912 19.8667 20.3205 18.707 21.157L19.877 22.779ZM22.7 21.912C23.8222 21.912 24.7457 22.2091 25.5166 22.7744L26.6994 21.1616C25.5503 20.3189 24.2018 19.912 22.7 19.912V21.912ZM25.5166 22.7744C26.3031 23.3511 26.9433 24.1901 27.4139 25.3453L29.2661 24.5907C28.6807 23.1539 27.8329 21.9929 26.6994 21.1616L25.5166 22.7744ZM27.4139 25.3453C27.8815 26.493 28.132 27.9026 28.132 29.6H30.132C30.132 27.7134 29.8545 26.035 29.2661 24.5907L27.4139 25.3453ZM28.132 29.6C28.132 31.2796 27.882 32.6914 27.4123 33.8587L29.2677 34.6053C29.854 33.1486 30.132 31.4724 30.132 29.6H28.132ZM27.4139 33.8547C26.9433 35.0099 26.3031 35.8489 25.5166 36.4256L26.6994 38.0384C27.8329 37.2071 28.6807 36.0461 29.2661 34.6093L27.4139 33.8547ZM25.5166 36.4256C24.7457 36.9909 23.8222 37.288 22.7 37.288V39.288C24.2018 39.288 25.5503 38.8811 26.6994 38.0384L25.5166 36.4256ZM17.86 29.6C17.86 30.5544 17.9451 31.443 18.1228 32.2604L20.0772 31.8356C19.9349 31.181 19.86 30.4376 19.86 29.6H17.86ZM18.1228 32.2604C18.298 33.0664 18.5493 33.7958 18.8882 34.4359L20.6558 33.5001C20.4187 33.0522 20.222 32.5016 20.0772 31.8356L18.1228 32.2604ZM20.6991 34.3427L24.8991 23.9507L23.0449 23.2013L18.8449 33.5933L20.6991 34.3427ZM24.4047 22.6745C23.8683 22.417 23.2963 22.288 22.7 22.288V24.288C22.9997 24.288 23.2757 24.351 23.5393 24.4775L24.4047 22.6745ZM22.7 22.288C21.1646 22.288 19.956 23.0987 19.0954 24.4567L20.7846 25.5273C21.364 24.6133 21.9954 24.288 22.7 24.288V22.288ZM19.0988 24.4512C18.2374 25.7912 17.86 27.5405 17.86 29.6H19.86C19.86 27.7555 20.2026 26.4328 20.7812 25.5328L19.0988 24.4512ZM22.7 36.936C23.7035 36.936 24.6023 36.5857 25.3564 35.9154L24.0276 34.4206C23.6297 34.7743 23.2005 34.936 22.7 34.936V36.936ZM25.3564 35.9154C26.0946 35.2592 26.6233 34.3663 26.9831 33.305L25.0889 32.663C24.8087 33.4897 24.4414 34.0528 24.0276 34.4206L25.3564 35.9154ZM26.9799 33.3144C27.3616 32.2236 27.54 30.9791 27.54 29.6H25.54C25.54 30.8129 25.3824 31.8244 25.0921 32.6537L26.9799 33.3144ZM27.54 29.6C27.54 28.6456 27.4549 27.757 27.2772 26.9396L25.3228 27.3644C25.4651 28.019 25.54 28.7624 25.54 29.6H27.54ZM27.2772 26.9396C27.1018 26.1328 26.8493 25.4067 26.5059 24.7771L24.7501 25.7349C24.9827 26.1613 25.1782 26.6992 25.3228 27.3644L27.2772 26.9396ZM24.7009 24.8813L20.5009 35.2733L22.3551 36.0227L26.5551 25.6307L24.7009 24.8813ZM20.9953 36.5495C21.5317 36.807 22.1037 36.936 22.7 36.936V34.936C22.4003 34.936 22.1243 34.873 21.8607 34.7465L20.9953 36.5495ZM31.5706 38H30.5706V39H31.5706V38ZM31.5706 35.984L30.9478 35.2017L30.5706 35.5019V35.984H31.5706ZM35.8906 32.36L35.228 31.611L35.2233 31.6153L35.8906 32.36ZM38.8186 29.168L37.9946 28.6015V28.6015L38.8186 29.168ZM39.1306 23.984L38.4124 24.6798L38.4179 24.6855L38.4235 24.6911L39.1306 23.984ZM34.8586 24.152L35.6137 24.8077L35.622 24.7979L34.8586 24.152ZM34.0666 26.336V27.336H35.0666V26.336H34.0666ZM31.5946 26.336L30.5947 26.3225L30.581 27.336H31.5946V26.336ZM32.3386 23.36L33.1961 23.8745L32.3386 23.36ZM34.2826 21.536L33.8354 20.6415L33.8284 20.6451L34.2826 21.536ZM41.0746 22.304L40.3675 23.0111L40.3737 23.0172L41.0746 22.304ZM41.8186 28.808L40.9149 28.3799L40.9116 28.3869L41.8186 28.808ZM40.1626 31.376L40.9271 32.0206L40.1626 31.376ZM37.8586 33.704L37.2031 32.9487L37.1961 32.955L37.8586 33.704ZM35.3386 35.816L34.7175 35.0323L32.4666 36.816H35.3386V35.816ZM42.9226 35.816H43.9226V34.816H42.9226V35.816ZM42.9226 38V39H43.9226V38H42.9226ZM32.5706 38V35.984H30.5706V38H32.5706ZM32.1935 36.7663C33.8528 35.4453 35.3082 34.2246 36.558 33.1047L35.2233 31.6153C34.009 32.7034 32.5845 33.8987 30.9478 35.2017L32.1935 36.7663ZM36.5532 33.109C37.843 31.968 38.8799 30.844 39.6427 29.7345L37.9946 28.6015C37.3494 29.54 36.4343 30.544 35.2281 31.611L36.5532 33.109ZM39.6427 29.7345C40.4405 28.574 40.8746 27.3401 40.8746 26.048H38.8746C38.8746 26.8679 38.6047 27.714 37.9946 28.6015L39.6427 29.7345ZM40.8746 26.048C40.8746 24.974 40.5663 24.0054 39.8377 23.2769L38.4235 24.6911C38.687 24.9546 38.8746 25.362 38.8746 26.048H40.8746ZM39.8489 23.2882C39.1292 22.5453 38.178 22.216 37.1146 22.216V24.216C37.7473 24.216 38.1401 24.3987 38.4124 24.6798L39.8489 23.2882ZM37.1146 22.216C35.9074 22.216 34.8504 22.6136 34.0952 23.5061L35.622 24.7979C35.9228 24.4424 36.3699 24.216 37.1146 24.216V22.216ZM34.1036 23.4963C33.4087 24.2965 33.0666 25.261 33.0666 26.336H35.0666C35.0666 25.715 35.2525 25.2235 35.6137 24.8077L34.1036 23.4963ZM34.0666 25.336H31.5946V27.336H34.0666V25.336ZM32.5945 26.3495C32.6088 25.2954 32.8284 24.4874 33.1961 23.8745L31.4811 22.8455C30.8889 23.8326 30.6125 25.0086 30.5947 26.3225L32.5945 26.3495ZM33.1961 23.8745C33.5815 23.2321 34.0911 22.7561 34.7368 22.4269L33.8284 20.6451C32.8421 21.1479 32.0557 21.8879 31.4811 22.8455L33.1961 23.8745ZM34.7298 22.4304C35.4052 22.0927 36.1927 21.912 37.1146 21.912V19.912C35.9245 19.912 34.824 20.1473 33.8354 20.6416L34.7298 22.4304ZM37.1146 21.912C38.6455 21.912 39.6791 22.3227 40.3675 23.0111L41.7817 21.5969C40.6141 20.4293 39.0078 19.912 37.1146 19.912V21.912ZM40.3737 23.0172C41.0761 23.7075 41.4666 24.656 41.4666 25.976H43.4666C43.4666 24.224 42.9292 22.7245 41.7756 21.5908L40.3737 23.0172ZM41.4666 25.976C41.4666 26.7988 41.2857 27.597 40.9149 28.3799L42.7224 29.2361C43.2155 28.195 43.4666 27.1051 43.4666 25.976H41.4666ZM40.9116 28.3869C40.5359 29.1962 40.0335 29.9778 39.3981 30.7314L40.9271 32.0206C41.6678 31.1422 42.2694 30.2118 42.7256 29.2291L40.9116 28.3869ZM39.3981 30.7314C38.7452 31.5058 38.014 32.245 37.2032 32.9488L38.5141 34.4592C39.3992 33.691 40.204 32.8782 40.9271 32.0206L39.3981 30.7314ZM37.1961 32.955C36.3772 33.6794 35.551 34.3718 34.7175 35.0323L35.9597 36.5997C36.8222 35.9162 37.676 35.2006 38.5212 34.453L37.1961 32.955ZM35.3386 36.816H42.9226V34.816H35.3386V36.816ZM41.9226 35.816V38H43.9226V35.816H41.9226ZM42.9226 37H31.5706V39H42.9226V37Z" fill="#474747" mask="url(#path-2-outside-1_4102_5412)"/>
</g>
<defs>
<filter id="filter0_dddii_4102_5412" x="-13.5526" y="-13.5526" width="87.1051" height="87.1051" filterUnits="userSpaceOnUse" color-interpolation-filters="sRGB">
<feFlood flood-opacity="0" result="BackgroundImageFix"/>
<feColorMatrix in="SourceAlpha" type="matrix" values="0 0 0 0 0 0 0 0 0 0 0 0 0 0 0 0 0 0 127 0" result="hardAlpha"/>
<feOffset dy="6.02336"/>
<feGaussianBlur stdDeviation="3.01168"/>
<feComposite in2="hardAlpha" operator="out"/>
<feColorMatrix type="matrix" values="0 0 0 0 0 0 0 0 0 0 0 0 0 0 0 0 0 0 0.25 0"/>
<feBlend mode="normal" in2="BackgroundImageFix" result="effect1_dropShadow_4102_5412"/>
<feColorMatrix in="SourceAlpha" type="matrix" values="0 0 0 0 0 0 0 0 0 0 0 0 0 0 0 0 0 0 127 0" result="hardAlpha"/>
<feMorphology radius="6.02336" operator="dilate" in="SourceAlpha" result="effect2_dropShadow_4102_5412"/>
<feOffset/>
<feGaussianBlur stdDeviation="3.7646"/>
<feComposite in2="hardAlpha" operator="out"/>
<feColorMatrix type="matrix" values="0 0 0 0 0.968627 0 0 0 0 0.239216 0 0 0 0 0.176471 0 0 0 0.07 0"/>
<feBlend mode="normal" in2="effect1_dropShadow_4102_5412" result="effect2_dropShadow_4102_5412"/>
<feColorMatrix in="SourceAlpha" type="matrix" values="0 0 0 0 0 0 0 0 0 0 0 0 0 0 0 0 0 0 127 0" result="hardAlpha"/>
<feMorphology radius="1.50584" operator="dilate" in="SourceAlpha" result="effect3_dropShadow_4102_5412"/>
<feOffset/>
<feComposite in2="hardAlpha" operator="out"/>
<feColorMatrix type="matrix" values="0 0 0 0 0 0 0 0 0 0 0 0 0 0 0 0 0 0 1 0"/>
<feBlend mode="normal" in2="effect2_dropShadow_4102_5412" result="effect3_dropShadow_4102_5412"/>
<feBlend mode="normal" in="SourceGraphic" in2="effect3_dropShadow_4102_5412" result="shape"/>
<feColorMatrix in="SourceAlpha" type="matrix" values="0 0 0 0 0 0 0 0 0 0 0 0 0 0 0 0 0 0 127 0" result="hardAlpha"/>
<feOffset dy="4"/>
<feGaussianBlur stdDeviation="0.5"/>
<feComposite in2="hardAlpha" operator="arithmetic" k2="-1" k3="1"/>
<feColorMatrix type="matrix" values="0 0 0 0 1 0 0 0 0 1 0 0 0 0 1 0 0 0 0.08 0"/>
<feBlend mode="normal" in2="shape" result="effect4_innerShadow_4102_5412"/>
<feColorMatrix in="SourceAlpha" type="matrix" values="0 0 0 0 0 0 0 0 0 0 0 0 0 0 0 0 0 0 127 0" result="hardAlpha"/>
<feOffset dy="-3"/>
<feComposite in2="hardAlpha" operator="arithmetic" k2="-1" k3="1"/>
<feColorMatrix type="matrix" values="0 0 0 0 0 0 0 0 0 0 0 0 0 0 0 0 0 0 1 0"/>
<feBlend mode="normal" in2="effect4_innerShadow_4102_5412" result="effect5_innerShadow_4102_5412"/>
</filter>
<filter id="filter1_i_4102_5412" x="16.2676" y="20.9121" width="27.6543" height="18.376" filterUnits="userSpaceOnUse" color-interpolation-filters="sRGB">
<feFlood flood-opacity="0" result="BackgroundImageFix"/>
<feBlend mode="normal" in="SourceGraphic" in2="BackgroundImageFix" result="shape"/>
<feColorMatrix in="SourceAlpha" type="matrix" values="0 0 0 0 0 0 0 0 0 0 0 0 0 0 0 0 0 0 127 0" result="hardAlpha"/>
<feOffset dx="1" dy="1"/>
<feGaussianBlur stdDeviation="1"/>
<feComposite in2="hardAlpha" operator="arithmetic" k2="-1" k3="1"/>
<feColorMatrix type="matrix" values="0 0 0 0 0 0 0 0 0 0 0 0 0 0 0 0 0 0 1 0"/>
<feBlend mode="normal" in2="shape" result="effect1_innerShadow_4102_5412"/>
</filter>
</defs>
</svg>
