<svg width="60" height="60" viewBox="0 0 60 60" fill="none" xmlns="http://www.w3.org/2000/svg">
<g filter="url(#filter0_dddii_4102_5447)">
<rect width="60" height="60" rx="8" fill="white" fill-opacity="0.2" shape-rendering="crispEdges"/>
<mask id="path-2-outside-1_4102_5447" maskUnits="userSpaceOnUse" x="14.5" y="19" width="30" height="21" fill="black">
<rect fill="white" x="14.5" y="19" width="30" height="21"/>
<path d="M22.7 38.288C21.404 38.288 20.268 37.936 19.292 37.232C18.332 36.528 17.588 35.528 17.06 34.232C16.532 32.92 16.268 31.376 16.268 29.6C16.268 27.808 16.532 26.264 17.06 24.968C17.588 23.672 18.332 22.672 19.292 21.968C20.268 21.264 21.404 20.912 22.7 20.912C24.012 20.912 25.148 21.264 26.108 21.968C27.068 22.672 27.812 23.672 28.34 24.968C28.868 26.264 29.132 27.808 29.132 29.6C29.132 31.376 28.868 32.92 28.34 34.232C27.812 35.528 27.068 36.528 26.108 37.232C25.148 37.936 24.012 38.288 22.7 38.288ZM18.86 29.6C18.86 30.496 18.94 31.312 19.1 32.048C19.26 32.784 19.484 33.424 19.772 33.968L23.972 23.576C23.572 23.384 23.148 23.288 22.7 23.288C21.58 23.288 20.66 23.856 19.94 24.992C19.22 26.112 18.86 27.648 18.86 29.6ZM22.7 35.936C23.452 35.936 24.116 35.68 24.692 35.168C25.268 34.656 25.716 33.928 26.036 32.984C26.372 32.024 26.54 30.896 26.54 29.6C26.54 28.704 26.46 27.888 26.3 27.152C26.14 26.416 25.916 25.784 25.628 25.256L21.428 35.648C21.828 35.84 22.252 35.936 22.7 35.936ZM37.2106 38.288C36.1066 38.288 35.1066 38.08 34.2106 37.664C33.3146 37.248 32.6026 36.64 32.0746 35.84C31.5466 35.024 31.2586 34.04 31.2106 32.888H33.7546C33.8026 33.768 34.1226 34.496 34.7146 35.072C35.3226 35.648 36.1546 35.936 37.2106 35.936C38.2506 35.936 39.0666 35.68 39.6586 35.168C40.2506 34.656 40.5466 33.952 40.5466 33.056C40.5466 32.064 40.1866 31.336 39.4666 30.872C38.7466 30.408 37.8666 30.176 36.8266 30.176H35.3386V27.92H36.6106C37.5546 27.92 38.3306 27.728 38.9386 27.344C39.5466 26.96 39.8506 26.36 39.8506 25.544C39.8506 24.84 39.6186 24.288 39.1546 23.888C38.6906 23.472 38.0346 23.264 37.1866 23.264C36.3226 23.264 35.6346 23.496 35.1226 23.96C34.6106 24.424 34.3226 25.016 34.2586 25.736H31.7386C31.7866 24.776 32.0426 23.936 32.5066 23.216C32.9706 22.496 33.6026 21.936 34.4026 21.536C35.2026 21.12 36.1306 20.912 37.1866 20.912C38.3386 20.912 39.2986 21.112 40.0666 21.512C40.8346 21.896 41.4106 22.416 41.7946 23.072C42.1786 23.728 42.3706 24.464 42.3706 25.28C42.3706 26.112 42.1226 26.832 41.6266 27.44C41.1466 28.032 40.5626 28.464 39.8746 28.736V28.88C40.8026 29.136 41.5626 29.616 42.1546 30.32C42.7626 31.008 43.0666 31.936 43.0666 33.104C43.0666 34.048 42.8346 34.92 42.3706 35.72C41.9226 36.504 41.2586 37.128 40.3786 37.592C39.5146 38.056 38.4586 38.288 37.2106 38.288Z"/>
</mask>
<g filter="url(#filter1_i_4102_5447)">
<path d="M22.7 38.288C21.404 38.288 20.268 37.936 19.292 37.232C18.332 36.528 17.588 35.528 17.06 34.232C16.532 32.92 16.268 31.376 16.268 29.6C16.268 27.808 16.532 26.264 17.06 24.968C17.588 23.672 18.332 22.672 19.292 21.968C20.268 21.264 21.404 20.912 22.7 20.912C24.012 20.912 25.148 21.264 26.108 21.968C27.068 22.672 27.812 23.672 28.34 24.968C28.868 26.264 29.132 27.808 29.132 29.6C29.132 31.376 28.868 32.92 28.34 34.232C27.812 35.528 27.068 36.528 26.108 37.232C25.148 37.936 24.012 38.288 22.7 38.288ZM18.86 29.6C18.86 30.496 18.94 31.312 19.1 32.048C19.26 32.784 19.484 33.424 19.772 33.968L23.972 23.576C23.572 23.384 23.148 23.288 22.7 23.288C21.58 23.288 20.66 23.856 19.94 24.992C19.22 26.112 18.86 27.648 18.86 29.6ZM22.7 35.936C23.452 35.936 24.116 35.68 24.692 35.168C25.268 34.656 25.716 33.928 26.036 32.984C26.372 32.024 26.54 30.896 26.54 29.6C26.54 28.704 26.46 27.888 26.3 27.152C26.14 26.416 25.916 25.784 25.628 25.256L21.428 35.648C21.828 35.84 22.252 35.936 22.7 35.936ZM37.2106 38.288C36.1066 38.288 35.1066 38.08 34.2106 37.664C33.3146 37.248 32.6026 36.64 32.0746 35.84C31.5466 35.024 31.2586 34.04 31.2106 32.888H33.7546C33.8026 33.768 34.1226 34.496 34.7146 35.072C35.3226 35.648 36.1546 35.936 37.2106 35.936C38.2506 35.936 39.0666 35.68 39.6586 35.168C40.2506 34.656 40.5466 33.952 40.5466 33.056C40.5466 32.064 40.1866 31.336 39.4666 30.872C38.7466 30.408 37.8666 30.176 36.8266 30.176H35.3386V27.92H36.6106C37.5546 27.92 38.3306 27.728 38.9386 27.344C39.5466 26.96 39.8506 26.36 39.8506 25.544C39.8506 24.84 39.6186 24.288 39.1546 23.888C38.6906 23.472 38.0346 23.264 37.1866 23.264C36.3226 23.264 35.6346 23.496 35.1226 23.96C34.6106 24.424 34.3226 25.016 34.2586 25.736H31.7386C31.7866 24.776 32.0426 23.936 32.5066 23.216C32.9706 22.496 33.6026 21.936 34.4026 21.536C35.2026 21.12 36.1306 20.912 37.1866 20.912C38.3386 20.912 39.2986 21.112 40.0666 21.512C40.8346 21.896 41.4106 22.416 41.7946 23.072C42.1786 23.728 42.3706 24.464 42.3706 25.28C42.3706 26.112 42.1226 26.832 41.6266 27.44C41.1466 28.032 40.5626 28.464 39.8746 28.736V28.88C40.8026 29.136 41.5626 29.616 42.1546 30.32C42.7626 31.008 43.0666 31.936 43.0666 33.104C43.0666 34.048 42.8346 34.92 42.3706 35.72C41.9226 36.504 41.2586 37.128 40.3786 37.592C39.5146 38.056 38.4586 38.288 37.2106 38.288Z" fill="white"/>
</g>
<path d="M19.292 37.232L18.7006 38.0384L18.707 38.043L19.292 37.232ZM17.06 34.232L16.1323 34.6053L16.1339 34.6093L17.06 34.232ZM17.06 24.968L16.1339 24.5907H16.1339L17.06 24.968ZM19.292 21.968L18.707 21.1569L18.7006 21.1616L19.292 21.968ZM26.108 21.968L26.6994 21.1616L26.6994 21.1616L26.108 21.968ZM28.34 24.968L29.2661 24.5907L28.34 24.968ZM28.34 34.232L29.2661 34.6093L29.2677 34.6053L28.34 34.232ZM26.108 37.232L26.6994 38.0384L26.108 37.232ZM19.1 32.048L20.0772 31.8356L19.1 32.048ZM19.772 33.968L18.8882 34.4359L19.8938 36.3353L20.6991 34.3427L19.772 33.968ZM23.972 23.576L24.8991 23.9507L25.2508 23.0806L24.4047 22.6745L23.972 23.576ZM19.94 24.992L20.7812 25.5328L20.7846 25.5273L19.94 24.992ZM24.692 35.168L24.0276 34.4206V34.4206L24.692 35.168ZM26.036 32.984L25.0921 32.6536L25.0889 32.663L26.036 32.984ZM25.628 25.256L26.5059 24.7771L25.4933 22.9207L24.7009 24.8813L25.628 25.256ZM21.428 35.648L20.5009 35.2733L20.1492 36.1434L20.9953 36.5495L21.428 35.648ZM22.7 37.288C21.5969 37.288 20.6693 36.9925 19.877 36.421L18.707 38.043C19.8667 38.8795 21.2111 39.288 22.7 39.288V37.288ZM19.8834 36.4256C19.0969 35.8489 18.4567 35.0099 17.9861 33.8547L16.1339 34.6093C16.7193 36.0461 17.5671 37.2071 18.7006 38.0384L19.8834 36.4256ZM17.9877 33.8587C17.518 32.6914 17.268 31.2796 17.268 29.6H15.268C15.268 31.4724 15.546 33.1486 16.1323 34.6053L17.9877 33.8587ZM17.268 29.6C17.268 27.9026 17.5185 26.493 17.9861 25.3453L16.1339 24.5907C15.5455 26.035 15.268 27.7134 15.268 29.6H17.268ZM17.9861 25.3453C18.4567 24.1901 19.0969 23.3511 19.8834 22.7744L18.7006 21.1616C17.5671 21.9929 16.7193 23.1539 16.1339 24.5907L17.9861 25.3453ZM19.877 22.779C20.6693 22.2075 21.5969 21.912 22.7 21.912V19.912C21.2111 19.912 19.8667 20.3205 18.707 21.157L19.877 22.779ZM22.7 21.912C23.8222 21.912 24.7457 22.2091 25.5166 22.7744L26.6994 21.1616C25.5503 20.3189 24.2018 19.912 22.7 19.912V21.912ZM25.5166 22.7744C26.3031 23.3511 26.9433 24.1901 27.4139 25.3453L29.2661 24.5907C28.6807 23.1539 27.8329 21.9929 26.6994 21.1616L25.5166 22.7744ZM27.4139 25.3453C27.8815 26.493 28.132 27.9026 28.132 29.6H30.132C30.132 27.7134 29.8545 26.035 29.2661 24.5907L27.4139 25.3453ZM28.132 29.6C28.132 31.2796 27.882 32.6914 27.4123 33.8587L29.2677 34.6053C29.854 33.1486 30.132 31.4724 30.132 29.6H28.132ZM27.4139 33.8547C26.9433 35.0099 26.3031 35.8489 25.5166 36.4256L26.6994 38.0384C27.8329 37.2071 28.6807 36.0461 29.2661 34.6093L27.4139 33.8547ZM25.5166 36.4256C24.7457 36.9909 23.8222 37.288 22.7 37.288V39.288C24.2018 39.288 25.5503 38.8811 26.6994 38.0384L25.5166 36.4256ZM17.86 29.6C17.86 30.5544 17.9451 31.443 18.1228 32.2604L20.0772 31.8356C19.9349 31.181 19.86 30.4376 19.86 29.6H17.86ZM18.1228 32.2604C18.298 33.0664 18.5493 33.7958 18.8882 34.4359L20.6558 33.5001C20.4187 33.0522 20.222 32.5016 20.0772 31.8356L18.1228 32.2604ZM20.6991 34.3427L24.8991 23.9507L23.0449 23.2013L18.8449 33.5933L20.6991 34.3427ZM24.4047 22.6745C23.8683 22.417 23.2963 22.288 22.7 22.288V24.288C22.9997 24.288 23.2757 24.351 23.5393 24.4775L24.4047 22.6745ZM22.7 22.288C21.1646 22.288 19.956 23.0987 19.0954 24.4567L20.7846 25.5273C21.364 24.6133 21.9954 24.288 22.7 24.288V22.288ZM19.0988 24.4512C18.2374 25.7912 17.86 27.5405 17.86 29.6H19.86C19.86 27.7555 20.2026 26.4328 20.7812 25.5328L19.0988 24.4512ZM22.7 36.936C23.7035 36.936 24.6023 36.5857 25.3564 35.9154L24.0276 34.4206C23.6297 34.7743 23.2005 34.936 22.7 34.936V36.936ZM25.3564 35.9154C26.0946 35.2592 26.6233 34.3663 26.9831 33.305L25.0889 32.663C24.8087 33.4897 24.4414 34.0528 24.0276 34.4206L25.3564 35.9154ZM26.9799 33.3144C27.3616 32.2236 27.54 30.9791 27.54 29.6H25.54C25.54 30.8129 25.3824 31.8244 25.0921 32.6537L26.9799 33.3144ZM27.54 29.6C27.54 28.6456 27.4549 27.757 27.2772 26.9396L25.3228 27.3644C25.4651 28.019 25.54 28.7624 25.54 29.6H27.54ZM27.2772 26.9396C27.1018 26.1328 26.8493 25.4067 26.5059 24.7771L24.7501 25.7349C24.9827 26.1613 25.1782 26.6992 25.3228 27.3644L27.2772 26.9396ZM24.7009 24.8813L20.5009 35.2733L22.3551 36.0227L26.5551 25.6307L24.7009 24.8813ZM20.9953 36.5495C21.5317 36.807 22.1037 36.936 22.7 36.936V34.936C22.4003 34.936 22.1243 34.873 21.8607 34.7465L20.9953 36.5495ZM34.2106 37.664L33.7895 38.571L34.2106 37.664ZM32.0746 35.84L31.235 36.3833L31.24 36.3908L32.0746 35.84ZM31.2106 32.888V31.888H30.1681L30.2115 32.9296L31.2106 32.888ZM33.7546 32.888L34.7531 32.8335L34.7016 31.888H33.7546V32.888ZM34.7146 35.072L34.0172 35.7888L34.0269 35.798L34.7146 35.072ZM39.6586 35.168L39.0045 34.4116L39.6586 35.168ZM39.4666 30.872L40.0083 30.0314L40.0083 30.0314L39.4666 30.872ZM35.3386 30.176H34.3386V31.176H35.3386V30.176ZM35.3386 27.92V26.92H34.3386V27.92H35.3386ZM38.9386 27.344L38.4046 26.4985L38.9386 27.344ZM39.1546 23.888L38.4871 24.6326L38.4943 24.6391L38.5017 24.6454L39.1546 23.888ZM35.1226 23.96L35.7941 24.701L35.1226 23.96ZM34.2586 25.736V26.736H35.1737L35.2547 25.8245L34.2586 25.736ZM31.7386 25.736L30.7399 25.6861L30.6874 26.736H31.7386V25.736ZM32.5066 23.216L31.6661 22.6743L32.5066 23.216ZM34.4026 21.536L34.8498 22.4304L34.8569 22.4269L34.864 22.4232L34.4026 21.536ZM40.0666 21.512L39.6047 22.3989L39.612 22.4027L39.6194 22.4064L40.0666 21.512ZM41.7946 23.072L40.9316 23.5772L40.9316 23.5772L41.7946 23.072ZM41.6266 27.44L40.8518 26.8079L40.8499 26.8102L41.6266 27.44ZM39.8746 28.736L39.507 27.806L38.8746 28.056V28.736H39.8746ZM39.8746 28.88H38.8746V29.6415L39.6087 29.844L39.8746 28.88ZM42.1546 30.32L41.3893 30.9636L41.3972 30.973L41.4053 30.9822L42.1546 30.32ZM42.3706 35.72L41.5056 35.2183L41.5024 35.2239L42.3706 35.72ZM40.3786 37.592L39.9122 36.7074L39.9055 36.711L40.3786 37.592ZM37.2106 37.288C36.2349 37.288 35.381 37.1049 34.6317 36.757L33.7895 38.571C34.8322 39.0551 35.9784 39.288 37.2106 39.288V37.288ZM34.6317 36.757C33.8985 36.4166 33.3319 35.9295 32.9092 35.2892L31.24 36.3908C31.8734 37.3505 32.7307 38.0794 33.7895 38.571L34.6317 36.757ZM32.9142 35.2967C32.4999 34.6565 32.2517 33.8534 32.2098 32.8464L30.2115 32.9296C30.2655 34.2266 30.5933 35.3915 31.2351 36.3833L32.9142 35.2967ZM31.2106 33.888H33.7546V31.888H31.2106V33.888ZM32.7561 32.9425C32.8168 34.0548 33.2325 35.0252 34.0173 35.7887L35.412 34.3553C35.0127 33.9668 34.7885 33.4812 34.7531 32.8335L32.7561 32.9425ZM34.0269 35.798C34.8657 36.5926 35.9685 36.936 37.2106 36.936V34.936C36.3408 34.936 35.7795 34.7034 35.4024 34.346L34.0269 35.798ZM37.2106 36.936C38.4109 36.936 39.4866 36.6389 40.3128 35.9244L39.0045 34.4116C38.6467 34.7211 38.0904 34.936 37.2106 34.936V36.936ZM40.3128 35.9244C41.1575 35.1938 41.5466 34.1956 41.5466 33.056H39.5466C39.5466 33.7084 39.3438 34.1182 39.0045 34.4116L40.3128 35.9244ZM41.5466 33.056C41.5466 31.787 41.0631 30.7112 40.0083 30.0314L38.9249 31.7126C39.3102 31.9608 39.5466 32.341 39.5466 33.056H41.5466ZM40.0083 30.0314C39.0952 29.443 38.0173 29.176 36.8266 29.176V31.176C37.716 31.176 38.3981 31.373 38.9249 31.7126L40.0083 30.0314ZM36.8266 29.176H35.3386V31.176H36.8266V29.176ZM36.3386 30.176V27.92H34.3386V30.176H36.3386ZM35.3386 28.92H36.6106V26.92H35.3386V28.92ZM36.6106 28.92C37.6857 28.92 38.662 28.7014 39.4726 28.1895L38.4046 26.4985C37.9992 26.7546 37.4235 26.92 36.6106 26.92V28.92ZM39.4726 28.1895C40.4141 27.5949 40.8506 26.6485 40.8506 25.544H38.8506C38.8506 26.0715 38.6792 26.3251 38.4046 26.4985L39.4726 28.1895ZM40.8506 25.544C40.8506 24.5973 40.526 23.7499 39.8076 23.1306L38.5017 24.6454C38.7112 24.8261 38.8506 25.0827 38.8506 25.544H40.8506ZM39.8222 23.1434C39.1174 22.5116 38.1913 22.264 37.1866 22.264V24.264C37.8779 24.264 38.2638 24.4324 38.4871 24.6326L39.8222 23.1434ZM37.1866 22.264C36.1391 22.264 35.1899 22.5495 34.4511 23.219L35.7941 24.701C36.0793 24.4425 36.5062 24.264 37.1866 24.264V22.264ZM34.4511 23.219C33.7435 23.8603 33.3477 24.6896 33.2626 25.6475L35.2547 25.8245C35.2976 25.3424 35.4778 24.9877 35.7941 24.701L34.4511 23.219ZM34.2586 24.736H31.7386V26.736H34.2586V24.736ZM32.7374 25.7859C32.7777 24.9791 32.9893 24.3131 33.3472 23.7577L31.6661 22.6743C31.096 23.5589 30.7955 24.5729 30.7399 25.6861L32.7374 25.7859ZM33.3472 23.7577C33.7097 23.1952 34.2028 22.7539 34.8498 22.4304L33.9554 20.6416C33.0024 21.1181 32.2316 21.7968 31.6661 22.6743L33.3472 23.7577ZM34.864 22.4232C35.4989 22.093 36.2638 21.912 37.1866 21.912V19.912C35.9975 19.912 34.9063 20.147 33.9413 20.6488L34.864 22.4232ZM37.1866 21.912C38.2288 21.912 39.0186 22.0936 39.6047 22.3989L40.5286 20.6251C39.5787 20.1304 38.4485 19.912 37.1866 19.912V21.912ZM39.6194 22.4064C40.2372 22.7153 40.6579 23.1095 40.9316 23.5772L42.6576 22.5668C42.1634 21.7225 41.4321 21.0767 40.5138 20.6176L39.6194 22.4064ZM40.9316 23.5772C41.2193 24.0687 41.3706 24.6281 41.3706 25.28H43.3706C43.3706 24.2999 43.1379 23.3873 42.6576 22.5668L40.9316 23.5772ZM41.3706 25.28C41.3706 25.8966 41.193 26.3896 40.8518 26.8079L42.4015 28.0721C43.0523 27.2744 43.3706 26.3274 43.3706 25.28H41.3706ZM40.8499 26.8102C40.4748 27.2728 40.0301 27.5992 39.507 27.806L40.2423 29.666C41.0951 29.3288 41.8185 28.7912 42.4034 28.0698L40.8499 26.8102ZM38.8746 28.736V28.88H40.8746V28.736H38.8746ZM39.6087 29.844C40.3513 30.0488 40.9338 30.4219 41.3893 30.9636L42.92 29.6764C42.1915 28.8101 41.254 28.2232 40.1406 27.916L39.6087 29.844ZM41.4053 30.9822C41.8116 31.4419 42.0666 32.1115 42.0666 33.104H44.0666C44.0666 31.7605 43.7137 30.5741 42.904 29.6578L41.4053 30.9822ZM42.0666 33.104C42.0666 33.8756 41.8793 34.574 41.5056 35.2183L43.2357 36.2217C43.79 35.266 44.0666 34.2204 44.0666 33.104H42.0666ZM41.5024 35.2239C41.1582 35.8263 40.6418 36.3227 39.9122 36.7074L40.845 38.4766C41.8755 37.9333 42.6871 37.1817 43.2389 36.2161L41.5024 35.2239ZM39.9055 36.711C39.2213 37.0784 38.3375 37.288 37.2106 37.288V39.288C38.5798 39.288 39.808 39.0336 40.8518 38.473L39.9055 36.711Z" fill="#474747" mask="url(#path-2-outside-1_4102_5447)"/>
</g>
<defs>
<filter id="filter0_dddii_4102_5447" x="-13.5526" y="-13.5526" width="87.1051" height="87.1051" filterUnits="userSpaceOnUse" color-interpolation-filters="sRGB">
<feFlood flood-opacity="0" result="BackgroundImageFix"/>
<feColorMatrix in="SourceAlpha" type="matrix" values="0 0 0 0 0 0 0 0 0 0 0 0 0 0 0 0 0 0 127 0" result="hardAlpha"/>
<feOffset dy="6.02336"/>
<feGaussianBlur stdDeviation="3.01168"/>
<feComposite in2="hardAlpha" operator="out"/>
<feColorMatrix type="matrix" values="0 0 0 0 0 0 0 0 0 0 0 0 0 0 0 0 0 0 0.25 0"/>
<feBlend mode="normal" in2="BackgroundImageFix" result="effect1_dropShadow_4102_5447"/>
<feColorMatrix in="SourceAlpha" type="matrix" values="0 0 0 0 0 0 0 0 0 0 0 0 0 0 0 0 0 0 127 0" result="hardAlpha"/>
<feMorphology radius="6.02336" operator="dilate" in="SourceAlpha" result="effect2_dropShadow_4102_5447"/>
<feOffset/>
<feGaussianBlur stdDeviation="3.7646"/>
<feComposite in2="hardAlpha" operator="out"/>
<feColorMatrix type="matrix" values="0 0 0 0 0.968627 0 0 0 0 0.239216 0 0 0 0 0.176471 0 0 0 0.07 0"/>
<feBlend mode="normal" in2="effect1_dropShadow_4102_5447" result="effect2_dropShadow_4102_5447"/>
<feColorMatrix in="SourceAlpha" type="matrix" values="0 0 0 0 0 0 0 0 0 0 0 0 0 0 0 0 0 0 127 0" result="hardAlpha"/>
<feMorphology radius="1.50584" operator="dilate" in="SourceAlpha" result="effect3_dropShadow_4102_5447"/>
<feOffset/>
<feComposite in2="hardAlpha" operator="out"/>
<feColorMatrix type="matrix" values="0 0 0 0 0 0 0 0 0 0 0 0 0 0 0 0 0 0 1 0"/>
<feBlend mode="normal" in2="effect2_dropShadow_4102_5447" result="effect3_dropShadow_4102_5447"/>
<feBlend mode="normal" in="SourceGraphic" in2="effect3_dropShadow_4102_5447" result="shape"/>
<feColorMatrix in="SourceAlpha" type="matrix" values="0 0 0 0 0 0 0 0 0 0 0 0 0 0 0 0 0 0 127 0" result="hardAlpha"/>
<feOffset dy="4"/>
<feGaussianBlur stdDeviation="0.5"/>
<feComposite in2="hardAlpha" operator="arithmetic" k2="-1" k3="1"/>
<feColorMatrix type="matrix" values="0 0 0 0 1 0 0 0 0 1 0 0 0 0 1 0 0 0 0.08 0"/>
<feBlend mode="normal" in2="shape" result="effect4_innerShadow_4102_5447"/>
<feColorMatrix in="SourceAlpha" type="matrix" values="0 0 0 0 0 0 0 0 0 0 0 0 0 0 0 0 0 0 127 0" result="hardAlpha"/>
<feOffset dy="-3"/>
<feComposite in2="hardAlpha" operator="arithmetic" k2="-1" k3="1"/>
<feColorMatrix type="matrix" values="0 0 0 0 0 0 0 0 0 0 0 0 0 0 0 0 0 0 1 0"/>
<feBlend mode="normal" in2="effect4_innerShadow_4102_5447" result="effect5_innerShadow_4102_5447"/>
</filter>
<filter id="filter1_i_4102_5447" x="16.2676" y="20.9121" width="27.7988" height="18.376" filterUnits="userSpaceOnUse" color-interpolation-filters="sRGB">
<feFlood flood-opacity="0" result="BackgroundImageFix"/>
<feBlend mode="normal" in="SourceGraphic" in2="BackgroundImageFix" result="shape"/>
<feColorMatrix in="SourceAlpha" type="matrix" values="0 0 0 0 0 0 0 0 0 0 0 0 0 0 0 0 0 0 127 0" result="hardAlpha"/>
<feOffset dx="1" dy="1"/>
<feGaussianBlur stdDeviation="1"/>
<feComposite in2="hardAlpha" operator="arithmetic" k2="-1" k3="1"/>
<feColorMatrix type="matrix" values="0 0 0 0 0 0 0 0 0 0 0 0 0 0 0 0 0 0 1 0"/>
<feBlend mode="normal" in2="shape" result="effect1_innerShadow_4102_5447"/>
</filter>
</defs>
</svg>
