<svg width="60" height="60" viewBox="0 0 60 60" fill="none" xmlns="http://www.w3.org/2000/svg">
<g filter="url(#filter0_dddii_4102_5475)">
<rect width="60" height="60" rx="8" fill="white" fill-opacity="0.2" shape-rendering="crispEdges"/>
<mask id="path-2-outside-1_4102_5475" maskUnits="userSpaceOnUse" x="14.5" y="19" width="31" height="21" fill="black">
<rect fill="white" x="14.5" y="19" width="31" height="21"/>
<path d="M22.7 38.288C21.404 38.288 20.268 37.936 19.292 37.232C18.332 36.528 17.588 35.528 17.06 34.232C16.532 32.92 16.268 31.376 16.268 29.6C16.268 27.808 16.532 26.264 17.06 24.968C17.588 23.672 18.332 22.672 19.292 21.968C20.268 21.264 21.404 20.912 22.7 20.912C24.012 20.912 25.148 21.264 26.108 21.968C27.068 22.672 27.812 23.672 28.34 24.968C28.868 26.264 29.132 27.808 29.132 29.6C29.132 31.376 28.868 32.92 28.34 34.232C27.812 35.528 27.068 36.528 26.108 37.232C25.148 37.936 24.012 38.288 22.7 38.288ZM18.86 29.6C18.86 30.496 18.94 31.312 19.1 32.048C19.26 32.784 19.484 33.424 19.772 33.968L23.972 23.576C23.572 23.384 23.148 23.288 22.7 23.288C21.58 23.288 20.66 23.856 19.94 24.992C19.22 26.112 18.86 27.648 18.86 29.6ZM22.7 35.936C23.452 35.936 24.116 35.68 24.692 35.168C25.268 34.656 25.716 33.928 26.036 32.984C26.372 32.024 26.54 30.896 26.54 29.6C26.54 28.704 26.46 27.888 26.3 27.152C26.14 26.416 25.916 25.784 25.628 25.256L21.428 35.648C21.828 35.84 22.252 35.936 22.7 35.936ZM38.9386 38V34.376H30.9706V32.384L38.4826 21.2H41.4826V32.072H43.6666V34.376H41.4826V38H38.9386ZM33.8026 32.072H39.0826V24.056L33.8026 32.072Z"/>
</mask>
<g filter="url(#filter1_i_4102_5475)">
<path d="M22.7 38.288C21.404 38.288 20.268 37.936 19.292 37.232C18.332 36.528 17.588 35.528 17.06 34.232C16.532 32.92 16.268 31.376 16.268 29.6C16.268 27.808 16.532 26.264 17.06 24.968C17.588 23.672 18.332 22.672 19.292 21.968C20.268 21.264 21.404 20.912 22.7 20.912C24.012 20.912 25.148 21.264 26.108 21.968C27.068 22.672 27.812 23.672 28.34 24.968C28.868 26.264 29.132 27.808 29.132 29.6C29.132 31.376 28.868 32.92 28.34 34.232C27.812 35.528 27.068 36.528 26.108 37.232C25.148 37.936 24.012 38.288 22.7 38.288ZM18.86 29.6C18.86 30.496 18.94 31.312 19.1 32.048C19.26 32.784 19.484 33.424 19.772 33.968L23.972 23.576C23.572 23.384 23.148 23.288 22.7 23.288C21.58 23.288 20.66 23.856 19.94 24.992C19.22 26.112 18.86 27.648 18.86 29.6ZM22.7 35.936C23.452 35.936 24.116 35.68 24.692 35.168C25.268 34.656 25.716 33.928 26.036 32.984C26.372 32.024 26.54 30.896 26.54 29.6C26.54 28.704 26.46 27.888 26.3 27.152C26.14 26.416 25.916 25.784 25.628 25.256L21.428 35.648C21.828 35.84 22.252 35.936 22.7 35.936ZM38.9386 38V34.376H30.9706V32.384L38.4826 21.2H41.4826V32.072H43.6666V34.376H41.4826V38H38.9386ZM33.8026 32.072H39.0826V24.056L33.8026 32.072Z" fill="white"/>
</g>
<path d="M19.292 37.232L18.7006 38.0384L18.707 38.043L19.292 37.232ZM17.06 34.232L16.1323 34.6053L16.1339 34.6093L17.06 34.232ZM17.06 24.968L16.1339 24.5907H16.1339L17.06 24.968ZM19.292 21.968L18.707 21.1569L18.7006 21.1616L19.292 21.968ZM26.108 21.968L26.6994 21.1616L26.6994 21.1616L26.108 21.968ZM28.34 24.968L29.2661 24.5907L28.34 24.968ZM28.34 34.232L29.2661 34.6093L29.2677 34.6053L28.34 34.232ZM26.108 37.232L26.6994 38.0384L26.108 37.232ZM19.1 32.048L20.0772 31.8356L19.1 32.048ZM19.772 33.968L18.8882 34.4359L19.8938 36.3353L20.6991 34.3427L19.772 33.968ZM23.972 23.576L24.8991 23.9507L25.2508 23.0806L24.4047 22.6745L23.972 23.576ZM19.94 24.992L20.7812 25.5328L20.7846 25.5273L19.94 24.992ZM24.692 35.168L24.0276 34.4206V34.4206L24.692 35.168ZM26.036 32.984L25.0921 32.6536L25.0889 32.663L26.036 32.984ZM25.628 25.256L26.5059 24.7771L25.4933 22.9207L24.7009 24.8813L25.628 25.256ZM21.428 35.648L20.5009 35.2733L20.1492 36.1434L20.9953 36.5495L21.428 35.648ZM22.7 37.288C21.5969 37.288 20.6693 36.9925 19.877 36.421L18.707 38.043C19.8667 38.8795 21.2111 39.288 22.7 39.288V37.288ZM19.8834 36.4256C19.0969 35.8489 18.4567 35.0099 17.9861 33.8547L16.1339 34.6093C16.7193 36.0461 17.5671 37.2071 18.7006 38.0384L19.8834 36.4256ZM17.9877 33.8587C17.518 32.6914 17.268 31.2796 17.268 29.6H15.268C15.268 31.4724 15.546 33.1486 16.1323 34.6053L17.9877 33.8587ZM17.268 29.6C17.268 27.9026 17.5185 26.493 17.9861 25.3453L16.1339 24.5907C15.5455 26.035 15.268 27.7134 15.268 29.6H17.268ZM17.9861 25.3453C18.4567 24.1901 19.0969 23.3511 19.8834 22.7744L18.7006 21.1616C17.5671 21.9929 16.7193 23.1539 16.1339 24.5907L17.9861 25.3453ZM19.877 22.779C20.6693 22.2075 21.5969 21.912 22.7 21.912V19.912C21.2111 19.912 19.8667 20.3205 18.707 21.157L19.877 22.779ZM22.7 21.912C23.8222 21.912 24.7457 22.2091 25.5166 22.7744L26.6994 21.1616C25.5503 20.3189 24.2018 19.912 22.7 19.912V21.912ZM25.5166 22.7744C26.3031 23.3511 26.9433 24.1901 27.4139 25.3453L29.2661 24.5907C28.6807 23.1539 27.8329 21.9929 26.6994 21.1616L25.5166 22.7744ZM27.4139 25.3453C27.8815 26.493 28.132 27.9026 28.132 29.6H30.132C30.132 27.7134 29.8545 26.035 29.2661 24.5907L27.4139 25.3453ZM28.132 29.6C28.132 31.2796 27.882 32.6914 27.4123 33.8587L29.2677 34.6053C29.854 33.1486 30.132 31.4724 30.132 29.6H28.132ZM27.4139 33.8547C26.9433 35.0099 26.3031 35.8489 25.5166 36.4256L26.6994 38.0384C27.8329 37.2071 28.6807 36.0461 29.2661 34.6093L27.4139 33.8547ZM25.5166 36.4256C24.7457 36.9909 23.8222 37.288 22.7 37.288V39.288C24.2018 39.288 25.5503 38.8811 26.6994 38.0384L25.5166 36.4256ZM17.86 29.6C17.86 30.5544 17.9451 31.443 18.1228 32.2604L20.0772 31.8356C19.9349 31.181 19.86 30.4376 19.86 29.6H17.86ZM18.1228 32.2604C18.298 33.0664 18.5493 33.7958 18.8882 34.4359L20.6558 33.5001C20.4187 33.0522 20.222 32.5016 20.0772 31.8356L18.1228 32.2604ZM20.6991 34.3427L24.8991 23.9507L23.0449 23.2013L18.8449 33.5933L20.6991 34.3427ZM24.4047 22.6745C23.8683 22.417 23.2963 22.288 22.7 22.288V24.288C22.9997 24.288 23.2757 24.351 23.5393 24.4775L24.4047 22.6745ZM22.7 22.288C21.1646 22.288 19.956 23.0987 19.0954 24.4567L20.7846 25.5273C21.364 24.6133 21.9954 24.288 22.7 24.288V22.288ZM19.0988 24.4512C18.2374 25.7912 17.86 27.5405 17.86 29.6H19.86C19.86 27.7555 20.2026 26.4328 20.7812 25.5328L19.0988 24.4512ZM22.7 36.936C23.7035 36.936 24.6023 36.5857 25.3564 35.9154L24.0276 34.4206C23.6297 34.7743 23.2005 34.936 22.7 34.936V36.936ZM25.3564 35.9154C26.0946 35.2592 26.6233 34.3663 26.9831 33.305L25.0889 32.663C24.8087 33.4897 24.4414 34.0528 24.0276 34.4206L25.3564 35.9154ZM26.9799 33.3144C27.3616 32.2236 27.54 30.9791 27.54 29.6H25.54C25.54 30.8129 25.3824 31.8244 25.0921 32.6537L26.9799 33.3144ZM27.54 29.6C27.54 28.6456 27.4549 27.757 27.2772 26.9396L25.3228 27.3644C25.4651 28.019 25.54 28.7624 25.54 29.6H27.54ZM27.2772 26.9396C27.1018 26.1328 26.8493 25.4067 26.5059 24.7771L24.7501 25.7349C24.9827 26.1613 25.1782 26.6992 25.3228 27.3644L27.2772 26.9396ZM24.7009 24.8813L20.5009 35.2733L22.3551 36.0227L26.5551 25.6307L24.7009 24.8813ZM20.9953 36.5495C21.5317 36.807 22.1037 36.936 22.7 36.936V34.936C22.4003 34.936 22.1243 34.873 21.8607 34.7465L20.9953 36.5495ZM38.9386 38H37.9386V39H38.9386V38ZM38.9386 34.376H39.9386V33.376H38.9386V34.376ZM30.9706 34.376H29.9706V35.376H30.9706V34.376ZM30.9706 32.384L30.1405 31.8264L29.9706 32.0793V32.384H30.9706ZM38.4826 21.2V20.2H37.9497L37.6525 20.6424L38.4826 21.2ZM41.4826 21.2H42.4826V20.2H41.4826V21.2ZM41.4826 32.072H40.4826V33.072H41.4826V32.072ZM43.6666 32.072H44.6666V31.072H43.6666V32.072ZM43.6666 34.376V35.376H44.6666V34.376H43.6666ZM41.4826 34.376V33.376H40.4826V34.376H41.4826ZM41.4826 38V39H42.4826V38H41.4826ZM33.8026 32.072L32.9675 31.5219L31.9465 33.072H33.8026V32.072ZM39.0826 32.072V33.072H40.0826V32.072H39.0826ZM39.0826 24.056H40.0826V20.7199L38.2475 23.5059L39.0826 24.056ZM39.9386 38V34.376H37.9386V38H39.9386ZM38.9386 33.376H30.9706V35.376H38.9386V33.376ZM31.9706 34.376V32.384H29.9706V34.376H31.9706ZM31.8008 32.9416L39.3128 21.7576L37.6525 20.6424L30.1405 31.8264L31.8008 32.9416ZM38.4826 22.2H41.4826V20.2H38.4826V22.2ZM40.4826 21.2V32.072H42.4826V21.2H40.4826ZM41.4826 33.072H43.6666V31.072H41.4826V33.072ZM42.6666 32.072V34.376H44.6666V32.072H42.6666ZM43.6666 33.376H41.4826V35.376H43.6666V33.376ZM40.4826 34.376V38H42.4826V34.376H40.4826ZM41.4826 37H38.9386V39H41.4826V37ZM33.8026 33.072H39.0826V31.072H33.8026V33.072ZM40.0826 32.072V24.056H38.0826V32.072H40.0826ZM38.2475 23.5059L32.9675 31.5219L34.6377 32.6221L39.9177 24.6061L38.2475 23.5059Z" fill="#474747" mask="url(#path-2-outside-1_4102_5475)"/>
</g>
<defs>
<filter id="filter0_dddii_4102_5475" x="-13.5526" y="-13.5526" width="87.1051" height="87.1051" filterUnits="userSpaceOnUse" color-interpolation-filters="sRGB">
<feFlood flood-opacity="0" result="BackgroundImageFix"/>
<feColorMatrix in="SourceAlpha" type="matrix" values="0 0 0 0 0 0 0 0 0 0 0 0 0 0 0 0 0 0 127 0" result="hardAlpha"/>
<feOffset dy="6.02336"/>
<feGaussianBlur stdDeviation="3.01168"/>
<feComposite in2="hardAlpha" operator="out"/>
<feColorMatrix type="matrix" values="0 0 0 0 0 0 0 0 0 0 0 0 0 0 0 0 0 0 0.25 0"/>
<feBlend mode="normal" in2="BackgroundImageFix" result="effect1_dropShadow_4102_5475"/>
<feColorMatrix in="SourceAlpha" type="matrix" values="0 0 0 0 0 0 0 0 0 0 0 0 0 0 0 0 0 0 127 0" result="hardAlpha"/>
<feMorphology radius="6.02336" operator="dilate" in="SourceAlpha" result="effect2_dropShadow_4102_5475"/>
<feOffset/>
<feGaussianBlur stdDeviation="3.7646"/>
<feComposite in2="hardAlpha" operator="out"/>
<feColorMatrix type="matrix" values="0 0 0 0 0.968627 0 0 0 0 0.239216 0 0 0 0 0.176471 0 0 0 0.07 0"/>
<feBlend mode="normal" in2="effect1_dropShadow_4102_5475" result="effect2_dropShadow_4102_5475"/>
<feColorMatrix in="SourceAlpha" type="matrix" values="0 0 0 0 0 0 0 0 0 0 0 0 0 0 0 0 0 0 127 0" result="hardAlpha"/>
<feMorphology radius="1.50584" operator="dilate" in="SourceAlpha" result="effect3_dropShadow_4102_5475"/>
<feOffset/>
<feComposite in2="hardAlpha" operator="out"/>
<feColorMatrix type="matrix" values="0 0 0 0 0 0 0 0 0 0 0 0 0 0 0 0 0 0 1 0"/>
<feBlend mode="normal" in2="effect2_dropShadow_4102_5475" result="effect3_dropShadow_4102_5475"/>
<feBlend mode="normal" in="SourceGraphic" in2="effect3_dropShadow_4102_5475" result="shape"/>
<feColorMatrix in="SourceAlpha" type="matrix" values="0 0 0 0 0 0 0 0 0 0 0 0 0 0 0 0 0 0 127 0" result="hardAlpha"/>
<feOffset dy="4"/>
<feGaussianBlur stdDeviation="0.5"/>
<feComposite in2="hardAlpha" operator="arithmetic" k2="-1" k3="1"/>
<feColorMatrix type="matrix" values="0 0 0 0 1 0 0 0 0 1 0 0 0 0 1 0 0 0 0.08 0"/>
<feBlend mode="normal" in2="shape" result="effect4_innerShadow_4102_5475"/>
<feColorMatrix in="SourceAlpha" type="matrix" values="0 0 0 0 0 0 0 0 0 0 0 0 0 0 0 0 0 0 127 0" result="hardAlpha"/>
<feOffset dy="-3"/>
<feComposite in2="hardAlpha" operator="arithmetic" k2="-1" k3="1"/>
<feColorMatrix type="matrix" values="0 0 0 0 0 0 0 0 0 0 0 0 0 0 0 0 0 0 1 0"/>
<feBlend mode="normal" in2="effect4_innerShadow_4102_5475" result="effect5_innerShadow_4102_5475"/>
</filter>
<filter id="filter1_i_4102_5475" x="16.2676" y="20.9121" width="28.3984" height="18.376" filterUnits="userSpaceOnUse" color-interpolation-filters="sRGB">
<feFlood flood-opacity="0" result="BackgroundImageFix"/>
<feBlend mode="normal" in="SourceGraphic" in2="BackgroundImageFix" result="shape"/>
<feColorMatrix in="SourceAlpha" type="matrix" values="0 0 0 0 0 0 0 0 0 0 0 0 0 0 0 0 0 0 127 0" result="hardAlpha"/>
<feOffset dx="1" dy="1"/>
<feGaussianBlur stdDeviation="1"/>
<feComposite in2="hardAlpha" operator="arithmetic" k2="-1" k3="1"/>
<feColorMatrix type="matrix" values="0 0 0 0 0 0 0 0 0 0 0 0 0 0 0 0 0 0 1 0"/>
<feBlend mode="normal" in2="shape" result="effect1_innerShadow_4102_5475"/>
</filter>
</defs>
</svg>
