<svg width="21" height="21" viewBox="0 0 21 21" fill="none" xmlns="http://www.w3.org/2000/svg">
<g id="ri:apple-fill">
<path id="Vector" d="M10.2285 6.87006C9.49847 6.87006 8.36847 6.04006 7.17847 6.07006C5.60847 6.09006 4.16847 6.98006 3.35847 8.39006C1.72847 11.2201 2.93847 15.4001 4.52847 17.7001C5.30847 18.8201 6.22847 20.0801 7.44847 20.0401C8.61847 19.9901 9.05847 19.2801 10.4785 19.2801C11.8885 19.2801 12.2885 20.0401 13.5285 20.0101C14.7885 19.9901 15.5885 18.8701 16.3585 17.7401C17.2485 16.4401 17.6185 15.1801 17.6385 15.1101C17.6085 15.1001 15.1885 14.1701 15.1585 11.3701C15.1385 9.03006 17.0685 7.91006 17.1585 7.86006C16.0585 6.25006 14.3685 6.07006 13.7785 6.03006C12.2385 5.91006 10.9485 6.87006 10.2285 6.87006ZM12.8285 4.51006C13.4785 3.73006 13.9085 2.64006 13.7885 1.56006C12.8585 1.60006 11.7385 2.18006 11.0685 2.96006C10.4685 3.65006 9.94847 4.76006 10.0885 5.82006C11.1185 5.90006 12.1785 5.29006 12.8285 4.51006Z" fill="white"/>
</g>
</svg>
