<svg width="1440" height="499" viewBox="0 0 1440 499" fill="none" xmlns="http://www.w3.org/2000/svg">
<g opacity="0.05">
<g filter="url(#filter0_ii_4206_1950)">
<path d="M1311.4 52.2331L1271.23 9.60303C1269.38 10.7172 1267 10.4519 1265.43 8.78067C1263.53 6.76457 1263.53 3.50166 1265.43 1.51208C1267.33 -0.504027 1270.4 -0.504027 1272.27 1.51208C1273.85 3.18333 1274.1 5.70346 1273.05 7.66651L1312.48 49.4742L1492.5 49.4742C1493.07 47.2989 1494.92 45.7072 1497.15 45.7072C1499.83 45.7072 1502 48.0152 1502 50.8536C1502 53.6921 1499.83 56 1497.15 56C1494.92 56 1493.05 54.3818 1492.5 52.2331L1311.4 52.2331Z" fill="#EDEDED"/>
</g>
<path d="M1271.19 9.54524L1271.24 9.51717L1271.27 9.55676L1311.43 52.1656L1492.5 52.1656H1492.55L1492.57 52.2163C1493.11 54.3386 1494.96 55.9325 1497.15 55.9325C1499.78 55.9325 1501.93 53.6587 1501.93 50.8536C1501.93 48.0486 1499.78 45.7747 1497.15 45.7747C1494.96 45.7747 1493.13 47.342 1492.57 49.4914L1492.55 49.5416H1492.5L1312.48 49.5416H1312.45L1312.43 49.5205L1273 7.71279L1272.97 7.67748L1272.99 7.63469C1274.03 5.69575 1273.78 3.20733 1272.23 1.55835L1272.23 1.55802C1270.38 -0.4292 1267.35 -0.429685 1265.47 1.55835L1265.47 1.55867C1263.6 3.52201 1263.6 6.74411 1265.47 8.7344C1267.03 10.3822 1269.37 10.6433 1271.19 9.54524Z" stroke="#F9F9F9" stroke-width="0.13493"/>
<g filter="url(#filter1_ii_4206_1950)">
<path d="M1186.15 54C1188.82 54 1191 56.3089 1191 59.1486C1191 61.9883 1188.82 64.2972 1186.15 64.2972C1183.92 64.2972 1182.05 62.6783 1181.5 60.5287L940.814 60.5287L903.412 100.231L648.5 100.231C647.925 102.408 646.075 104 643.85 104C641.175 104 639 101.691 639 98.8514C639 96.0117 641.175 93.7028 643.85 93.7028C646.075 93.7028 647.95 95.2951 648.5 97.4713L902.337 97.4713L939.739 57.7686L1181.5 57.7686C1182.07 55.5924 1183.92 54 1186.15 54Z" fill="#EDEDED"/>
</g>
<path d="M1181.5 60.4612H1181.55L1181.56 60.5119C1182.11 62.6351 1183.96 64.2298 1186.15 64.2298C1188.78 64.2298 1190.93 61.9549 1190.93 59.1486C1190.93 56.3423 1188.78 54.0675 1186.15 54.0675C1183.96 54.0675 1182.13 55.6355 1181.56 57.7858L1181.55 57.836H1181.5L939.768 57.836L902.386 97.5176L902.366 97.5388H902.337L648.5 97.5388H648.448L648.435 97.4879C647.892 95.3387 646.042 93.7702 643.85 93.7702C641.216 93.7702 639.067 96.0451 639.067 98.8514C639.067 101.658 641.216 103.933 643.85 103.933C646.041 103.933 647.867 102.365 648.435 100.214L648.448 100.164H648.5L903.383 100.164L940.765 60.4824L940.785 60.4612H940.814L1181.5 60.4612Z" stroke="#F9F9F9" stroke-width="0.13493"/>
<g filter="url(#filter2_ii_4206_1950)">
<path d="M571.659 122.471L747.507 122.471C748.081 120.295 749.93 118.703 752.154 118.703C754.827 118.703 757 121.012 757 123.851C757 126.691 754.827 129 752.154 129C749.93 129 748.057 127.381 747.507 125.231L570.585 125.231L508.955 59.76L317.068 59.76L278.171 101.081L75.4931 101.081C74.9185 103.257 73.0699 104.85 70.8465 104.85C68.1735 104.85 66 102.541 66 99.7011C66 96.8614 68.1735 94.5525 70.8465 94.5525C73.0699 94.5525 74.9435 96.1449 75.4931 98.321L277.097 98.321L315.994 57L510.029 57L571.659 122.471Z" fill="#EDEDED"/>
</g>
<path d="M571.659 122.539H571.63L571.61 122.518L510 57.0675L316.023 57.0675L277.146 98.3673L277.126 98.3885H277.097L75.4931 98.3885H75.4406L75.4277 98.3376C74.8849 96.1884 73.036 94.62 70.8465 94.62C68.2145 94.62 66.0674 96.8948 66.0674 99.7011C66.0674 102.507 68.2145 104.782 70.8465 104.782C73.0355 104.782 74.8601 103.214 75.4279 101.064L75.4412 101.014H75.4931L278.142 101.014L317.019 59.7138L317.039 59.6926H317.068L508.955 59.6926H508.984L509.004 59.7138L570.614 125.164L747.507 125.164H747.559L747.572 125.215C748.115 127.338 749.964 128.933 752.154 128.933C754.786 128.933 756.933 126.658 756.933 123.851C756.933 121.045 754.786 118.77 752.154 118.77C749.964 118.77 748.14 120.338 747.572 122.489L747.559 122.539H747.507L571.659 122.539Z" stroke="#F9F9F9" stroke-width="0.13493"/>
<g filter="url(#filter3_ii_4206_1950)">
<path d="M1268.21 527.364L1321.55 470.769L1476.49 470.769C1477.07 468.593 1478.92 467 1481.15 467C1483.82 467 1486 469.309 1486 472.15C1486 474.99 1483.82 477.3 1481.15 477.3C1478.92 477.3 1477.04 475.68 1476.49 473.53L1322.65 473.53L1270.06 529.328C1271.11 531.293 1270.86 533.815 1269.28 535.487C1267.38 537.504 1264.3 537.504 1262.43 535.487C1260.52 533.469 1260.52 530.204 1262.43 528.214C1263.98 526.515 1266.35 526.249 1268.21 527.364Z" fill="#EDEDED"/>
</g>
<path d="M1268.25 527.41L1268.22 527.45L1268.17 527.422C1266.35 526.323 1264 526.585 1262.48 528.259L1262.47 528.26C1260.6 530.225 1260.6 533.449 1262.48 535.441L1262.48 535.441C1264.33 537.43 1267.36 537.43 1269.23 535.441C1270.79 533.791 1271.04 531.3 1270 529.36L1269.97 529.317L1270.01 529.282L1322.6 473.484L1322.62 473.463H1322.65L1476.49 473.463H1476.54L1476.56 473.513C1477.1 475.637 1478.95 477.232 1481.15 477.232C1483.78 477.232 1485.93 474.957 1485.93 472.15C1485.93 469.343 1483.78 467.067 1481.15 467.067C1478.95 467.067 1477.13 468.636 1476.56 470.787L1476.54 470.837H1476.49L1321.58 470.837L1268.25 527.41Z" stroke="#F9F9F9" stroke-width="0.13493"/>
<g filter="url(#filter4_ii_4206_1950)">
<path d="M997.84 516C995.17 516 993 513.706 993 510.886C993 508.065 995.17 505.772 997.84 505.772C1000.06 505.772 1001.93 507.353 1002.48 509.515L1250.73 509.515L1279.97 478.619C1278.92 476.668 1279.17 474.163 1280.74 472.503C1282.64 470.499 1285.71 470.499 1287.58 472.503C1289.47 474.506 1289.47 477.749 1287.58 479.726C1286.01 481.387 1283.64 481.65 1281.79 480.543L1251.8 512.23L1002.48 512.23C1001.91 514.418 1000.06 516 997.84 516Z" fill="#EDEDED"/>
</g>
<path d="M1002.48 509.582H1002.43L1002.41 509.532C1001.87 507.397 1000.03 505.839 997.84 505.839C995.211 505.839 993.067 508.099 993.067 510.886C993.067 513.673 995.211 515.933 997.84 515.933C1000.03 515.933 1001.85 514.375 1002.41 512.213L1002.43 512.163H1002.48L1251.77 512.163L1281.74 480.497L1281.78 480.457L1281.82 480.485C1283.64 481.576 1285.98 481.317 1287.53 479.679L1287.53 479.679C1289.4 477.728 1289.4 474.527 1287.53 472.549L1287.53 472.549C1285.68 470.574 1282.66 470.573 1280.79 472.549C1279.24 474.188 1278.99 476.66 1280.03 478.587L1280.05 478.63L1280.02 478.665L1250.78 509.561L1250.76 509.582H1250.73L1002.48 509.582Z" stroke="#F9F9F9" stroke-width="0.13493"/>
<g filter="url(#filter5_ii_4206_1950)">
<path d="M470.84 554C468.171 554 466 551.692 466 548.853C466 546.014 468.171 543.706 470.84 543.706C473.061 543.706 474.932 545.324 475.481 547.473L731.31 547.473L786.298 489L907.427 489L950.813 535.137H1021.52C1022.09 532.961 1023.94 531.369 1026.16 531.369C1028.83 531.369 1031 533.678 1031 536.516C1031 539.355 1028.83 541.663 1026.16 541.663C1023.94 541.663 1022.07 540.045 1021.52 537.896H949.765L906.379 491.759L787.371 491.759L732.383 550.233L475.481 550.233C474.907 552.382 473.061 554 470.84 554Z" fill="#EDEDED"/>
</g>
<path d="M475.481 547.541H475.428L475.415 547.49C474.873 545.368 473.026 543.774 470.84 543.774C468.212 543.774 466.067 546.048 466.067 548.853C466.067 551.659 468.212 553.933 470.84 553.933C473.026 553.933 474.849 552.339 475.416 550.215L475.429 550.165H475.481L732.354 550.165L787.322 491.713L787.342 491.692H787.371L906.379 491.692H906.408L906.428 491.713L949.795 537.828H1021.52H1021.57L1021.58 537.879C1022.13 540.002 1023.97 541.596 1026.16 541.596C1028.79 541.596 1030.93 539.322 1030.93 536.516C1030.93 533.711 1028.79 531.437 1026.16 531.437C1023.97 531.437 1022.15 533.004 1021.58 535.154L1021.57 535.204H1021.52H950.813H950.784L950.764 535.183L907.397 489.067L786.327 489.067L731.359 547.52L731.339 547.541H731.31L475.481 547.541Z" stroke="#F9F9F9" stroke-width="0.13493"/>
<g filter="url(#filter6_ii_4206_1950)">
<path d="M108.844 489C111.066 489 112.938 490.605 113.487 492.798L321.614 492.798L391.297 567.42L512.513 567.42C513.087 565.227 514.934 563.622 517.156 563.622C519.828 563.622 522 565.949 522 568.811C522 571.673 519.828 574 517.156 574C514.934 574 513.062 572.368 512.513 570.202L390.223 570.202L320.54 495.58L113.487 495.58C112.913 497.773 111.066 499.378 108.844 499.378C106.172 499.378 104 497.051 104 494.189C104 491.327 106.147 489 108.844 489Z" fill="#EDEDED"/>
</g>
<path d="M113.487 492.865H113.435L113.422 492.814C112.879 490.648 111.031 489.067 108.844 489.067C106.189 489.067 104.067 491.36 104.067 494.189C104.067 497.018 106.214 499.31 108.844 499.31C111.031 499.31 112.855 497.73 113.422 495.562L113.435 495.512H113.487L320.54 495.512H320.569L320.589 495.534L390.253 570.135L512.513 570.135H512.565L512.578 570.185C513.121 572.326 514.969 573.933 517.156 573.933C519.786 573.933 521.933 571.64 521.933 568.811C521.933 565.982 519.786 563.69 517.156 563.69C514.969 563.69 513.145 565.27 512.578 567.437L512.565 567.488H512.513L391.297 567.488H391.268L391.248 567.466L321.584 492.865L113.487 492.865Z" stroke="#F9F9F9" stroke-width="0.13493"/>
<g filter="url(#filter7_ii_4206_1950)">
<path d="M1477.15 447C1474.92 447 1473.05 445.391 1472.5 443.254L1303.5 443.254L1222.6 357.923L1040.57 357.923L985.227 299.549C983.377 300.657 981.001 300.393 979.425 298.731C977.525 296.726 977.525 293.482 979.425 291.504C981.326 289.499 984.402 289.499 986.277 291.504C987.853 293.165 988.103 295.671 987.053 297.623L1041.64 355.206L1223.65 355.206L1304.55 440.537L1472.5 440.537C1473.07 438.375 1474.92 436.792 1477.15 436.792C1479.82 436.792 1482 439.087 1482 441.909C1482 444.705 1479.82 447 1477.15 447Z" fill="#EDEDED"/>
</g>
<path d="M1472.5 443.187H1472.55L1472.56 443.238C1473.11 445.347 1474.96 446.933 1477.15 446.933C1479.78 446.933 1481.93 444.671 1481.93 441.909C1481.93 439.121 1479.78 436.859 1477.15 436.859C1474.96 436.859 1473.13 438.418 1472.56 440.555L1472.55 440.605H1472.5L1304.55 440.605H1304.52L1304.5 440.584L1223.62 355.273L1041.64 355.273H1041.61L1041.6 355.252L987.004 297.67L986.97 297.634L986.993 297.591C988.031 295.663 987.783 293.189 986.228 291.55L986.228 291.55C984.379 289.574 981.348 289.573 979.474 291.55L979.474 291.55C977.599 293.502 977.598 296.706 979.474 298.685C981.028 300.323 983.369 300.583 985.192 299.491L985.239 299.463L985.276 299.502L1040.6 357.855L1222.6 357.855H1222.63L1222.65 357.876L1303.53 443.187L1472.5 443.187Z" stroke="#F9F9F9" stroke-width="0.13493"/>
<g filter="url(#filter8_ii_4206_1950)">
<path d="M785.301 458.791L744.887 501.66L435.81 501.66L395.87 544L334.724 479.139L117.492 479.139C116.917 481.312 115.069 482.902 112.846 482.902C110.173 482.902 108 480.596 108 477.761C108 474.926 110.173 472.621 112.846 472.621C115.069 472.621 116.942 474.211 117.492 476.384L335.799 476.384L395.87 540.105L434.736 498.878L743.838 498.878L784.252 456.009L972.136 456.009L1042.85 381L1215.62 381L1259.78 427.897C1261.63 426.784 1264 427.049 1265.58 428.718C1267.47 430.732 1267.47 433.991 1265.58 435.978C1263.68 437.992 1260.61 437.992 1258.73 435.978C1257.16 434.309 1256.91 431.792 1257.96 429.831L1214.55 383.782L1043.9 383.782L973.185 458.791L785.301 458.791Z" fill="#EDEDED"/>
</g>
<path d="M785.252 458.744L785.272 458.723H785.301L973.156 458.723L1043.85 383.736L1043.87 383.715H1043.9L1214.55 383.715H1214.58L1214.6 383.736L1258.01 429.785L1258.04 429.82L1258.02 429.863C1256.98 431.799 1257.23 434.285 1258.78 435.932L1258.78 435.932C1260.63 437.917 1263.66 437.917 1265.53 435.932L1265.53 435.931C1267.4 433.971 1267.4 430.752 1265.53 428.765C1263.98 427.119 1261.64 426.858 1259.82 427.955L1259.77 427.983L1259.73 427.943L1215.59 381.067L1042.88 381.067L972.185 456.055L972.165 456.076H972.136L784.281 456.076L743.887 498.925L743.867 498.946H743.838L434.765 498.946L395.919 540.151L395.87 540.204L395.821 540.151L335.769 476.451L117.492 476.451H117.439L117.426 476.4C116.883 474.255 115.035 472.689 112.846 472.689C110.214 472.689 108.068 474.96 108.068 477.761C108.068 480.563 110.214 482.834 112.846 482.834C115.034 482.834 116.859 481.269 117.426 479.122L117.44 479.072H117.492L334.724 479.072H334.754L334.774 479.093L395.87 543.902L435.761 501.614L435.781 501.593H435.81L744.858 501.593L785.252 458.744Z" stroke="#F9F9F9" stroke-width="0.13493"/>
<g filter="url(#filter9_ii_4206_1950)">
<path d="M1026.29 472.505C1024.38 474.498 1021.3 474.498 1019.43 472.505C1017.52 470.511 1017.52 467.285 1019.43 465.318C1021 463.666 1023.38 463.403 1025.23 464.505L1046.71 442L1210.79 442L1231.77 463.98C1233.62 462.879 1236 463.141 1237.57 464.793C1239.48 466.787 1239.48 470.013 1237.57 471.98C1235.67 473.974 1232.59 473.974 1230.71 471.98C1229.14 470.328 1228.89 467.836 1229.94 465.895L1209.71 444.702L1047.79 444.702L1027.06 466.42C1028.09 468.361 1027.86 470.852 1026.29 472.505Z" fill="#EDEDED"/>
</g>
<path d="M1019.48 472.458L1019.48 472.459C1021.33 474.424 1024.36 474.424 1026.24 472.458C1027.79 470.829 1028.02 468.369 1027 466.451L1026.98 466.408L1027.01 466.373L1047.74 444.655L1047.76 444.634H1047.79L1209.71 444.634H1209.74L1209.76 444.655L1229.99 465.848L1230.02 465.884L1230 465.927C1228.96 467.844 1229.21 470.304 1230.76 471.934L1230.76 471.934C1232.61 473.899 1235.65 473.9 1237.52 471.934L1237.52 471.933C1239.4 469.993 1239.4 466.808 1237.52 464.84C1235.97 463.211 1233.63 462.952 1231.8 464.038L1231.75 464.066L1231.72 464.027L1210.76 442.067L1046.74 442.067L1025.28 464.551L1025.25 464.59L1025.2 464.563C1023.37 463.477 1021.03 463.735 1019.48 465.365L1019.48 465.365C1017.6 467.306 1017.6 470.491 1019.48 472.458Z" stroke="#F9F9F9" stroke-width="0.13493"/>
<g filter="url(#filter10_ii_4206_1950)">
<path d="M872.632 156.246L947.359 77L1192.76 77L1219.03 104.828L1475.51 104.828C1476.09 102.656 1477.93 101.068 1480.16 101.068C1482.83 101.068 1485 103.371 1485 106.204C1485 109.037 1482.83 111.341 1480.16 111.341C1477.93 111.341 1476.06 109.726 1475.51 107.581L1217.93 107.581L1191.69 79.7536L948.407 79.7536L873.681 159L545.489 159L487.216 97.2021C485.368 98.3142 482.996 98.0494 481.423 96.3813C479.526 94.3691 479.526 91.1124 481.423 89.1266C483.321 87.1143 486.392 87.1143 488.264 89.1266C489.837 90.7946 490.087 93.31 489.038 95.2693L546.562 156.273L872.632 156.273V156.246Z" fill="#EDEDED"/>
</g>
<path d="M1219.03 104.895H1219L1218.98 104.874L1192.73 77.0675L947.388 77.0675L872.7 156.273V156.34H872.632L546.562 156.34H546.533L546.513 156.319L488.989 95.3156L488.956 95.2803L488.979 95.2375C490.014 93.3023 489.767 90.8187 488.215 89.1729L488.215 89.1725C486.369 87.1891 483.343 87.1886 481.472 89.1729L481.472 89.1732C479.599 91.1327 479.599 94.3486 481.472 96.335C483.023 97.9797 485.36 98.2403 487.181 97.1443L487.227 97.1163L487.265 97.1558L545.518 158.933L873.652 158.933L948.358 79.7074L948.378 79.6862H948.407L1191.69 79.6862H1191.72L1191.74 79.7074L1217.96 107.514L1475.51 107.514H1475.56L1475.58 107.564C1476.12 109.683 1477.97 111.274 1480.16 111.274C1482.79 111.274 1484.93 109.004 1484.93 106.204C1484.93 103.405 1482.79 101.135 1480.16 101.135C1477.97 101.135 1476.15 102.7 1475.58 104.845L1475.56 104.895H1475.51L1219.03 104.895Z" stroke="#F9F9F9" stroke-width="0.13493"/>
<g filter="url(#filter11_ii_4206_1950)">
<path d="M1247.74 163.191C1249.63 161.15 1252.7 161.15 1254.58 163.191C1256.47 165.232 1256.47 168.536 1254.58 170.55C1253 172.242 1250.63 172.51 1248.78 171.382L1232.4 189L974.618 189L933.343 144.607H916.488C915.914 146.809 914.066 148.42 911.844 148.42C909.172 148.42 907 146.084 907 143.21C907 140.336 909.172 138 911.844 138C914.066 138 915.939 139.611 916.488 141.814H934.417L975.691 186.207L1231.33 186.207L1246.96 169.395C1245.91 167.434 1246.16 164.883 1247.74 163.191Z" fill="#EDEDED"/>
</g>
<path d="M1254.53 163.237L1254.53 163.237C1252.68 161.225 1249.66 161.225 1247.78 163.237C1246.23 164.907 1245.98 167.427 1247.02 169.363L1247.04 169.406L1247.01 169.441L1231.38 186.253L1231.36 186.274H1231.33L975.691 186.274H975.662L975.642 186.253L934.387 141.881H916.488H916.436L916.423 141.83C915.88 139.654 914.032 138.067 911.844 138.067C909.214 138.067 907.067 140.369 907.067 143.21C907.067 146.051 909.214 148.353 911.844 148.353C914.031 148.353 915.855 146.766 916.423 144.59L916.436 144.539H916.488H933.343H933.372L933.392 144.561L974.647 188.933L1232.37 188.933L1248.73 171.336L1248.77 171.296L1248.82 171.325C1250.64 172.436 1252.98 172.172 1254.53 170.504L1254.53 170.504C1256.4 168.515 1256.4 165.252 1254.53 163.237Z" stroke="#F9F9F9" stroke-width="0.13493"/>
<g filter="url(#filter12_ii_4206_1950)">
<path d="M1220.17 150.196L1238.38 130.567L1414.5 130.567C1415.07 128.356 1416.92 126.738 1419.15 126.738C1421.82 126.738 1424 129.084 1424 131.969C1424 134.854 1421.82 137.2 1419.15 137.2C1416.92 137.2 1415.05 135.555 1414.5 133.371L1239.45 133.371L1221.25 153L1001.71 153L979.228 128.761C977.377 129.893 975.001 129.623 973.426 127.925C971.525 125.875 971.525 122.559 973.426 120.537C975.326 118.488 978.402 118.488 980.278 120.537C981.854 122.236 982.104 124.797 981.053 126.792L1002.76 150.196L1220.17 150.196Z" fill="#EDEDED"/>
</g>
<path d="M1220.22 150.242L1220.2 150.263H1220.17L1002.76 150.263H1002.73L1002.71 150.242L981.004 126.838L980.971 126.803L980.994 126.761C982.032 124.789 981.784 122.259 980.229 120.583L980.228 120.582C978.38 118.563 975.349 118.562 973.475 120.583L973.475 120.583C971.599 122.579 971.598 125.855 973.475 127.879C975.029 129.554 977.369 129.819 979.193 128.703L979.24 128.674L979.277 128.715L1001.74 152.933L1221.22 152.933L1239.4 133.325L1239.42 133.304H1239.45L1414.5 133.304H1414.55L1414.56 133.355C1415.11 135.513 1416.96 137.132 1419.15 137.132C1421.78 137.132 1423.93 134.822 1423.93 131.969C1423.93 129.116 1421.78 126.806 1419.15 126.806C1416.96 126.806 1415.13 128.398 1414.56 130.584L1414.55 130.634H1414.5L1238.41 130.634L1220.22 150.242Z" stroke="#F9F9F9" stroke-width="0.13493"/>
<g filter="url(#filter13_ii_4206_1950)">
<path d="M1303.72 172.506C1305.62 170.498 1308.7 170.498 1310.57 172.506C1312.48 174.514 1312.48 177.764 1310.57 179.745C1309 181.41 1306.62 181.674 1304.77 180.565L1239 250L944.211 250L890.232 193.009C888.38 194.119 886.003 193.855 884.426 192.19C882.525 190.182 882.525 186.932 884.426 184.95C886.328 182.942 889.406 182.942 891.283 184.95C892.86 186.615 893.11 189.125 892.059 191.08L945.287 247.279L1237.95 247.279L1302.94 178.662C1301.92 176.707 1302.14 174.171 1303.72 172.506Z" fill="#EDEDED"/>
</g>
<path d="M1310.52 172.552L1310.52 172.552C1308.67 170.573 1305.64 170.572 1303.77 172.552C1302.21 174.194 1301.99 176.699 1303 178.631L1303.02 178.674L1302.99 178.709L1238 247.325L1237.98 247.346H1237.95L945.287 247.346H945.258L945.238 247.325L892.01 191.127L891.976 191.091L892 191.048C893.038 189.117 892.79 186.639 891.234 184.997L891.234 184.997C889.384 183.017 886.351 183.017 884.475 184.997L884.475 184.997C882.598 186.953 882.598 190.161 884.475 192.144C886.03 193.785 888.372 194.045 890.197 192.951L890.244 192.923L890.281 192.963L944.24 249.933L1238.97 249.933L1304.72 180.518L1304.76 180.479L1304.8 180.507C1306.63 181.6 1308.97 181.34 1310.52 179.699L1310.52 179.699C1312.4 177.743 1312.4 174.535 1310.52 172.552Z" stroke="#F9F9F9" stroke-width="0.13493"/>
<g filter="url(#filter14_ii_4206_1950)">
<path d="M331.821 83C334.045 83 335.918 84.5839 336.468 86.7486L440.011 86.7486L521.447 172.807L905.595 172.807L953.332 223.255L1228.04 223.255L1288.64 159.212L1461.51 159.212C1462.08 157.047 1463.93 155.464 1466.15 155.464C1468.83 155.464 1471 157.76 1471 160.585C1471 163.409 1468.83 165.706 1466.15 165.706C1463.93 165.706 1462.06 164.096 1461.51 161.958L1289.72 161.958L1229.12 226L952.258 226L904.521 175.553L520.398 175.553L438.962 89.494L336.493 89.494C335.918 91.6587 334.07 93.2426 331.846 93.2426C329.174 93.2426 327 90.9459 327 88.1213C326.975 85.2967 329.149 83 331.821 83Z" fill="#EDEDED"/>
</g>
<path d="M336.468 86.816H336.415L336.402 86.7652C335.86 84.6277 334.011 83.0675 331.821 83.0675C329.189 83.0675 327.043 85.3303 327.068 88.1207C327.068 90.9122 329.214 93.1751 331.846 93.1751C334.036 93.1751 335.86 91.6153 336.428 89.4767L336.441 89.4265H336.493L438.962 89.4265H438.991L439.011 89.4476L520.427 175.485L904.521 175.485H904.55L904.57 175.506L952.287 225.933L1229.09 225.933L1289.67 161.911L1289.69 161.89H1289.72L1461.51 161.89H1461.56L1461.57 161.941C1462.12 164.052 1463.96 165.639 1466.15 165.639C1468.79 165.639 1470.93 163.376 1470.93 160.585C1470.93 157.794 1468.79 155.531 1466.15 155.531C1463.96 155.531 1462.14 157.091 1461.57 159.229L1461.56 159.28H1461.51L1288.67 159.28L1228.09 223.301L1228.07 223.322H1228.04L953.332 223.322H953.303L953.283 223.301L905.566 172.875L521.447 172.875H521.418L521.398 172.854L439.982 86.816L336.468 86.816Z" stroke="#F9F9F9" stroke-width="0.13493"/>
<g filter="url(#filter15_ii_4206_1950)">
<path d="M1015.73 363.001C1017.63 360.982 1020.7 360.982 1022.58 363.001C1024.47 365.02 1024.47 368.288 1022.58 370.281C1021 371.954 1018.63 372.22 1016.78 371.104L967.062 424L728.172 424L640.318 330.536L459.49 330.536C458.915 332.714 457.067 334.308 454.845 334.308C452.173 334.308 450 331.997 450 329.154C450 326.311 452.173 324 454.845 324C457.067 324 458.94 325.621 459.49 327.773L641.392 327.773L729.246 421.237L966.013 421.237L1014.96 369.165C1013.91 367.199 1014.16 364.675 1015.73 363.001Z" fill="#EDEDED"/>
</g>
<path d="M1022.53 363.047L1022.53 363.047C1020.68 361.057 1017.65 361.056 1015.78 363.047C1014.23 364.699 1013.98 367.191 1015.02 369.133L1015.04 369.176L1015.01 369.211L966.062 421.283L966.042 421.304H966.013L729.246 421.304H729.217L729.197 421.283L641.362 327.84L459.49 327.84H459.437L459.424 327.789C458.882 325.664 457.033 324.067 454.845 324.067C452.214 324.067 450.067 326.345 450.067 329.154C450.067 331.964 452.214 334.241 454.845 334.241C457.033 334.241 458.857 332.671 459.424 330.518L459.438 330.468H459.49L640.318 330.468H640.347L640.367 330.489L728.201 423.933L967.033 423.933L1016.73 371.058L1016.77 371.018L1016.82 371.046C1018.64 372.146 1020.98 371.885 1022.53 370.234L1022.53 370.234C1024.4 368.268 1024.4 365.041 1022.53 363.047Z" stroke="#F9F9F9" stroke-width="0.13493"/>
<g filter="url(#filter16_ii_4206_1950)">
<path d="M1226.5 269.794C1227.07 267.603 1228.92 266 1231.15 266C1233.82 266 1236 268.325 1236 271.184C1236 274.042 1233.82 276.367 1231.15 276.367C1228.92 276.367 1227.05 274.737 1226.5 272.573L1022.23 272.573L1064.11 317.328C1065.96 316.205 1068.34 316.473 1069.91 318.156C1071.81 320.187 1071.81 323.473 1069.91 325.477C1068.01 327.508 1064.94 327.508 1063.06 325.477C1061.49 323.794 1061.24 321.255 1062.29 319.278L1016 269.821L1226.5 269.821V269.794Z" fill="#EDEDED"/>
</g>
<path d="M1226.5 272.505H1226.55L1226.56 272.556C1227.11 274.694 1228.96 276.3 1231.15 276.3C1233.78 276.3 1235.93 274.01 1235.93 271.184C1235.93 268.358 1233.78 266.067 1231.15 266.067C1228.96 266.067 1227.14 267.642 1226.57 269.803V269.821V269.888H1226.5L1016.16 269.888L1062.33 319.232L1062.37 319.267L1062.35 319.31C1061.31 321.263 1061.56 323.77 1063.11 325.431L1063.11 325.431C1064.96 327.433 1067.99 327.433 1069.86 325.431L1069.86 325.431C1071.74 323.453 1071.74 320.207 1069.86 318.202C1068.31 316.542 1065.97 316.279 1064.15 317.385L1064.1 317.414L1064.06 317.374L1022.18 272.619L1022.07 272.505H1022.23L1226.5 272.505Z" stroke="#F9F9F9" stroke-width="0.13493"/>
<g filter="url(#filter17_ii_4206_1950)">
<path d="M917.915 276.733L989.781 353.004L950.211 395L736.863 395L652.224 305.172C650.374 306.286 648 306.021 646.425 304.349C644.525 302.333 644.525 299.07 646.425 297.08C648.325 295.064 651.399 295.064 653.274 297.08C654.849 298.752 655.099 301.272 654.049 303.235L737.913 392.267L949.136 392.267L986.131 353.004L911.691 274L991.906 274L1028.78 313.131C1030.63 312.016 1033 312.282 1034.58 313.953C1036.47 315.969 1036.47 319.232 1034.58 321.222C1032.68 323.238 1029.6 323.238 1027.73 321.222C1026.15 319.551 1025.9 317.03 1026.95 315.067L990.831 276.733L917.915 276.733Z" fill="#EDEDED"/>
</g>
<path d="M917.866 276.779L917.759 276.665H917.915L990.831 276.665H990.86L990.88 276.686L1027 315.021L1027.03 315.056L1027.01 315.099C1025.97 317.038 1026.22 319.527 1027.78 321.176L1027.78 321.176C1029.62 323.164 1032.65 323.164 1034.53 321.176L1034.53 321.176C1036.4 319.212 1036.4 315.99 1034.53 313.999C1032.97 312.351 1030.63 312.09 1028.81 313.188L1028.76 313.217L1028.73 313.177L991.877 274.067L911.847 274.067L986.181 352.958L986.224 353.004L986.181 353.05L949.185 392.314L949.165 392.335H949.136L737.913 392.335H737.884L737.864 392.314L654 303.282L653.966 303.246L653.989 303.203C655.026 301.264 654.779 298.776 653.225 297.127L653.225 297.126C651.377 295.139 648.347 295.139 646.474 297.127L646.474 297.127C644.599 299.091 644.598 302.313 646.474 304.303C648.027 305.951 650.366 306.212 652.189 305.114L652.236 305.086L652.273 305.126L736.892 394.933L950.182 394.933L989.688 353.004L917.866 276.779Z" stroke="#F9F9F9" stroke-width="0.13493"/>
<g filter="url(#filter18_ii_4206_1950)">
<path d="M1092.5 306.262C1091.92 308.421 1090.07 310 1087.85 310C1085.17 310 1083 307.71 1083 304.894C1083 302.077 1085.17 299.787 1087.85 299.787C1090.07 299.787 1091.92 301.366 1092.5 303.525L1228.03 303.525L1326.59 199.738L1446.5 199.738C1447.08 197.579 1448.93 196 1451.15 196C1453.83 196 1456 198.29 1456 201.106C1456 203.923 1453.83 206.213 1451.15 206.213C1448.93 206.213 1447.05 204.607 1446.5 202.475L1327.67 202.475L1229.11 306.262L1092.5 306.262Z" fill="#EDEDED"/>
</g>
<path d="M1092.43 306.245L1092.45 306.195H1092.5L1229.08 306.195L1327.62 202.429L1327.64 202.408H1327.67L1446.5 202.408H1446.55L1446.57 202.458C1447.11 204.564 1448.96 206.145 1451.15 206.145C1453.78 206.145 1455.93 203.889 1455.93 201.106C1455.93 198.324 1453.78 196.067 1451.15 196.067C1448.96 196.067 1447.13 197.623 1446.57 199.755L1446.55 199.805H1446.5L1326.62 199.805L1228.08 303.571L1228.06 303.592H1228.03L1092.5 303.592H1092.45L1092.43 303.542C1091.87 301.41 1090.04 299.855 1087.85 299.855C1085.22 299.855 1083.07 302.111 1083.07 304.894C1083.07 307.676 1085.22 309.933 1087.85 309.933C1090.04 309.933 1091.87 308.377 1092.43 306.245Z" stroke="#F9F9F9" stroke-width="0.13493"/>
<g filter="url(#filter19_ii_4206_1950)">
<path d="M1471.53 406.512C1472.11 404.35 1473.95 402.767 1476.17 402.767C1478.83 402.767 1481 405.062 1481 407.884C1481 410.706 1478.83 413 1476.17 413C1473.95 413 1472.08 411.391 1471.53 409.255L1297.61 409.255L1241.2 349.547C1239.36 350.655 1236.99 350.391 1235.42 348.729C1233.53 346.725 1233.53 343.481 1235.42 341.503C1237.31 339.499 1240.38 339.499 1242.25 341.503C1243.82 343.165 1244.07 345.67 1243.02 347.622L1298.65 406.512L1471.53 406.512Z" fill="#EDEDED"/>
</g>
<path d="M1471.6 406.53L1471.58 406.58H1471.53L1298.65 406.58H1298.62L1298.6 406.559L1242.97 347.668L1242.94 347.633L1242.96 347.59C1243.99 345.662 1243.75 343.189 1242.2 341.55L1242.2 341.549C1240.36 339.574 1237.34 339.573 1235.47 341.55L1235.47 341.55C1233.6 343.502 1233.6 346.705 1235.47 348.683C1237.02 350.321 1239.35 350.581 1241.17 349.489L1241.21 349.461L1241.25 349.501L1297.64 409.188L1471.53 409.188H1471.58L1471.6 409.238C1472.14 411.348 1473.98 412.933 1476.17 412.933C1478.79 412.933 1480.93 410.672 1480.93 407.884C1480.93 405.095 1478.79 402.835 1476.17 402.835C1473.98 402.835 1472.16 404.393 1471.6 406.53Z" stroke="#F9F9F9" stroke-width="0.13493"/>
<g filter="url(#filter20_ii_4206_1950)">
<path d="M867.523 205.339L899.788 239.45C901.635 238.342 904.006 238.606 905.578 240.268C907.474 242.273 907.474 245.518 905.578 247.496C903.681 249.501 900.612 249.501 898.74 247.496C897.168 245.834 896.919 243.328 897.967 241.376L866.45 208.056L497.852 208.056L465.212 173.55C463.365 174.658 460.994 174.394 459.422 172.732C457.526 170.727 457.526 167.482 459.422 165.504C461.319 163.499 464.388 163.499 466.26 165.504C467.832 167.166 468.081 169.672 467.033 171.624L498.925 205.339L867.523 205.339Z" fill="#EDEDED"/>
</g>
<path d="M899.823 239.508L899.777 239.536L899.739 239.496L867.493 205.407L498.925 205.407H498.896L498.876 205.386L466.984 171.671L466.951 171.635L466.974 171.592C468.009 169.664 467.762 167.19 466.211 165.55L466.21 165.55C464.366 163.574 461.341 163.573 459.471 165.55L459.471 165.55C457.6 167.503 457.599 170.707 459.471 172.686C461.021 174.324 463.357 174.584 465.177 173.492L465.224 173.464L465.261 173.504L497.881 207.989L866.45 207.989H866.479L866.499 208.01L898.016 241.329L898.049 241.365L898.026 241.408C896.991 243.336 897.238 245.81 898.789 247.45L898.79 247.45C900.634 249.426 903.659 249.427 905.529 247.45L905.529 247.45C907.4 245.497 907.401 242.293 905.529 240.314C903.979 238.676 901.643 238.416 899.823 239.508Z" stroke="#F9F9F9" stroke-width="0.13493"/>
<g filter="url(#filter21_ii_4206_1950)">
<path d="M522.847 269.118C520.174 269.118 518 266.832 518 264.021C518 261.209 520.174 258.923 522.847 258.923C525.071 258.923 526.944 260.526 527.494 262.654L690.919 262.654L735.242 309.267L918.754 309.267L864.787 252.512C862.938 253.615 860.565 253.353 858.991 251.697C857.092 249.7 857.092 246.468 858.991 244.498C860.889 242.501 863.962 242.501 865.836 244.498C867.41 246.153 867.66 248.649 866.611 250.594L925 312L734.192 312L689.869 265.387L527.519 265.387C526.945 267.515 525.071 269.118 522.847 269.118Z" fill="#EDEDED"/>
</g>
<path d="M527.494 262.722H527.442L527.429 262.671C526.886 260.57 525.037 258.991 522.847 258.991C520.214 258.991 518.068 261.243 518.068 264.021C518.068 266.798 520.214 269.051 522.847 269.051C525.037 269.051 526.886 267.472 527.454 265.369L527.467 265.319H527.519L689.869 265.319H689.898L689.918 265.34L734.221 311.933L924.843 311.933L866.562 250.64L866.528 250.605L866.551 250.562C867.588 248.642 867.34 246.177 865.787 244.544L865.787 244.544C863.94 242.576 860.912 242.575 859.039 244.544L859.039 244.545C857.166 246.489 857.165 249.68 859.039 251.651C860.591 253.283 862.93 253.542 864.752 252.454L864.799 252.426L864.836 252.465L918.803 309.221L918.911 309.335H918.754L735.242 309.335H735.213L735.193 309.314L690.89 262.722L527.494 262.722Z" stroke="#F9F9F9" stroke-width="0.13493"/>
<g filter="url(#filter22_ii_4206_1950)">
<path d="M930.392 360.268L942.983 346.874C941.936 344.911 942.185 342.392 943.756 340.721C945.651 338.705 948.718 338.705 950.588 340.721C952.458 342.736 952.483 345.999 950.588 347.988C949.017 349.659 946.649 349.924 944.804 348.81L931.464 363L741.345 363L690.206 308.601C688.361 309.715 685.992 309.45 684.421 307.779C682.526 305.763 682.526 302.501 684.421 300.512C686.316 298.496 689.383 298.496 691.253 300.512C692.824 302.183 693.073 304.702 692.026 306.665L742.417 360.268L930.392 360.268Z" fill="#EDEDED"/>
</g>
<path d="M930.441 360.314L930.421 360.336H930.392L742.417 360.336H742.388L742.368 360.314L691.977 306.711L691.944 306.676L691.967 306.633C693.001 304.695 692.754 302.207 691.204 300.558L691.204 300.558C689.361 298.571 686.339 298.57 684.47 300.558L684.47 300.558C682.6 302.521 682.6 305.743 684.47 307.733C686.019 309.38 688.353 309.641 690.171 308.544L690.218 308.515L690.255 308.555L741.374 362.933L931.435 362.933L944.754 348.764L944.792 348.724L944.838 348.752C946.657 349.85 948.99 349.589 950.539 347.942L950.539 347.941C952.409 345.979 952.385 342.757 950.539 340.767C948.696 338.78 945.674 338.779 943.805 340.767C942.256 342.416 942.009 344.904 943.043 346.842L943.066 346.885L943.033 346.92L930.441 360.314Z" stroke="#F9F9F9" stroke-width="0.13493"/>
<g filter="url(#filter23_ii_4206_1950)">
<path d="M360.633 127.487L290.498 127.487C289.923 129.649 288.073 131.231 285.849 131.231C283.175 131.231 281 128.937 281 126.115C281 123.294 283.175 121 285.849 121C288.073 121 289.923 122.608 290.498 124.744L361.683 124.744L469.509 238.497L714.756 238.497L751.524 277.284L854.776 277.284L820.484 241.107C818.634 242.214 816.26 241.951 814.685 240.29C812.785 238.286 812.785 235.042 814.685 233.065C816.585 231.061 819.659 231.061 821.533 233.065C823.108 234.726 823.358 237.231 822.308 239.182L861 280L750.474 280L713.707 241.212L468.46 241.212L360.633 127.487Z" fill="#EDEDED"/>
</g>
<path d="M360.633 127.419H360.662L360.682 127.44L468.489 241.145L713.707 241.145H713.736L713.756 241.166L750.503 279.933L860.843 279.933L822.259 239.228L822.226 239.193L822.249 239.15C823.286 237.223 823.038 234.75 821.485 233.111L821.484 233.111C819.636 231.135 816.607 231.135 814.734 233.111L814.734 233.111C812.859 235.063 812.859 238.265 814.734 240.243C816.286 241.881 818.626 242.141 820.449 241.049L820.496 241.021L820.533 241.061L854.825 277.238L854.933 277.352H854.776L751.524 277.352H751.495L751.475 277.33L714.727 238.564L469.509 238.564H469.48L469.46 238.543L361.654 124.812L290.498 124.812H290.446L290.433 124.762C289.865 122.652 288.039 121.067 285.849 121.067C283.215 121.067 281.067 123.328 281.067 126.115C281.067 128.903 283.215 131.163 285.849 131.163C288.039 131.163 289.865 129.605 290.433 127.469L290.446 127.419H290.498L360.633 127.419Z" stroke="#F9F9F9" stroke-width="0.13493"/>
<g filter="url(#filter24_ii_4206_1950)">
<path d="M187.798 452.342C190.022 452.342 191.896 453.947 192.446 456.14L338.088 456.14L369.925 490.218H418.881L440.097 467.508L735.704 467.508L756.921 444.798L799.504 444.798C800.079 442.605 801.928 441 804.152 441C806.826 441 809 443.327 809 446.189C809 449.051 806.826 451.379 804.152 451.379C801.928 451.379 800.054 449.747 799.504 447.58L757.995 447.58L736.779 470.29L441.197 470.29L419.98 493H368.901L337.063 458.922L192.496 458.922C191.921 461.115 190.072 462.72 187.848 462.72C185.174 462.72 183 460.393 183 457.531C183 454.669 185.124 452.342 187.798 452.342Z" fill="#EDEDED"/>
</g>
<path d="M192.446 456.207H192.394L192.381 456.156C191.838 453.99 189.988 452.409 187.798 452.409C185.167 452.409 183.067 454.701 183.067 457.531C183.067 460.36 185.216 462.653 187.848 462.653C190.037 462.653 191.863 461.073 192.431 458.905L192.444 458.854H192.496L337.063 458.854H337.093L337.113 458.876L368.93 492.933H419.951L441.148 470.244L441.168 470.223H441.197L736.75 470.223L757.946 447.534L757.966 447.513H757.995L799.504 447.513H799.556L799.569 447.564C800.112 449.704 801.962 451.311 804.152 451.311C806.784 451.311 808.933 449.019 808.933 446.189C808.933 443.36 806.784 441.067 804.152 441.067C801.963 441.067 800.137 442.648 799.569 444.815L799.556 444.866H799.504L756.95 444.866L735.754 467.554L735.734 467.576H735.704L440.127 467.576L418.93 490.264L418.91 490.286H418.881H369.925H369.896L369.876 490.264L338.059 456.207L192.446 456.207Z" stroke="#F9F9F9" stroke-width="0.13493"/>
<g filter="url(#filter25_ii_4206_1950)">
<path d="M1304.27 278.502C1302.37 280.499 1299.3 280.499 1297.42 278.502C1295.53 276.505 1295.53 273.273 1297.42 271.302C1299 269.646 1301.37 269.383 1303.22 270.487L1343.83 227.732L1448.51 227.732C1449.08 225.577 1450.93 224 1453.15 224C1455.83 224 1458 226.286 1458 229.098C1458 231.91 1455.83 234.196 1453.15 234.196C1450.93 234.196 1449.06 232.593 1448.51 230.465L1344.9 230.465L1305.04 272.405C1306.07 274.35 1305.84 276.847 1304.27 278.502Z" fill="#EDEDED"/>
</g>
<path d="M1297.47 278.456L1297.47 278.456C1299.32 280.425 1302.35 280.425 1304.22 278.456C1305.77 276.823 1305.99 274.358 1304.98 272.437L1304.96 272.394L1304.99 272.359L1344.86 230.418L1344.88 230.397H1344.9L1448.51 230.397H1448.56L1448.57 230.448C1449.12 232.549 1450.97 234.129 1453.15 234.129C1455.79 234.129 1457.93 231.876 1457.93 229.098C1457.93 226.32 1455.79 224.067 1453.15 224.067C1450.97 224.067 1449.14 225.62 1448.57 227.749L1448.56 227.799H1448.51L1343.86 227.799L1303.27 270.534L1303.23 270.573L1303.18 270.545C1301.36 269.457 1299.02 269.716 1297.47 271.348L1297.47 271.349C1295.6 273.293 1295.6 276.484 1297.47 278.456Z" stroke="#F9F9F9" stroke-width="0.13493"/>
<g filter="url(#filter26_ii_4206_1950)">
<path d="M1479.15 375C1476.93 375 1475.06 373.386 1474.51 371.242L1324.39 371.242L1285.01 329.51L1190.49 329.51C1189.92 331.68 1188.07 333.268 1185.85 333.268C1183.17 333.268 1181 330.965 1181 328.134C1181 325.302 1183.17 323 1185.85 323C1188.07 323 1189.92 324.588 1190.49 326.758L1286.08 326.758L1325.47 368.49L1474.51 368.49C1475.08 366.32 1476.93 364.732 1479.15 364.732C1481.83 364.732 1484 367.035 1484 369.866C1484.02 372.724 1481.85 375 1479.15 375Z" fill="#EDEDED"/>
</g>
<path d="M1474.51 371.175H1474.56L1474.57 371.225C1475.12 373.342 1476.97 374.933 1479.15 374.933C1481.81 374.933 1483.96 372.69 1483.93 369.867H1483.93V369.866C1483.93 367.068 1481.79 364.8 1479.15 364.8C1476.97 364.8 1475.14 366.363 1474.57 368.507L1474.56 368.558H1474.51L1325.47 368.558H1325.44L1325.42 368.536L1286.05 326.825L1190.49 326.825H1190.44L1190.43 326.775C1189.86 324.631 1188.03 323.067 1185.85 323.067C1183.21 323.067 1181.07 325.336 1181.07 328.134C1181.07 330.932 1183.21 333.2 1185.85 333.2C1188.03 333.2 1189.86 331.637 1190.43 329.493L1190.44 329.442H1190.49L1285.01 329.442H1285.03L1285.05 329.464L1324.42 371.175L1474.51 371.175Z" stroke="#F9F9F9" stroke-width="0.13493"/>
<g filter="url(#filter27_ii_4206_1950)">
<path d="M1478.14 303.763C1480.82 303.763 1483 306.059 1483 308.882C1483 311.705 1480.82 314 1478.14 314C1475.91 314 1474.04 312.391 1473.49 310.254L1365.52 310.254L1339.24 282.551C1337.38 283.659 1335 283.395 1333.43 281.733C1331.52 279.728 1331.52 276.483 1333.43 274.504C1335.33 272.499 1338.41 272.499 1340.29 274.504C1341.86 276.166 1342.12 278.672 1341.06 280.625L1366.6 307.536L1473.49 307.536C1474.04 305.373 1475.91 303.763 1478.14 303.763Z" fill="#EDEDED"/>
</g>
<path d="M1473.49 310.186H1473.54L1473.55 310.237C1474.1 312.347 1475.95 313.933 1478.14 313.933C1480.78 313.933 1482.93 311.671 1482.93 308.882C1482.93 306.092 1480.78 303.831 1478.14 303.831C1475.95 303.831 1474.1 305.416 1473.55 307.553L1473.54 307.604H1473.49L1366.6 307.604H1366.57L1366.55 307.582L1341.01 280.671L1340.98 280.636L1341 280.593C1342.04 278.665 1341.79 276.19 1340.24 274.55L1340.24 274.55C1338.39 272.573 1335.35 272.573 1333.48 274.55L1333.48 274.551C1331.6 276.503 1331.6 279.707 1333.48 281.687C1335.03 283.325 1337.38 283.585 1339.2 282.493L1339.25 282.465L1339.28 282.504L1365.55 310.186L1473.49 310.186Z" stroke="#F9F9F9" stroke-width="0.13493"/>
<g filter="url(#filter28_ii_4206_1950)">
<path d="M1460.16 346C1457.93 346 1456.06 344.386 1455.51 342.242L1352.38 342.242L1313.01 300.51H1265.49C1264.91 302.68 1263.07 304.268 1260.84 304.268C1258.17 304.268 1256 301.965 1256 299.134C1256 296.302 1258.17 294 1260.84 294C1263.07 294 1264.94 295.588 1265.49 297.758H1314.06L1353.43 339.49L1455.51 339.49C1456.09 337.32 1457.93 335.732 1460.16 335.732C1462.83 335.732 1465 338.035 1465 340.866C1465 343.698 1462.83 346 1460.16 346Z" fill="#EDEDED"/>
</g>
<path d="M1455.51 342.175H1455.56L1455.58 342.225C1456.12 344.342 1457.97 345.933 1460.16 345.933C1462.79 345.933 1464.93 343.664 1464.93 340.866C1464.93 338.068 1462.79 335.8 1460.16 335.8C1457.97 335.8 1456.14 337.363 1455.58 339.507L1455.56 339.558H1455.51L1353.43 339.558H1353.4L1353.38 339.536L1314.03 297.825H1265.49H1265.44L1265.42 297.774C1264.88 295.631 1263.03 294.067 1260.84 294.067C1258.21 294.067 1256.07 296.336 1256.07 299.134C1256.07 301.932 1258.21 304.2 1260.84 304.2C1263.03 304.2 1264.86 302.637 1265.42 300.493L1265.44 300.442H1265.49H1313.01H1313.04L1313.06 300.464L1352.41 342.175L1455.51 342.175Z" stroke="#F9F9F9" stroke-width="0.13493"/>
<g filter="url(#filter29_ii_4206_1950)">
<path d="M449.506 394.448C448.93 396.597 447.079 398.169 444.853 398.169C442.176 398.169 440 395.889 440 393.085C440 390.28 442.176 388 444.853 388C447.079 388 448.955 389.573 449.506 391.722L640.068 391.722L695 449.278L595.191 449.278C594.616 451.427 592.765 453 590.539 453C587.862 453 585.686 450.72 585.686 447.915C585.686 445.111 587.862 442.831 590.539 442.831C592.765 442.831 594.641 444.403 595.191 446.552L688.771 446.552L638.992 394.421L449.506 394.421V394.448Z" fill="#EDEDED"/>
</g>
<path d="M449.506 391.789H449.453L449.44 391.739C448.897 389.617 447.046 388.067 444.853 388.067C442.216 388.067 440.067 390.315 440.067 393.085C440.067 395.855 442.216 398.102 444.853 398.102C447.043 398.102 448.867 396.557 449.438 394.439V394.421V394.354H449.506L638.992 394.354H639.021L639.041 394.375L688.82 446.506L688.929 446.62H688.771L595.191 446.62H595.139L595.126 446.569C594.583 444.447 592.732 442.898 590.539 442.898C587.902 442.898 585.753 445.145 585.753 447.915C585.753 450.685 587.902 452.933 590.539 452.933C592.731 452.933 594.558 451.384 595.126 449.261L595.14 449.211H595.191L694.842 449.211L640.039 391.789L449.506 391.789Z" stroke="#F9F9F9" stroke-width="0.13493"/>
<g filter="url(#filter30_ii_4206_1950)">
<path d="M361.136 405L206.203 405L145.954 341.481L49.4959 341.481C48.9211 343.641 47.072 345.222 44.848 345.222C42.1741 345.222 40 342.93 40 340.111C40 337.292 42.1741 335 44.848 335C47.072 335 48.9211 336.581 49.4959 338.741L147.004 338.741L207.253 402.26L360.036 402.26L409.29 350.333L627.121 350.333L667.778 393.197C669.627 392.091 672.001 392.354 673.576 394.014C675.475 396.016 675.475 399.257 673.576 401.233C671.676 403.235 668.603 403.235 666.729 401.233C665.154 399.573 664.904 397.07 665.954 395.12L626.071 353.073L410.365 353.073L361.136 405Z" fill="#EDEDED"/>
</g>
<path d="M145.954 341.414H145.983L146.003 341.435L206.232 404.933L361.107 404.933L410.316 353.027L410.336 353.006H410.365L626.071 353.006H626.1L626.12 353.027L666.003 395.074L666.036 395.109L666.013 395.152C664.977 397.078 665.224 399.549 666.778 401.186L666.778 401.186C668.625 403.16 671.654 403.161 673.527 401.186L673.527 401.186C675.401 399.236 675.401 396.037 673.527 394.06C671.974 392.424 669.635 392.165 667.813 393.255L667.766 393.283L667.729 393.244L627.092 350.401L409.319 350.401L360.085 402.306L360.065 402.328H360.036L207.253 402.328H207.224L207.204 402.306L146.975 338.809L49.4959 338.809H49.444L49.4307 338.758C48.8629 336.624 47.038 335.067 44.848 335.067C42.2147 335.067 40.0674 337.326 40.0674 340.111C40.0674 342.896 42.2147 345.155 44.848 345.155C47.038 345.155 48.8629 343.598 49.4307 341.464L49.444 341.414H49.4959L145.954 341.414Z" stroke="#F9F9F9" stroke-width="0.13493"/>
<g filter="url(#filter31_ii_4206_1950)">
<path d="M191.709 206.884L239.783 156L353.652 156L426.786 233.436C428.633 232.326 431.005 232.591 432.577 234.255C434.474 236.263 434.474 239.513 432.577 241.494C430.68 243.502 427.61 243.502 425.738 241.494C424.166 239.83 423.916 237.32 424.964 235.365L352.554 158.721L240.831 158.721L192.757 209.606L1.48495 209.606C0.910858 211.772 -0.936188 213.357 -3.15768 213.357C-5.82843 213.357 -8 211.059 -8 208.232C-8 205.405 -5.82843 203.106 -3.15768 203.106C-0.936188 203.106 0.935822 204.691 1.48495 206.858L191.709 206.858V206.884Z" fill="#EDEDED"/>
</g>
<path d="M191.758 206.931L191.641 207.054V206.925L1.48495 206.925H1.43246L1.41956 206.874C0.877289 204.735 -0.969879 203.174 -3.15768 203.174C-5.7876 203.174 -7.93253 205.438 -7.93253 208.232C-7.93253 211.025 -5.7876 213.29 -3.15768 213.29C-0.970398 213.29 0.852509 211.729 1.41974 209.588L1.43304 209.538H1.48495L192.728 209.538L240.782 158.675L240.802 158.654H240.831L352.554 158.654H352.583L352.603 158.675L425.013 235.318L425.047 235.354L425.024 235.397C423.988 237.327 424.236 239.806 425.787 241.448L425.787 241.448C427.633 243.427 430.658 243.428 432.528 241.448L432.529 241.447C434.4 239.492 434.401 236.283 432.528 234.301C430.978 232.66 428.642 232.4 426.821 233.494L426.775 233.522L426.737 233.482L353.623 156.067L239.812 156.067L191.758 206.931Z" stroke="#F9F9F9" stroke-width="0.13493"/>
<g filter="url(#filter32_ii_4206_1950)">
<path d="M-12.1346 395C-9.91394 395 -8.04248 396.58 -7.49353 398.739L122.803 398.739L162.151 440.262L401.734 440.262L418.377 422.699L589.518 422.699C590.092 420.54 591.939 418.96 594.159 418.96C596.829 418.96 599 421.251 599 424.069C599 426.886 596.829 429.177 594.159 429.177C591.939 429.177 590.067 427.57 589.518 425.438L419.425 425.438L402.782 443L161.053 443L121.705 401.477L-7.51849 401.477C-8.09241 403.636 -9.9389 405.216 -12.1595 405.216C-14.8293 405.216 -17 402.925 -17 400.108C-17 397.291 -14.8044 395 -12.1346 395Z" fill="#EDEDED"/>
</g>
<path d="M-7.49353 398.806H-7.54596L-7.5589 398.756C-8.10095 396.624 -9.94751 395.067 -12.1346 395.067C-14.7642 395.067 -16.9326 397.325 -16.9326 400.108C-16.9326 402.892 -14.7887 405.149 -12.1595 405.149C-9.97296 405.149 -8.1507 403.593 -7.58368 401.46L-7.57037 401.41H-7.51849L121.705 401.41H121.734L121.754 401.431L161.082 442.933L402.753 442.933L419.376 425.391L419.396 425.37H419.425L589.518 425.37H589.571L589.584 425.421C590.126 427.527 591.973 429.109 594.159 429.109C596.789 429.109 598.933 426.852 598.933 424.069C598.933 421.285 596.789 419.028 594.159 419.028C591.973 419.028 590.151 420.584 589.584 422.717L589.57 422.767H589.518L418.406 422.767L401.783 440.308L401.763 440.329H401.734L162.151 440.329H162.122L162.102 440.308L122.774 398.806L-7.49353 398.806Z" stroke="#F9F9F9" stroke-width="0.13493"/>
<g filter="url(#filter33_ii_4206_1950)">
<path d="M84 242.452C84 239.619 86.1741 237.316 88.8481 237.316C91.0723 237.316 92.9465 238.931 93.4963 241.075L221.398 241.075L254.76 205.759L351.898 205.759C352.473 203.588 354.322 202 356.546 202C359.22 202 361.395 204.303 361.395 207.136C361.395 209.969 359.22 212.272 356.546 212.272C354.322 212.272 352.448 210.657 351.898 208.513L267.305 208.513C267.53 208.91 267.705 209.333 267.83 209.783L350.574 209.783L428.644 292.487L600.504 292.487C601.078 290.317 602.928 288.728 605.152 288.728C607.826 288.728 610 291.031 610 293.864C610 296.697 607.826 299 605.152 299C602.928 299 601.053 297.385 600.504 295.241L427.569 295.241L349.499 212.537L267.83 212.537C267.255 214.707 265.406 216.296 263.182 216.296C260.508 216.296 258.334 213.993 258.334 211.16C258.334 210.18 258.609 209.28 259.058 208.513H255.835L222.497 243.829L93.5214 243.829C92.9466 245.999 91.0974 247.588 88.8732 247.588C86.1742 247.588 84 245.285 84 242.452Z" fill="#EDEDED"/>
</g>
<path d="M93.4963 241.143H93.444L93.431 241.092C92.888 238.974 91.0383 237.384 88.8481 237.384C86.215 237.384 84.0674 239.653 84.0674 242.452C84.0674 245.251 86.2148 247.52 88.8732 247.52C91.0631 247.52 92.8882 245.956 93.4561 243.811L93.4694 243.761H93.5214L222.468 243.761L255.786 208.466L255.806 208.445H255.835H259.058H259.176L259.117 208.547C258.672 209.305 258.401 210.193 258.401 211.16C258.401 213.959 260.549 216.228 263.182 216.228C265.372 216.228 267.197 214.664 267.765 212.519L267.778 212.469H267.83L349.499 212.469H349.528L349.548 212.49L427.598 295.173L600.504 295.173H600.556L600.569 295.224C601.112 297.342 602.962 298.933 605.152 298.933C607.785 298.933 609.933 296.663 609.933 293.864C609.933 291.065 607.785 288.796 605.152 288.796C602.962 288.796 601.137 290.36 600.569 292.505L600.555 292.555H600.504L428.644 292.555H428.615L428.595 292.534L350.545 209.851L267.83 209.851H267.779L267.765 209.801C267.642 209.356 267.469 208.938 267.247 208.546L267.19 208.445H267.305L351.898 208.445H351.951L351.964 208.496C352.507 210.614 354.356 212.204 356.546 212.204C359.179 212.204 361.327 209.935 361.327 207.136C361.327 204.337 359.179 202.067 356.546 202.067C354.356 202.067 352.531 203.632 351.963 205.777L351.95 205.827H351.898L254.789 205.827L221.447 241.122L221.427 241.143H221.398L93.4963 241.143Z" stroke="#F9F9F9" stroke-width="0.13493"/>
<g filter="url(#filter34_ii_4206_1950)">
<path d="M-50.1279 289.841C-47.9042 289.841 -46.0554 291.445 -45.4807 293.574L159.996 293.574L231.978 369.293L350.631 369.293L399.352 318.042L341.812 257.514C339.963 258.618 337.589 258.355 336.015 256.699C334.116 254.702 334.116 251.469 336.015 249.498C337.914 247.501 340.987 247.501 342.861 249.498C344.435 251.154 344.685 253.651 343.636 255.596L403 318.042L351.706 372L230.903 372L158.922 296.281L-45.5057 296.281C-46.0804 298.436 -47.9292 300.013 -50.1529 300.013C-52.8263 300.013 -55 297.726 -55 294.914C-54.975 292.102 -52.8263 289.841 -50.1279 289.841Z" fill="#EDEDED"/>
</g>
<path d="M-45.4807 293.641H-45.5324L-45.5458 293.591C-46.1136 291.488 -47.9385 289.909 -50.1279 289.909C-52.786 289.909 -54.9078 292.136 -54.9325 294.915C-54.9322 297.692 -52.7857 299.945 -50.1529 299.945C-47.9631 299.945 -46.1386 298.392 -45.5709 296.263L-45.5576 296.213H-45.5057L158.922 296.213H158.95L158.97 296.234L230.932 371.933L351.677 371.933L402.907 318.042L343.587 255.642L343.553 255.607L343.576 255.564C344.613 253.643 344.365 251.178 342.812 249.545L342.812 249.544C340.965 247.575 337.937 247.575 336.064 249.545L336.064 249.545C334.19 251.49 334.19 254.681 336.064 256.653C337.616 258.285 339.955 258.544 341.777 257.456L341.823 257.429L341.861 257.468L399.401 317.996L399.445 318.042L399.401 318.089L350.68 369.339L350.66 369.36H350.631L231.978 369.36H231.949L231.929 369.339L159.967 293.641L-45.4807 293.641Z" stroke="#F9F9F9" stroke-width="0.13493"/>
<g filter="url(#filter35_ii_4206_1950)">
<path d="M95.8589 276.317C93.179 276.317 91 274.004 91 271.159C91 268.313 93.179 266 95.8589 266C98.088 266 99.9665 267.622 100.518 269.776L294.347 269.776L329.762 307.374C331.615 306.258 333.995 306.523 335.572 308.199C337.476 310.22 337.476 313.49 335.572 315.484C333.669 317.505 330.588 317.505 328.71 315.484C327.132 313.809 326.882 311.283 327.933 309.315L293.27 272.515L100.518 272.515C99.9665 274.722 98.088 276.317 95.8589 276.317Z" fill="#EDEDED"/>
</g>
<path d="M100.518 269.843H100.465L100.452 269.793C99.9079 267.665 98.0538 266.067 95.8589 266.067C93.22 266.067 91.0675 268.347 91.0675 271.159C91.0675 273.97 93.22 276.25 95.8589 276.25C98.054 276.25 99.9078 274.678 100.452 272.498L100.465 272.447H100.518L293.27 272.447H293.299L293.319 272.468L327.983 309.269L328.016 309.304L327.993 309.347C326.954 311.291 327.202 313.785 328.759 315.438L328.759 315.438C330.611 317.43 333.646 317.431 335.523 315.438L335.524 315.438C337.402 313.47 337.402 310.24 335.523 308.245C333.967 306.593 331.623 306.332 329.797 307.432L329.75 307.46L329.713 307.421L294.318 269.843L100.518 269.843Z" stroke="#F9F9F9" stroke-width="0.13493"/>
<g filter="url(#filter36_ii_4206_1950)">
<path d="M250.532 340L228.184 316.329C226.345 317.434 223.983 317.171 222.417 315.512C220.528 313.511 220.528 310.272 222.417 308.298C224.306 306.297 227.364 306.297 229.228 308.298C230.794 309.956 231.043 312.458 229.999 314.406L251.576 337.262L315.81 337.262L283.967 303.532C282.127 304.638 279.765 304.374 278.199 302.716C276.31 300.714 276.31 297.476 278.199 295.501C280.089 293.5 283.146 293.5 285.011 295.501C286.577 297.16 286.825 299.661 285.781 301.61L322 339.974L250.532 339.974V340Z" fill="#EDEDED"/>
</g>
<path d="M250.536 339.906L321.844 339.906L285.732 301.656L285.699 301.621L285.722 301.578C286.753 299.653 286.507 297.184 284.962 295.547L284.961 295.547C283.124 293.575 280.111 293.574 278.248 295.547L278.248 295.547C276.384 297.496 276.384 300.694 278.248 302.669C279.792 304.305 282.119 304.564 283.932 303.474L283.978 303.446L284.016 303.485L315.859 337.215L315.967 337.329H315.81L251.576 337.329H251.547L251.527 337.308L229.95 314.453L229.916 314.417L229.939 314.375C230.97 312.45 230.724 309.981 229.179 308.344L229.179 308.344C227.341 306.371 224.329 306.371 222.466 308.344L222.466 308.344C220.602 310.293 220.601 313.491 222.466 315.466C224.01 317.101 226.337 317.361 228.149 316.271L228.196 316.243L228.233 316.282L250.536 339.906Z" stroke="#F9F9F9" stroke-width="0.13493"/>
</g>
<defs>
<filter id="filter0_ii_4206_1950" x="1264" y="-1.3493" width="238" height="60.0479" filterUnits="userSpaceOnUse" color-interpolation-filters="sRGB">
<feFlood flood-opacity="0" result="BackgroundImageFix"/>
<feBlend mode="normal" in="SourceGraphic" in2="BackgroundImageFix" result="shape"/>
<feColorMatrix in="SourceAlpha" type="matrix" values="0 0 0 0 0 0 0 0 0 0 0 0 0 0 0 0 0 0 127 0" result="hardAlpha"/>
<feOffset dy="-1.3493"/>
<feGaussianBlur stdDeviation="1.3493"/>
<feComposite in2="hardAlpha" operator="arithmetic" k2="-1" k3="1"/>
<feColorMatrix type="matrix" values="0 0 0 0 0 0 0 0 0 0 0 0 0 0 0 0 0 0 0.1 0"/>
<feBlend mode="normal" in2="shape" result="effect1_innerShadow_4206_1950"/>
<feColorMatrix in="SourceAlpha" type="matrix" values="0 0 0 0 0 0 0 0 0 0 0 0 0 0 0 0 0 0 127 0" result="hardAlpha"/>
<feOffset dy="2.6986"/>
<feGaussianBlur stdDeviation="1.3493"/>
<feComposite in2="hardAlpha" operator="arithmetic" k2="-1" k3="1"/>
<feColorMatrix type="matrix" values="0 0 0 0 0 0 0 0 0 0 0 0 0 0 0 0 0 0 0.14 0"/>
<feBlend mode="normal" in2="effect1_innerShadow_4206_1950" result="effect2_innerShadow_4206_1950"/>
</filter>
<filter id="filter1_ii_4206_1950" x="639" y="52.6507" width="552" height="54.0479" filterUnits="userSpaceOnUse" color-interpolation-filters="sRGB">
<feFlood flood-opacity="0" result="BackgroundImageFix"/>
<feBlend mode="normal" in="SourceGraphic" in2="BackgroundImageFix" result="shape"/>
<feColorMatrix in="SourceAlpha" type="matrix" values="0 0 0 0 0 0 0 0 0 0 0 0 0 0 0 0 0 0 127 0" result="hardAlpha"/>
<feOffset dy="-1.3493"/>
<feGaussianBlur stdDeviation="1.3493"/>
<feComposite in2="hardAlpha" operator="arithmetic" k2="-1" k3="1"/>
<feColorMatrix type="matrix" values="0 0 0 0 0 0 0 0 0 0 0 0 0 0 0 0 0 0 0.1 0"/>
<feBlend mode="normal" in2="shape" result="effect1_innerShadow_4206_1950"/>
<feColorMatrix in="SourceAlpha" type="matrix" values="0 0 0 0 0 0 0 0 0 0 0 0 0 0 0 0 0 0 127 0" result="hardAlpha"/>
<feOffset dy="2.6986"/>
<feGaussianBlur stdDeviation="1.3493"/>
<feComposite in2="hardAlpha" operator="arithmetic" k2="-1" k3="1"/>
<feColorMatrix type="matrix" values="0 0 0 0 0 0 0 0 0 0 0 0 0 0 0 0 0 0 0.14 0"/>
<feBlend mode="normal" in2="effect1_innerShadow_4206_1950" result="effect2_innerShadow_4206_1950"/>
</filter>
<filter id="filter2_ii_4206_1950" x="66" y="55.6507" width="691" height="76.0479" filterUnits="userSpaceOnUse" color-interpolation-filters="sRGB">
<feFlood flood-opacity="0" result="BackgroundImageFix"/>
<feBlend mode="normal" in="SourceGraphic" in2="BackgroundImageFix" result="shape"/>
<feColorMatrix in="SourceAlpha" type="matrix" values="0 0 0 0 0 0 0 0 0 0 0 0 0 0 0 0 0 0 127 0" result="hardAlpha"/>
<feOffset dy="-1.3493"/>
<feGaussianBlur stdDeviation="1.3493"/>
<feComposite in2="hardAlpha" operator="arithmetic" k2="-1" k3="1"/>
<feColorMatrix type="matrix" values="0 0 0 0 0 0 0 0 0 0 0 0 0 0 0 0 0 0 0.1 0"/>
<feBlend mode="normal" in2="shape" result="effect1_innerShadow_4206_1950"/>
<feColorMatrix in="SourceAlpha" type="matrix" values="0 0 0 0 0 0 0 0 0 0 0 0 0 0 0 0 0 0 127 0" result="hardAlpha"/>
<feOffset dy="2.6986"/>
<feGaussianBlur stdDeviation="1.3493"/>
<feComposite in2="hardAlpha" operator="arithmetic" k2="-1" k3="1"/>
<feColorMatrix type="matrix" values="0 0 0 0 0 0 0 0 0 0 0 0 0 0 0 0 0 0 0.14 0"/>
<feBlend mode="normal" in2="effect1_innerShadow_4206_1950" result="effect2_innerShadow_4206_1950"/>
</filter>
<filter id="filter3_ii_4206_1950" x="1261" y="465.651" width="225" height="74.0479" filterUnits="userSpaceOnUse" color-interpolation-filters="sRGB">
<feFlood flood-opacity="0" result="BackgroundImageFix"/>
<feBlend mode="normal" in="SourceGraphic" in2="BackgroundImageFix" result="shape"/>
<feColorMatrix in="SourceAlpha" type="matrix" values="0 0 0 0 0 0 0 0 0 0 0 0 0 0 0 0 0 0 127 0" result="hardAlpha"/>
<feOffset dy="-1.3493"/>
<feGaussianBlur stdDeviation="1.3493"/>
<feComposite in2="hardAlpha" operator="arithmetic" k2="-1" k3="1"/>
<feColorMatrix type="matrix" values="0 0 0 0 0 0 0 0 0 0 0 0 0 0 0 0 0 0 0.1 0"/>
<feBlend mode="normal" in2="shape" result="effect1_innerShadow_4206_1950"/>
<feColorMatrix in="SourceAlpha" type="matrix" values="0 0 0 0 0 0 0 0 0 0 0 0 0 0 0 0 0 0 127 0" result="hardAlpha"/>
<feOffset dy="2.6986"/>
<feGaussianBlur stdDeviation="1.3493"/>
<feComposite in2="hardAlpha" operator="arithmetic" k2="-1" k3="1"/>
<feColorMatrix type="matrix" values="0 0 0 0 0 0 0 0 0 0 0 0 0 0 0 0 0 0 0.14 0"/>
<feBlend mode="normal" in2="effect1_innerShadow_4206_1950" result="effect2_innerShadow_4206_1950"/>
</filter>
<filter id="filter4_ii_4206_1950" x="993" y="469.651" width="296" height="49.0479" filterUnits="userSpaceOnUse" color-interpolation-filters="sRGB">
<feFlood flood-opacity="0" result="BackgroundImageFix"/>
<feBlend mode="normal" in="SourceGraphic" in2="BackgroundImageFix" result="shape"/>
<feColorMatrix in="SourceAlpha" type="matrix" values="0 0 0 0 0 0 0 0 0 0 0 0 0 0 0 0 0 0 127 0" result="hardAlpha"/>
<feOffset dy="-1.3493"/>
<feGaussianBlur stdDeviation="1.3493"/>
<feComposite in2="hardAlpha" operator="arithmetic" k2="-1" k3="1"/>
<feColorMatrix type="matrix" values="0 0 0 0 0 0 0 0 0 0 0 0 0 0 0 0 0 0 0.1 0"/>
<feBlend mode="normal" in2="shape" result="effect1_innerShadow_4206_1950"/>
<feColorMatrix in="SourceAlpha" type="matrix" values="0 0 0 0 0 0 0 0 0 0 0 0 0 0 0 0 0 0 127 0" result="hardAlpha"/>
<feOffset dy="2.6986"/>
<feGaussianBlur stdDeviation="1.3493"/>
<feComposite in2="hardAlpha" operator="arithmetic" k2="-1" k3="1"/>
<feColorMatrix type="matrix" values="0 0 0 0 0 0 0 0 0 0 0 0 0 0 0 0 0 0 0.14 0"/>
<feBlend mode="normal" in2="effect1_innerShadow_4206_1950" result="effect2_innerShadow_4206_1950"/>
</filter>
<filter id="filter5_ii_4206_1950" x="466" y="487.651" width="565" height="69.0479" filterUnits="userSpaceOnUse" color-interpolation-filters="sRGB">
<feFlood flood-opacity="0" result="BackgroundImageFix"/>
<feBlend mode="normal" in="SourceGraphic" in2="BackgroundImageFix" result="shape"/>
<feColorMatrix in="SourceAlpha" type="matrix" values="0 0 0 0 0 0 0 0 0 0 0 0 0 0 0 0 0 0 127 0" result="hardAlpha"/>
<feOffset dy="-1.3493"/>
<feGaussianBlur stdDeviation="1.3493"/>
<feComposite in2="hardAlpha" operator="arithmetic" k2="-1" k3="1"/>
<feColorMatrix type="matrix" values="0 0 0 0 0 0 0 0 0 0 0 0 0 0 0 0 0 0 0.1 0"/>
<feBlend mode="normal" in2="shape" result="effect1_innerShadow_4206_1950"/>
<feColorMatrix in="SourceAlpha" type="matrix" values="0 0 0 0 0 0 0 0 0 0 0 0 0 0 0 0 0 0 127 0" result="hardAlpha"/>
<feOffset dy="2.6986"/>
<feGaussianBlur stdDeviation="1.3493"/>
<feComposite in2="hardAlpha" operator="arithmetic" k2="-1" k3="1"/>
<feColorMatrix type="matrix" values="0 0 0 0 0 0 0 0 0 0 0 0 0 0 0 0 0 0 0.14 0"/>
<feBlend mode="normal" in2="effect1_innerShadow_4206_1950" result="effect2_innerShadow_4206_1950"/>
</filter>
<filter id="filter6_ii_4206_1950" x="104" y="487.651" width="418" height="89.0479" filterUnits="userSpaceOnUse" color-interpolation-filters="sRGB">
<feFlood flood-opacity="0" result="BackgroundImageFix"/>
<feBlend mode="normal" in="SourceGraphic" in2="BackgroundImageFix" result="shape"/>
<feColorMatrix in="SourceAlpha" type="matrix" values="0 0 0 0 0 0 0 0 0 0 0 0 0 0 0 0 0 0 127 0" result="hardAlpha"/>
<feOffset dy="-1.3493"/>
<feGaussianBlur stdDeviation="1.3493"/>
<feComposite in2="hardAlpha" operator="arithmetic" k2="-1" k3="1"/>
<feColorMatrix type="matrix" values="0 0 0 0 0 0 0 0 0 0 0 0 0 0 0 0 0 0 0.1 0"/>
<feBlend mode="normal" in2="shape" result="effect1_innerShadow_4206_1950"/>
<feColorMatrix in="SourceAlpha" type="matrix" values="0 0 0 0 0 0 0 0 0 0 0 0 0 0 0 0 0 0 127 0" result="hardAlpha"/>
<feOffset dy="2.6986"/>
<feGaussianBlur stdDeviation="1.3493"/>
<feComposite in2="hardAlpha" operator="arithmetic" k2="-1" k3="1"/>
<feColorMatrix type="matrix" values="0 0 0 0 0 0 0 0 0 0 0 0 0 0 0 0 0 0 0.14 0"/>
<feBlend mode="normal" in2="effect1_innerShadow_4206_1950" result="effect2_innerShadow_4206_1950"/>
</filter>
<filter id="filter7_ii_4206_1950" x="978" y="288.651" width="504" height="161.048" filterUnits="userSpaceOnUse" color-interpolation-filters="sRGB">
<feFlood flood-opacity="0" result="BackgroundImageFix"/>
<feBlend mode="normal" in="SourceGraphic" in2="BackgroundImageFix" result="shape"/>
<feColorMatrix in="SourceAlpha" type="matrix" values="0 0 0 0 0 0 0 0 0 0 0 0 0 0 0 0 0 0 127 0" result="hardAlpha"/>
<feOffset dy="-1.3493"/>
<feGaussianBlur stdDeviation="1.3493"/>
<feComposite in2="hardAlpha" operator="arithmetic" k2="-1" k3="1"/>
<feColorMatrix type="matrix" values="0 0 0 0 0 0 0 0 0 0 0 0 0 0 0 0 0 0 0.1 0"/>
<feBlend mode="normal" in2="shape" result="effect1_innerShadow_4206_1950"/>
<feColorMatrix in="SourceAlpha" type="matrix" values="0 0 0 0 0 0 0 0 0 0 0 0 0 0 0 0 0 0 127 0" result="hardAlpha"/>
<feOffset dy="2.6986"/>
<feGaussianBlur stdDeviation="1.3493"/>
<feComposite in2="hardAlpha" operator="arithmetic" k2="-1" k3="1"/>
<feColorMatrix type="matrix" values="0 0 0 0 0 0 0 0 0 0 0 0 0 0 0 0 0 0 0.14 0"/>
<feBlend mode="normal" in2="effect1_innerShadow_4206_1950" result="effect2_innerShadow_4206_1950"/>
</filter>
<filter id="filter8_ii_4206_1950" x="108" y="379.651" width="1159" height="167.048" filterUnits="userSpaceOnUse" color-interpolation-filters="sRGB">
<feFlood flood-opacity="0" result="BackgroundImageFix"/>
<feBlend mode="normal" in="SourceGraphic" in2="BackgroundImageFix" result="shape"/>
<feColorMatrix in="SourceAlpha" type="matrix" values="0 0 0 0 0 0 0 0 0 0 0 0 0 0 0 0 0 0 127 0" result="hardAlpha"/>
<feOffset dy="-1.3493"/>
<feGaussianBlur stdDeviation="1.3493"/>
<feComposite in2="hardAlpha" operator="arithmetic" k2="-1" k3="1"/>
<feColorMatrix type="matrix" values="0 0 0 0 0 0 0 0 0 0 0 0 0 0 0 0 0 0 0.1 0"/>
<feBlend mode="normal" in2="shape" result="effect1_innerShadow_4206_1950"/>
<feColorMatrix in="SourceAlpha" type="matrix" values="0 0 0 0 0 0 0 0 0 0 0 0 0 0 0 0 0 0 127 0" result="hardAlpha"/>
<feOffset dy="2.6986"/>
<feGaussianBlur stdDeviation="1.3493"/>
<feComposite in2="hardAlpha" operator="arithmetic" k2="-1" k3="1"/>
<feColorMatrix type="matrix" values="0 0 0 0 0 0 0 0 0 0 0 0 0 0 0 0 0 0 0.14 0"/>
<feBlend mode="normal" in2="effect1_innerShadow_4206_1950" result="effect2_innerShadow_4206_1950"/>
</filter>
<filter id="filter9_ii_4206_1950" x="1018" y="440.651" width="221" height="36.0479" filterUnits="userSpaceOnUse" color-interpolation-filters="sRGB">
<feFlood flood-opacity="0" result="BackgroundImageFix"/>
<feBlend mode="normal" in="SourceGraphic" in2="BackgroundImageFix" result="shape"/>
<feColorMatrix in="SourceAlpha" type="matrix" values="0 0 0 0 0 0 0 0 0 0 0 0 0 0 0 0 0 0 127 0" result="hardAlpha"/>
<feOffset dy="-1.3493"/>
<feGaussianBlur stdDeviation="1.3493"/>
<feComposite in2="hardAlpha" operator="arithmetic" k2="-1" k3="1"/>
<feColorMatrix type="matrix" values="0 0 0 0 0 0 0 0 0 0 0 0 0 0 0 0 0 0 0.1 0"/>
<feBlend mode="normal" in2="shape" result="effect1_innerShadow_4206_1950"/>
<feColorMatrix in="SourceAlpha" type="matrix" values="0 0 0 0 0 0 0 0 0 0 0 0 0 0 0 0 0 0 127 0" result="hardAlpha"/>
<feOffset dy="2.6986"/>
<feGaussianBlur stdDeviation="1.3493"/>
<feComposite in2="hardAlpha" operator="arithmetic" k2="-1" k3="1"/>
<feColorMatrix type="matrix" values="0 0 0 0 0 0 0 0 0 0 0 0 0 0 0 0 0 0 0.14 0"/>
<feBlend mode="normal" in2="effect1_innerShadow_4206_1950" result="effect2_innerShadow_4206_1950"/>
</filter>
<filter id="filter10_ii_4206_1950" x="480" y="75.6507" width="1005" height="86.0479" filterUnits="userSpaceOnUse" color-interpolation-filters="sRGB">
<feFlood flood-opacity="0" result="BackgroundImageFix"/>
<feBlend mode="normal" in="SourceGraphic" in2="BackgroundImageFix" result="shape"/>
<feColorMatrix in="SourceAlpha" type="matrix" values="0 0 0 0 0 0 0 0 0 0 0 0 0 0 0 0 0 0 127 0" result="hardAlpha"/>
<feOffset dy="-1.3493"/>
<feGaussianBlur stdDeviation="1.3493"/>
<feComposite in2="hardAlpha" operator="arithmetic" k2="-1" k3="1"/>
<feColorMatrix type="matrix" values="0 0 0 0 0 0 0 0 0 0 0 0 0 0 0 0 0 0 0.1 0"/>
<feBlend mode="normal" in2="shape" result="effect1_innerShadow_4206_1950"/>
<feColorMatrix in="SourceAlpha" type="matrix" values="0 0 0 0 0 0 0 0 0 0 0 0 0 0 0 0 0 0 127 0" result="hardAlpha"/>
<feOffset dy="2.6986"/>
<feGaussianBlur stdDeviation="1.3493"/>
<feComposite in2="hardAlpha" operator="arithmetic" k2="-1" k3="1"/>
<feColorMatrix type="matrix" values="0 0 0 0 0 0 0 0 0 0 0 0 0 0 0 0 0 0 0.14 0"/>
<feBlend mode="normal" in2="effect1_innerShadow_4206_1950" result="effect2_innerShadow_4206_1950"/>
</filter>
<filter id="filter11_ii_4206_1950" x="907" y="136.651" width="349" height="55.0479" filterUnits="userSpaceOnUse" color-interpolation-filters="sRGB">
<feFlood flood-opacity="0" result="BackgroundImageFix"/>
<feBlend mode="normal" in="SourceGraphic" in2="BackgroundImageFix" result="shape"/>
<feColorMatrix in="SourceAlpha" type="matrix" values="0 0 0 0 0 0 0 0 0 0 0 0 0 0 0 0 0 0 127 0" result="hardAlpha"/>
<feOffset dy="-1.3493"/>
<feGaussianBlur stdDeviation="1.3493"/>
<feComposite in2="hardAlpha" operator="arithmetic" k2="-1" k3="1"/>
<feColorMatrix type="matrix" values="0 0 0 0 0 0 0 0 0 0 0 0 0 0 0 0 0 0 0.1 0"/>
<feBlend mode="normal" in2="shape" result="effect1_innerShadow_4206_1950"/>
<feColorMatrix in="SourceAlpha" type="matrix" values="0 0 0 0 0 0 0 0 0 0 0 0 0 0 0 0 0 0 127 0" result="hardAlpha"/>
<feOffset dy="2.6986"/>
<feGaussianBlur stdDeviation="1.3493"/>
<feComposite in2="hardAlpha" operator="arithmetic" k2="-1" k3="1"/>
<feColorMatrix type="matrix" values="0 0 0 0 0 0 0 0 0 0 0 0 0 0 0 0 0 0 0.14 0"/>
<feBlend mode="normal" in2="effect1_innerShadow_4206_1950" result="effect2_innerShadow_4206_1950"/>
</filter>
<filter id="filter12_ii_4206_1950" x="972" y="117.651" width="452" height="38.0479" filterUnits="userSpaceOnUse" color-interpolation-filters="sRGB">
<feFlood flood-opacity="0" result="BackgroundImageFix"/>
<feBlend mode="normal" in="SourceGraphic" in2="BackgroundImageFix" result="shape"/>
<feColorMatrix in="SourceAlpha" type="matrix" values="0 0 0 0 0 0 0 0 0 0 0 0 0 0 0 0 0 0 127 0" result="hardAlpha"/>
<feOffset dy="-1.3493"/>
<feGaussianBlur stdDeviation="1.3493"/>
<feComposite in2="hardAlpha" operator="arithmetic" k2="-1" k3="1"/>
<feColorMatrix type="matrix" values="0 0 0 0 0 0 0 0 0 0 0 0 0 0 0 0 0 0 0.1 0"/>
<feBlend mode="normal" in2="shape" result="effect1_innerShadow_4206_1950"/>
<feColorMatrix in="SourceAlpha" type="matrix" values="0 0 0 0 0 0 0 0 0 0 0 0 0 0 0 0 0 0 127 0" result="hardAlpha"/>
<feOffset dy="2.6986"/>
<feGaussianBlur stdDeviation="1.3493"/>
<feComposite in2="hardAlpha" operator="arithmetic" k2="-1" k3="1"/>
<feColorMatrix type="matrix" values="0 0 0 0 0 0 0 0 0 0 0 0 0 0 0 0 0 0 0.14 0"/>
<feBlend mode="normal" in2="effect1_innerShadow_4206_1950" result="effect2_innerShadow_4206_1950"/>
</filter>
<filter id="filter13_ii_4206_1950" x="883" y="169.651" width="429" height="83.0479" filterUnits="userSpaceOnUse" color-interpolation-filters="sRGB">
<feFlood flood-opacity="0" result="BackgroundImageFix"/>
<feBlend mode="normal" in="SourceGraphic" in2="BackgroundImageFix" result="shape"/>
<feColorMatrix in="SourceAlpha" type="matrix" values="0 0 0 0 0 0 0 0 0 0 0 0 0 0 0 0 0 0 127 0" result="hardAlpha"/>
<feOffset dy="-1.3493"/>
<feGaussianBlur stdDeviation="1.3493"/>
<feComposite in2="hardAlpha" operator="arithmetic" k2="-1" k3="1"/>
<feColorMatrix type="matrix" values="0 0 0 0 0 0 0 0 0 0 0 0 0 0 0 0 0 0 0.1 0"/>
<feBlend mode="normal" in2="shape" result="effect1_innerShadow_4206_1950"/>
<feColorMatrix in="SourceAlpha" type="matrix" values="0 0 0 0 0 0 0 0 0 0 0 0 0 0 0 0 0 0 127 0" result="hardAlpha"/>
<feOffset dy="2.6986"/>
<feGaussianBlur stdDeviation="1.3493"/>
<feComposite in2="hardAlpha" operator="arithmetic" k2="-1" k3="1"/>
<feColorMatrix type="matrix" values="0 0 0 0 0 0 0 0 0 0 0 0 0 0 0 0 0 0 0.14 0"/>
<feBlend mode="normal" in2="effect1_innerShadow_4206_1950" result="effect2_innerShadow_4206_1950"/>
</filter>
<filter id="filter14_ii_4206_1950" x="327" y="81.6507" width="1144" height="147.048" filterUnits="userSpaceOnUse" color-interpolation-filters="sRGB">
<feFlood flood-opacity="0" result="BackgroundImageFix"/>
<feBlend mode="normal" in="SourceGraphic" in2="BackgroundImageFix" result="shape"/>
<feColorMatrix in="SourceAlpha" type="matrix" values="0 0 0 0 0 0 0 0 0 0 0 0 0 0 0 0 0 0 127 0" result="hardAlpha"/>
<feOffset dy="-1.3493"/>
<feGaussianBlur stdDeviation="1.3493"/>
<feComposite in2="hardAlpha" operator="arithmetic" k2="-1" k3="1"/>
<feColorMatrix type="matrix" values="0 0 0 0 0 0 0 0 0 0 0 0 0 0 0 0 0 0 0.1 0"/>
<feBlend mode="normal" in2="shape" result="effect1_innerShadow_4206_1950"/>
<feColorMatrix in="SourceAlpha" type="matrix" values="0 0 0 0 0 0 0 0 0 0 0 0 0 0 0 0 0 0 127 0" result="hardAlpha"/>
<feOffset dy="2.6986"/>
<feGaussianBlur stdDeviation="1.3493"/>
<feComposite in2="hardAlpha" operator="arithmetic" k2="-1" k3="1"/>
<feColorMatrix type="matrix" values="0 0 0 0 0 0 0 0 0 0 0 0 0 0 0 0 0 0 0.14 0"/>
<feBlend mode="normal" in2="effect1_innerShadow_4206_1950" result="effect2_innerShadow_4206_1950"/>
</filter>
<filter id="filter15_ii_4206_1950" x="450" y="322.651" width="574" height="104.048" filterUnits="userSpaceOnUse" color-interpolation-filters="sRGB">
<feFlood flood-opacity="0" result="BackgroundImageFix"/>
<feBlend mode="normal" in="SourceGraphic" in2="BackgroundImageFix" result="shape"/>
<feColorMatrix in="SourceAlpha" type="matrix" values="0 0 0 0 0 0 0 0 0 0 0 0 0 0 0 0 0 0 127 0" result="hardAlpha"/>
<feOffset dy="-1.3493"/>
<feGaussianBlur stdDeviation="1.3493"/>
<feComposite in2="hardAlpha" operator="arithmetic" k2="-1" k3="1"/>
<feColorMatrix type="matrix" values="0 0 0 0 0 0 0 0 0 0 0 0 0 0 0 0 0 0 0.1 0"/>
<feBlend mode="normal" in2="shape" result="effect1_innerShadow_4206_1950"/>
<feColorMatrix in="SourceAlpha" type="matrix" values="0 0 0 0 0 0 0 0 0 0 0 0 0 0 0 0 0 0 127 0" result="hardAlpha"/>
<feOffset dy="2.6986"/>
<feGaussianBlur stdDeviation="1.3493"/>
<feComposite in2="hardAlpha" operator="arithmetic" k2="-1" k3="1"/>
<feColorMatrix type="matrix" values="0 0 0 0 0 0 0 0 0 0 0 0 0 0 0 0 0 0 0.14 0"/>
<feBlend mode="normal" in2="effect1_innerShadow_4206_1950" result="effect2_innerShadow_4206_1950"/>
</filter>
<filter id="filter16_ii_4206_1950" x="1016" y="264.651" width="220" height="65.0479" filterUnits="userSpaceOnUse" color-interpolation-filters="sRGB">
<feFlood flood-opacity="0" result="BackgroundImageFix"/>
<feBlend mode="normal" in="SourceGraphic" in2="BackgroundImageFix" result="shape"/>
<feColorMatrix in="SourceAlpha" type="matrix" values="0 0 0 0 0 0 0 0 0 0 0 0 0 0 0 0 0 0 127 0" result="hardAlpha"/>
<feOffset dy="-1.3493"/>
<feGaussianBlur stdDeviation="1.3493"/>
<feComposite in2="hardAlpha" operator="arithmetic" k2="-1" k3="1"/>
<feColorMatrix type="matrix" values="0 0 0 0 0 0 0 0 0 0 0 0 0 0 0 0 0 0 0.1 0"/>
<feBlend mode="normal" in2="shape" result="effect1_innerShadow_4206_1950"/>
<feColorMatrix in="SourceAlpha" type="matrix" values="0 0 0 0 0 0 0 0 0 0 0 0 0 0 0 0 0 0 127 0" result="hardAlpha"/>
<feOffset dy="2.6986"/>
<feGaussianBlur stdDeviation="1.3493"/>
<feComposite in2="hardAlpha" operator="arithmetic" k2="-1" k3="1"/>
<feColorMatrix type="matrix" values="0 0 0 0 0 0 0 0 0 0 0 0 0 0 0 0 0 0 0.14 0"/>
<feBlend mode="normal" in2="effect1_innerShadow_4206_1950" result="effect2_innerShadow_4206_1950"/>
</filter>
<filter id="filter17_ii_4206_1950" x="645" y="272.651" width="391" height="125.048" filterUnits="userSpaceOnUse" color-interpolation-filters="sRGB">
<feFlood flood-opacity="0" result="BackgroundImageFix"/>
<feBlend mode="normal" in="SourceGraphic" in2="BackgroundImageFix" result="shape"/>
<feColorMatrix in="SourceAlpha" type="matrix" values="0 0 0 0 0 0 0 0 0 0 0 0 0 0 0 0 0 0 127 0" result="hardAlpha"/>
<feOffset dy="-1.3493"/>
<feGaussianBlur stdDeviation="1.3493"/>
<feComposite in2="hardAlpha" operator="arithmetic" k2="-1" k3="1"/>
<feColorMatrix type="matrix" values="0 0 0 0 0 0 0 0 0 0 0 0 0 0 0 0 0 0 0.1 0"/>
<feBlend mode="normal" in2="shape" result="effect1_innerShadow_4206_1950"/>
<feColorMatrix in="SourceAlpha" type="matrix" values="0 0 0 0 0 0 0 0 0 0 0 0 0 0 0 0 0 0 127 0" result="hardAlpha"/>
<feOffset dy="2.6986"/>
<feGaussianBlur stdDeviation="1.3493"/>
<feComposite in2="hardAlpha" operator="arithmetic" k2="-1" k3="1"/>
<feColorMatrix type="matrix" values="0 0 0 0 0 0 0 0 0 0 0 0 0 0 0 0 0 0 0.14 0"/>
<feBlend mode="normal" in2="effect1_innerShadow_4206_1950" result="effect2_innerShadow_4206_1950"/>
</filter>
<filter id="filter18_ii_4206_1950" x="1083" y="194.651" width="373" height="118.048" filterUnits="userSpaceOnUse" color-interpolation-filters="sRGB">
<feFlood flood-opacity="0" result="BackgroundImageFix"/>
<feBlend mode="normal" in="SourceGraphic" in2="BackgroundImageFix" result="shape"/>
<feColorMatrix in="SourceAlpha" type="matrix" values="0 0 0 0 0 0 0 0 0 0 0 0 0 0 0 0 0 0 127 0" result="hardAlpha"/>
<feOffset dy="-1.3493"/>
<feGaussianBlur stdDeviation="1.3493"/>
<feComposite in2="hardAlpha" operator="arithmetic" k2="-1" k3="1"/>
<feColorMatrix type="matrix" values="0 0 0 0 0 0 0 0 0 0 0 0 0 0 0 0 0 0 0.1 0"/>
<feBlend mode="normal" in2="shape" result="effect1_innerShadow_4206_1950"/>
<feColorMatrix in="SourceAlpha" type="matrix" values="0 0 0 0 0 0 0 0 0 0 0 0 0 0 0 0 0 0 127 0" result="hardAlpha"/>
<feOffset dy="2.6986"/>
<feGaussianBlur stdDeviation="1.3493"/>
<feComposite in2="hardAlpha" operator="arithmetic" k2="-1" k3="1"/>
<feColorMatrix type="matrix" values="0 0 0 0 0 0 0 0 0 0 0 0 0 0 0 0 0 0 0.14 0"/>
<feBlend mode="normal" in2="effect1_innerShadow_4206_1950" result="effect2_innerShadow_4206_1950"/>
</filter>
<filter id="filter19_ii_4206_1950" x="1234" y="338.651" width="247" height="77.0479" filterUnits="userSpaceOnUse" color-interpolation-filters="sRGB">
<feFlood flood-opacity="0" result="BackgroundImageFix"/>
<feBlend mode="normal" in="SourceGraphic" in2="BackgroundImageFix" result="shape"/>
<feColorMatrix in="SourceAlpha" type="matrix" values="0 0 0 0 0 0 0 0 0 0 0 0 0 0 0 0 0 0 127 0" result="hardAlpha"/>
<feOffset dy="-1.3493"/>
<feGaussianBlur stdDeviation="1.3493"/>
<feComposite in2="hardAlpha" operator="arithmetic" k2="-1" k3="1"/>
<feColorMatrix type="matrix" values="0 0 0 0 0 0 0 0 0 0 0 0 0 0 0 0 0 0 0.1 0"/>
<feBlend mode="normal" in2="shape" result="effect1_innerShadow_4206_1950"/>
<feColorMatrix in="SourceAlpha" type="matrix" values="0 0 0 0 0 0 0 0 0 0 0 0 0 0 0 0 0 0 127 0" result="hardAlpha"/>
<feOffset dy="2.6986"/>
<feGaussianBlur stdDeviation="1.3493"/>
<feComposite in2="hardAlpha" operator="arithmetic" k2="-1" k3="1"/>
<feColorMatrix type="matrix" values="0 0 0 0 0 0 0 0 0 0 0 0 0 0 0 0 0 0 0.14 0"/>
<feBlend mode="normal" in2="effect1_innerShadow_4206_1950" result="effect2_innerShadow_4206_1950"/>
</filter>
<filter id="filter20_ii_4206_1950" x="458" y="162.651" width="449" height="89.0479" filterUnits="userSpaceOnUse" color-interpolation-filters="sRGB">
<feFlood flood-opacity="0" result="BackgroundImageFix"/>
<feBlend mode="normal" in="SourceGraphic" in2="BackgroundImageFix" result="shape"/>
<feColorMatrix in="SourceAlpha" type="matrix" values="0 0 0 0 0 0 0 0 0 0 0 0 0 0 0 0 0 0 127 0" result="hardAlpha"/>
<feOffset dy="-1.3493"/>
<feGaussianBlur stdDeviation="1.3493"/>
<feComposite in2="hardAlpha" operator="arithmetic" k2="-1" k3="1"/>
<feColorMatrix type="matrix" values="0 0 0 0 0 0 0 0 0 0 0 0 0 0 0 0 0 0 0.1 0"/>
<feBlend mode="normal" in2="shape" result="effect1_innerShadow_4206_1950"/>
<feColorMatrix in="SourceAlpha" type="matrix" values="0 0 0 0 0 0 0 0 0 0 0 0 0 0 0 0 0 0 127 0" result="hardAlpha"/>
<feOffset dy="2.6986"/>
<feGaussianBlur stdDeviation="1.3493"/>
<feComposite in2="hardAlpha" operator="arithmetic" k2="-1" k3="1"/>
<feColorMatrix type="matrix" values="0 0 0 0 0 0 0 0 0 0 0 0 0 0 0 0 0 0 0.14 0"/>
<feBlend mode="normal" in2="effect1_innerShadow_4206_1950" result="effect2_innerShadow_4206_1950"/>
</filter>
<filter id="filter21_ii_4206_1950" x="518" y="241.651" width="407" height="73.0479" filterUnits="userSpaceOnUse" color-interpolation-filters="sRGB">
<feFlood flood-opacity="0" result="BackgroundImageFix"/>
<feBlend mode="normal" in="SourceGraphic" in2="BackgroundImageFix" result="shape"/>
<feColorMatrix in="SourceAlpha" type="matrix" values="0 0 0 0 0 0 0 0 0 0 0 0 0 0 0 0 0 0 127 0" result="hardAlpha"/>
<feOffset dy="-1.3493"/>
<feGaussianBlur stdDeviation="1.3493"/>
<feComposite in2="hardAlpha" operator="arithmetic" k2="-1" k3="1"/>
<feColorMatrix type="matrix" values="0 0 0 0 0 0 0 0 0 0 0 0 0 0 0 0 0 0 0.1 0"/>
<feBlend mode="normal" in2="shape" result="effect1_innerShadow_4206_1950"/>
<feColorMatrix in="SourceAlpha" type="matrix" values="0 0 0 0 0 0 0 0 0 0 0 0 0 0 0 0 0 0 127 0" result="hardAlpha"/>
<feOffset dy="2.6986"/>
<feGaussianBlur stdDeviation="1.3493"/>
<feComposite in2="hardAlpha" operator="arithmetic" k2="-1" k3="1"/>
<feColorMatrix type="matrix" values="0 0 0 0 0 0 0 0 0 0 0 0 0 0 0 0 0 0 0.14 0"/>
<feBlend mode="normal" in2="effect1_innerShadow_4206_1950" result="effect2_innerShadow_4206_1950"/>
</filter>
<filter id="filter22_ii_4206_1950" x="683" y="297.651" width="269" height="68.0479" filterUnits="userSpaceOnUse" color-interpolation-filters="sRGB">
<feFlood flood-opacity="0" result="BackgroundImageFix"/>
<feBlend mode="normal" in="SourceGraphic" in2="BackgroundImageFix" result="shape"/>
<feColorMatrix in="SourceAlpha" type="matrix" values="0 0 0 0 0 0 0 0 0 0 0 0 0 0 0 0 0 0 127 0" result="hardAlpha"/>
<feOffset dy="-1.3493"/>
<feGaussianBlur stdDeviation="1.3493"/>
<feComposite in2="hardAlpha" operator="arithmetic" k2="-1" k3="1"/>
<feColorMatrix type="matrix" values="0 0 0 0 0 0 0 0 0 0 0 0 0 0 0 0 0 0 0.1 0"/>
<feBlend mode="normal" in2="shape" result="effect1_innerShadow_4206_1950"/>
<feColorMatrix in="SourceAlpha" type="matrix" values="0 0 0 0 0 0 0 0 0 0 0 0 0 0 0 0 0 0 127 0" result="hardAlpha"/>
<feOffset dy="2.6986"/>
<feGaussianBlur stdDeviation="1.3493"/>
<feComposite in2="hardAlpha" operator="arithmetic" k2="-1" k3="1"/>
<feColorMatrix type="matrix" values="0 0 0 0 0 0 0 0 0 0 0 0 0 0 0 0 0 0 0.14 0"/>
<feBlend mode="normal" in2="effect1_innerShadow_4206_1950" result="effect2_innerShadow_4206_1950"/>
</filter>
<filter id="filter23_ii_4206_1950" x="281" y="119.651" width="580" height="163.048" filterUnits="userSpaceOnUse" color-interpolation-filters="sRGB">
<feFlood flood-opacity="0" result="BackgroundImageFix"/>
<feBlend mode="normal" in="SourceGraphic" in2="BackgroundImageFix" result="shape"/>
<feColorMatrix in="SourceAlpha" type="matrix" values="0 0 0 0 0 0 0 0 0 0 0 0 0 0 0 0 0 0 127 0" result="hardAlpha"/>
<feOffset dy="-1.3493"/>
<feGaussianBlur stdDeviation="1.3493"/>
<feComposite in2="hardAlpha" operator="arithmetic" k2="-1" k3="1"/>
<feColorMatrix type="matrix" values="0 0 0 0 0 0 0 0 0 0 0 0 0 0 0 0 0 0 0.1 0"/>
<feBlend mode="normal" in2="shape" result="effect1_innerShadow_4206_1950"/>
<feColorMatrix in="SourceAlpha" type="matrix" values="0 0 0 0 0 0 0 0 0 0 0 0 0 0 0 0 0 0 127 0" result="hardAlpha"/>
<feOffset dy="2.6986"/>
<feGaussianBlur stdDeviation="1.3493"/>
<feComposite in2="hardAlpha" operator="arithmetic" k2="-1" k3="1"/>
<feColorMatrix type="matrix" values="0 0 0 0 0 0 0 0 0 0 0 0 0 0 0 0 0 0 0.14 0"/>
<feBlend mode="normal" in2="effect1_innerShadow_4206_1950" result="effect2_innerShadow_4206_1950"/>
</filter>
<filter id="filter24_ii_4206_1950" x="183" y="439.651" width="626" height="56.0479" filterUnits="userSpaceOnUse" color-interpolation-filters="sRGB">
<feFlood flood-opacity="0" result="BackgroundImageFix"/>
<feBlend mode="normal" in="SourceGraphic" in2="BackgroundImageFix" result="shape"/>
<feColorMatrix in="SourceAlpha" type="matrix" values="0 0 0 0 0 0 0 0 0 0 0 0 0 0 0 0 0 0 127 0" result="hardAlpha"/>
<feOffset dy="-1.3493"/>
<feGaussianBlur stdDeviation="1.3493"/>
<feComposite in2="hardAlpha" operator="arithmetic" k2="-1" k3="1"/>
<feColorMatrix type="matrix" values="0 0 0 0 0 0 0 0 0 0 0 0 0 0 0 0 0 0 0.1 0"/>
<feBlend mode="normal" in2="shape" result="effect1_innerShadow_4206_1950"/>
<feColorMatrix in="SourceAlpha" type="matrix" values="0 0 0 0 0 0 0 0 0 0 0 0 0 0 0 0 0 0 127 0" result="hardAlpha"/>
<feOffset dy="2.6986"/>
<feGaussianBlur stdDeviation="1.3493"/>
<feComposite in2="hardAlpha" operator="arithmetic" k2="-1" k3="1"/>
<feColorMatrix type="matrix" values="0 0 0 0 0 0 0 0 0 0 0 0 0 0 0 0 0 0 0.14 0"/>
<feBlend mode="normal" in2="effect1_innerShadow_4206_1950" result="effect2_innerShadow_4206_1950"/>
</filter>
<filter id="filter25_ii_4206_1950" x="1296" y="222.651" width="162" height="60.0479" filterUnits="userSpaceOnUse" color-interpolation-filters="sRGB">
<feFlood flood-opacity="0" result="BackgroundImageFix"/>
<feBlend mode="normal" in="SourceGraphic" in2="BackgroundImageFix" result="shape"/>
<feColorMatrix in="SourceAlpha" type="matrix" values="0 0 0 0 0 0 0 0 0 0 0 0 0 0 0 0 0 0 127 0" result="hardAlpha"/>
<feOffset dy="-1.3493"/>
<feGaussianBlur stdDeviation="1.3493"/>
<feComposite in2="hardAlpha" operator="arithmetic" k2="-1" k3="1"/>
<feColorMatrix type="matrix" values="0 0 0 0 0 0 0 0 0 0 0 0 0 0 0 0 0 0 0.1 0"/>
<feBlend mode="normal" in2="shape" result="effect1_innerShadow_4206_1950"/>
<feColorMatrix in="SourceAlpha" type="matrix" values="0 0 0 0 0 0 0 0 0 0 0 0 0 0 0 0 0 0 127 0" result="hardAlpha"/>
<feOffset dy="2.6986"/>
<feGaussianBlur stdDeviation="1.3493"/>
<feComposite in2="hardAlpha" operator="arithmetic" k2="-1" k3="1"/>
<feColorMatrix type="matrix" values="0 0 0 0 0 0 0 0 0 0 0 0 0 0 0 0 0 0 0.14 0"/>
<feBlend mode="normal" in2="effect1_innerShadow_4206_1950" result="effect2_innerShadow_4206_1950"/>
</filter>
<filter id="filter26_ii_4206_1950" x="1181" y="321.651" width="303" height="56.0479" filterUnits="userSpaceOnUse" color-interpolation-filters="sRGB">
<feFlood flood-opacity="0" result="BackgroundImageFix"/>
<feBlend mode="normal" in="SourceGraphic" in2="BackgroundImageFix" result="shape"/>
<feColorMatrix in="SourceAlpha" type="matrix" values="0 0 0 0 0 0 0 0 0 0 0 0 0 0 0 0 0 0 127 0" result="hardAlpha"/>
<feOffset dy="-1.3493"/>
<feGaussianBlur stdDeviation="1.3493"/>
<feComposite in2="hardAlpha" operator="arithmetic" k2="-1" k3="1"/>
<feColorMatrix type="matrix" values="0 0 0 0 0 0 0 0 0 0 0 0 0 0 0 0 0 0 0.1 0"/>
<feBlend mode="normal" in2="shape" result="effect1_innerShadow_4206_1950"/>
<feColorMatrix in="SourceAlpha" type="matrix" values="0 0 0 0 0 0 0 0 0 0 0 0 0 0 0 0 0 0 127 0" result="hardAlpha"/>
<feOffset dy="2.6986"/>
<feGaussianBlur stdDeviation="1.3493"/>
<feComposite in2="hardAlpha" operator="arithmetic" k2="-1" k3="1"/>
<feColorMatrix type="matrix" values="0 0 0 0 0 0 0 0 0 0 0 0 0 0 0 0 0 0 0.14 0"/>
<feBlend mode="normal" in2="effect1_innerShadow_4206_1950" result="effect2_innerShadow_4206_1950"/>
</filter>
<filter id="filter27_ii_4206_1950" x="1332" y="271.651" width="151" height="45.0479" filterUnits="userSpaceOnUse" color-interpolation-filters="sRGB">
<feFlood flood-opacity="0" result="BackgroundImageFix"/>
<feBlend mode="normal" in="SourceGraphic" in2="BackgroundImageFix" result="shape"/>
<feColorMatrix in="SourceAlpha" type="matrix" values="0 0 0 0 0 0 0 0 0 0 0 0 0 0 0 0 0 0 127 0" result="hardAlpha"/>
<feOffset dy="-1.3493"/>
<feGaussianBlur stdDeviation="1.3493"/>
<feComposite in2="hardAlpha" operator="arithmetic" k2="-1" k3="1"/>
<feColorMatrix type="matrix" values="0 0 0 0 0 0 0 0 0 0 0 0 0 0 0 0 0 0 0.1 0"/>
<feBlend mode="normal" in2="shape" result="effect1_innerShadow_4206_1950"/>
<feColorMatrix in="SourceAlpha" type="matrix" values="0 0 0 0 0 0 0 0 0 0 0 0 0 0 0 0 0 0 127 0" result="hardAlpha"/>
<feOffset dy="2.6986"/>
<feGaussianBlur stdDeviation="1.3493"/>
<feComposite in2="hardAlpha" operator="arithmetic" k2="-1" k3="1"/>
<feColorMatrix type="matrix" values="0 0 0 0 0 0 0 0 0 0 0 0 0 0 0 0 0 0 0.14 0"/>
<feBlend mode="normal" in2="effect1_innerShadow_4206_1950" result="effect2_innerShadow_4206_1950"/>
</filter>
<filter id="filter28_ii_4206_1950" x="1256" y="292.651" width="209" height="56.0479" filterUnits="userSpaceOnUse" color-interpolation-filters="sRGB">
<feFlood flood-opacity="0" result="BackgroundImageFix"/>
<feBlend mode="normal" in="SourceGraphic" in2="BackgroundImageFix" result="shape"/>
<feColorMatrix in="SourceAlpha" type="matrix" values="0 0 0 0 0 0 0 0 0 0 0 0 0 0 0 0 0 0 127 0" result="hardAlpha"/>
<feOffset dy="-1.3493"/>
<feGaussianBlur stdDeviation="1.3493"/>
<feComposite in2="hardAlpha" operator="arithmetic" k2="-1" k3="1"/>
<feColorMatrix type="matrix" values="0 0 0 0 0 0 0 0 0 0 0 0 0 0 0 0 0 0 0.1 0"/>
<feBlend mode="normal" in2="shape" result="effect1_innerShadow_4206_1950"/>
<feColorMatrix in="SourceAlpha" type="matrix" values="0 0 0 0 0 0 0 0 0 0 0 0 0 0 0 0 0 0 127 0" result="hardAlpha"/>
<feOffset dy="2.6986"/>
<feGaussianBlur stdDeviation="1.3493"/>
<feComposite in2="hardAlpha" operator="arithmetic" k2="-1" k3="1"/>
<feColorMatrix type="matrix" values="0 0 0 0 0 0 0 0 0 0 0 0 0 0 0 0 0 0 0.14 0"/>
<feBlend mode="normal" in2="effect1_innerShadow_4206_1950" result="effect2_innerShadow_4206_1950"/>
</filter>
<filter id="filter29_ii_4206_1950" x="440" y="386.651" width="255" height="69.0479" filterUnits="userSpaceOnUse" color-interpolation-filters="sRGB">
<feFlood flood-opacity="0" result="BackgroundImageFix"/>
<feBlend mode="normal" in="SourceGraphic" in2="BackgroundImageFix" result="shape"/>
<feColorMatrix in="SourceAlpha" type="matrix" values="0 0 0 0 0 0 0 0 0 0 0 0 0 0 0 0 0 0 127 0" result="hardAlpha"/>
<feOffset dy="-1.3493"/>
<feGaussianBlur stdDeviation="1.3493"/>
<feComposite in2="hardAlpha" operator="arithmetic" k2="-1" k3="1"/>
<feColorMatrix type="matrix" values="0 0 0 0 0 0 0 0 0 0 0 0 0 0 0 0 0 0 0.1 0"/>
<feBlend mode="normal" in2="shape" result="effect1_innerShadow_4206_1950"/>
<feColorMatrix in="SourceAlpha" type="matrix" values="0 0 0 0 0 0 0 0 0 0 0 0 0 0 0 0 0 0 127 0" result="hardAlpha"/>
<feOffset dy="2.6986"/>
<feGaussianBlur stdDeviation="1.3493"/>
<feComposite in2="hardAlpha" operator="arithmetic" k2="-1" k3="1"/>
<feColorMatrix type="matrix" values="0 0 0 0 0 0 0 0 0 0 0 0 0 0 0 0 0 0 0.14 0"/>
<feBlend mode="normal" in2="effect1_innerShadow_4206_1950" result="effect2_innerShadow_4206_1950"/>
</filter>
<filter id="filter30_ii_4206_1950" x="40" y="333.651" width="635" height="74.0479" filterUnits="userSpaceOnUse" color-interpolation-filters="sRGB">
<feFlood flood-opacity="0" result="BackgroundImageFix"/>
<feBlend mode="normal" in="SourceGraphic" in2="BackgroundImageFix" result="shape"/>
<feColorMatrix in="SourceAlpha" type="matrix" values="0 0 0 0 0 0 0 0 0 0 0 0 0 0 0 0 0 0 127 0" result="hardAlpha"/>
<feOffset dy="-1.3493"/>
<feGaussianBlur stdDeviation="1.3493"/>
<feComposite in2="hardAlpha" operator="arithmetic" k2="-1" k3="1"/>
<feColorMatrix type="matrix" values="0 0 0 0 0 0 0 0 0 0 0 0 0 0 0 0 0 0 0.1 0"/>
<feBlend mode="normal" in2="shape" result="effect1_innerShadow_4206_1950"/>
<feColorMatrix in="SourceAlpha" type="matrix" values="0 0 0 0 0 0 0 0 0 0 0 0 0 0 0 0 0 0 127 0" result="hardAlpha"/>
<feOffset dy="2.6986"/>
<feGaussianBlur stdDeviation="1.3493"/>
<feComposite in2="hardAlpha" operator="arithmetic" k2="-1" k3="1"/>
<feColorMatrix type="matrix" values="0 0 0 0 0 0 0 0 0 0 0 0 0 0 0 0 0 0 0.14 0"/>
<feBlend mode="normal" in2="effect1_innerShadow_4206_1950" result="effect2_innerShadow_4206_1950"/>
</filter>
<filter id="filter31_ii_4206_1950" x="-8" y="154.651" width="442" height="91.0479" filterUnits="userSpaceOnUse" color-interpolation-filters="sRGB">
<feFlood flood-opacity="0" result="BackgroundImageFix"/>
<feBlend mode="normal" in="SourceGraphic" in2="BackgroundImageFix" result="shape"/>
<feColorMatrix in="SourceAlpha" type="matrix" values="0 0 0 0 0 0 0 0 0 0 0 0 0 0 0 0 0 0 127 0" result="hardAlpha"/>
<feOffset dy="-1.3493"/>
<feGaussianBlur stdDeviation="1.3493"/>
<feComposite in2="hardAlpha" operator="arithmetic" k2="-1" k3="1"/>
<feColorMatrix type="matrix" values="0 0 0 0 0 0 0 0 0 0 0 0 0 0 0 0 0 0 0.1 0"/>
<feBlend mode="normal" in2="shape" result="effect1_innerShadow_4206_1950"/>
<feColorMatrix in="SourceAlpha" type="matrix" values="0 0 0 0 0 0 0 0 0 0 0 0 0 0 0 0 0 0 127 0" result="hardAlpha"/>
<feOffset dy="2.6986"/>
<feGaussianBlur stdDeviation="1.3493"/>
<feComposite in2="hardAlpha" operator="arithmetic" k2="-1" k3="1"/>
<feColorMatrix type="matrix" values="0 0 0 0 0 0 0 0 0 0 0 0 0 0 0 0 0 0 0.14 0"/>
<feBlend mode="normal" in2="effect1_innerShadow_4206_1950" result="effect2_innerShadow_4206_1950"/>
</filter>
<filter id="filter32_ii_4206_1950" x="-17" y="393.651" width="616" height="52.0479" filterUnits="userSpaceOnUse" color-interpolation-filters="sRGB">
<feFlood flood-opacity="0" result="BackgroundImageFix"/>
<feBlend mode="normal" in="SourceGraphic" in2="BackgroundImageFix" result="shape"/>
<feColorMatrix in="SourceAlpha" type="matrix" values="0 0 0 0 0 0 0 0 0 0 0 0 0 0 0 0 0 0 127 0" result="hardAlpha"/>
<feOffset dy="-1.3493"/>
<feGaussianBlur stdDeviation="1.3493"/>
<feComposite in2="hardAlpha" operator="arithmetic" k2="-1" k3="1"/>
<feColorMatrix type="matrix" values="0 0 0 0 0 0 0 0 0 0 0 0 0 0 0 0 0 0 0.1 0"/>
<feBlend mode="normal" in2="shape" result="effect1_innerShadow_4206_1950"/>
<feColorMatrix in="SourceAlpha" type="matrix" values="0 0 0 0 0 0 0 0 0 0 0 0 0 0 0 0 0 0 127 0" result="hardAlpha"/>
<feOffset dy="2.6986"/>
<feGaussianBlur stdDeviation="1.3493"/>
<feComposite in2="hardAlpha" operator="arithmetic" k2="-1" k3="1"/>
<feColorMatrix type="matrix" values="0 0 0 0 0 0 0 0 0 0 0 0 0 0 0 0 0 0 0.14 0"/>
<feBlend mode="normal" in2="effect1_innerShadow_4206_1950" result="effect2_innerShadow_4206_1950"/>
</filter>
<filter id="filter33_ii_4206_1950" x="84" y="200.651" width="526" height="101.048" filterUnits="userSpaceOnUse" color-interpolation-filters="sRGB">
<feFlood flood-opacity="0" result="BackgroundImageFix"/>
<feBlend mode="normal" in="SourceGraphic" in2="BackgroundImageFix" result="shape"/>
<feColorMatrix in="SourceAlpha" type="matrix" values="0 0 0 0 0 0 0 0 0 0 0 0 0 0 0 0 0 0 127 0" result="hardAlpha"/>
<feOffset dy="-1.3493"/>
<feGaussianBlur stdDeviation="1.3493"/>
<feComposite in2="hardAlpha" operator="arithmetic" k2="-1" k3="1"/>
<feColorMatrix type="matrix" values="0 0 0 0 0 0 0 0 0 0 0 0 0 0 0 0 0 0 0.1 0"/>
<feBlend mode="normal" in2="shape" result="effect1_innerShadow_4206_1950"/>
<feColorMatrix in="SourceAlpha" type="matrix" values="0 0 0 0 0 0 0 0 0 0 0 0 0 0 0 0 0 0 127 0" result="hardAlpha"/>
<feOffset dy="2.6986"/>
<feGaussianBlur stdDeviation="1.3493"/>
<feComposite in2="hardAlpha" operator="arithmetic" k2="-1" k3="1"/>
<feColorMatrix type="matrix" values="0 0 0 0 0 0 0 0 0 0 0 0 0 0 0 0 0 0 0.14 0"/>
<feBlend mode="normal" in2="effect1_innerShadow_4206_1950" result="effect2_innerShadow_4206_1950"/>
</filter>
<filter id="filter34_ii_4206_1950" x="-55" y="246.651" width="458" height="128.048" filterUnits="userSpaceOnUse" color-interpolation-filters="sRGB">
<feFlood flood-opacity="0" result="BackgroundImageFix"/>
<feBlend mode="normal" in="SourceGraphic" in2="BackgroundImageFix" result="shape"/>
<feColorMatrix in="SourceAlpha" type="matrix" values="0 0 0 0 0 0 0 0 0 0 0 0 0 0 0 0 0 0 127 0" result="hardAlpha"/>
<feOffset dy="-1.3493"/>
<feGaussianBlur stdDeviation="1.3493"/>
<feComposite in2="hardAlpha" operator="arithmetic" k2="-1" k3="1"/>
<feColorMatrix type="matrix" values="0 0 0 0 0 0 0 0 0 0 0 0 0 0 0 0 0 0 0.1 0"/>
<feBlend mode="normal" in2="shape" result="effect1_innerShadow_4206_1950"/>
<feColorMatrix in="SourceAlpha" type="matrix" values="0 0 0 0 0 0 0 0 0 0 0 0 0 0 0 0 0 0 127 0" result="hardAlpha"/>
<feOffset dy="2.6986"/>
<feGaussianBlur stdDeviation="1.3493"/>
<feComposite in2="hardAlpha" operator="arithmetic" k2="-1" k3="1"/>
<feColorMatrix type="matrix" values="0 0 0 0 0 0 0 0 0 0 0 0 0 0 0 0 0 0 0.14 0"/>
<feBlend mode="normal" in2="effect1_innerShadow_4206_1950" result="effect2_innerShadow_4206_1950"/>
</filter>
<filter id="filter35_ii_4206_1950" x="91" y="264.651" width="246" height="55.0479" filterUnits="userSpaceOnUse" color-interpolation-filters="sRGB">
<feFlood flood-opacity="0" result="BackgroundImageFix"/>
<feBlend mode="normal" in="SourceGraphic" in2="BackgroundImageFix" result="shape"/>
<feColorMatrix in="SourceAlpha" type="matrix" values="0 0 0 0 0 0 0 0 0 0 0 0 0 0 0 0 0 0 127 0" result="hardAlpha"/>
<feOffset dy="-1.3493"/>
<feGaussianBlur stdDeviation="1.3493"/>
<feComposite in2="hardAlpha" operator="arithmetic" k2="-1" k3="1"/>
<feColorMatrix type="matrix" values="0 0 0 0 0 0 0 0 0 0 0 0 0 0 0 0 0 0 0.1 0"/>
<feBlend mode="normal" in2="shape" result="effect1_innerShadow_4206_1950"/>
<feColorMatrix in="SourceAlpha" type="matrix" values="0 0 0 0 0 0 0 0 0 0 0 0 0 0 0 0 0 0 127 0" result="hardAlpha"/>
<feOffset dy="2.6986"/>
<feGaussianBlur stdDeviation="1.3493"/>
<feComposite in2="hardAlpha" operator="arithmetic" k2="-1" k3="1"/>
<feColorMatrix type="matrix" values="0 0 0 0 0 0 0 0 0 0 0 0 0 0 0 0 0 0 0.14 0"/>
<feBlend mode="normal" in2="effect1_innerShadow_4206_1950" result="effect2_innerShadow_4206_1950"/>
</filter>
<filter id="filter36_ii_4206_1950" x="221" y="292.651" width="101" height="50.0479" filterUnits="userSpaceOnUse" color-interpolation-filters="sRGB">
<feFlood flood-opacity="0" result="BackgroundImageFix"/>
<feBlend mode="normal" in="SourceGraphic" in2="BackgroundImageFix" result="shape"/>
<feColorMatrix in="SourceAlpha" type="matrix" values="0 0 0 0 0 0 0 0 0 0 0 0 0 0 0 0 0 0 127 0" result="hardAlpha"/>
<feOffset dy="-1.3493"/>
<feGaussianBlur stdDeviation="1.3493"/>
<feComposite in2="hardAlpha" operator="arithmetic" k2="-1" k3="1"/>
<feColorMatrix type="matrix" values="0 0 0 0 0 0 0 0 0 0 0 0 0 0 0 0 0 0 0.1 0"/>
<feBlend mode="normal" in2="shape" result="effect1_innerShadow_4206_1950"/>
<feColorMatrix in="SourceAlpha" type="matrix" values="0 0 0 0 0 0 0 0 0 0 0 0 0 0 0 0 0 0 127 0" result="hardAlpha"/>
<feOffset dy="2.6986"/>
<feGaussianBlur stdDeviation="1.3493"/>
<feComposite in2="hardAlpha" operator="arithmetic" k2="-1" k3="1"/>
<feColorMatrix type="matrix" values="0 0 0 0 0 0 0 0 0 0 0 0 0 0 0 0 0 0 0.14 0"/>
<feBlend mode="normal" in2="effect1_innerShadow_4206_1950" result="effect2_innerShadow_4206_1950"/>
</filter>
</defs>
</svg>
