<svg width="358" height="374" viewBox="0 0 358 374" fill="none" xmlns="http://www.w3.org/2000/svg">
<path opacity="0.8" d="M-41.7954 442.621L-41.7955 0.825439M2.3841 442.621C17.0139 274.431 18.9777 178.283 2.38408 0.825439M46.5636 442.621C60.9531 271.578 61.854 174.939 46.5636 0.825439M90.7432 442.621L90.7432 0.825439M134.923 442.621L134.923 0.825439M179.102 442.621L179.102 0.825439M223.282 442.621L223.282 0.825439M267.461 442.621V0.825439M311.641 442.621C301.459 272.639 293.146 177.992 311.641 0.825439M355.82 442.621C341.89 271.426 335.665 175.291 355.82 0.825439M400 442.621V0.825439M-42 1.03H399.795M-42 45.2096C130.481 56.4206 227.281 56.7452 399.795 45.2095M-42 89.3891C132.013 104.208 228.849 105.07 399.795 89.3891M-42 133.569C132.036 147.892 228.835 148.948 399.795 133.569M-42 177.748C136.5 203.532 233.569 204.818 399.795 177.748M-42 221.928C130.532 236.732 227.264 237.118 399.795 221.928M-42 266.107C132.058 283.414 228.803 283.564 399.795 266.107M-42 310.287C130.533 303.835 227.264 302.972 399.795 310.287M-42 354.466C126.194 334.303 222.346 331.606 399.795 354.466M-42 398.646L399.795 398.646M-42 442.825L399.795 442.825" stroke="url(#paint0_radial_4572_43848)" stroke-width="0.677914"/>
<defs>
<radialGradient id="paint0_radial_4572_43848" cx="0" cy="0" r="1" gradientUnits="userSpaceOnUse" gradientTransform="translate(179 221.825) rotate(-0.120908) scale(259.867)">
<stop stop-color="#191919"/>
<stop offset="1" stop-color="#E9EBF8" stop-opacity="0"/>
</radialGradient>
</defs>
</svg>
