<svg width="444" height="374" viewBox="0 0 444 374" fill="none" xmlns="http://www.w3.org/2000/svg">
<path opacity="0.8" d="M1.20455 442.795L1.20453 1M45.3841 442.795C60.0139 274.606 61.9777 178.458 45.3841 1M89.5636 442.795C103.953 271.753 104.854 175.114 89.5636 1M133.743 442.795L133.743 1M177.923 442.795L177.923 1M222.102 442.795L222.102 1M266.282 442.795L266.282 1M310.461 442.795V1M354.641 442.795C344.459 272.813 336.146 178.166 354.641 1M398.82 442.795C384.89 271.6 378.665 175.465 398.82 1M443 442.795V1M1 1.20456H442.795M1 45.3841C173.481 56.5951 270.281 56.9197 442.795 45.3841M1 89.5637C175.013 104.382 271.849 105.245 442.795 89.5636M1 133.743C175.036 148.066 271.835 149.122 442.795 133.743M1 177.923C179.5 203.706 276.569 204.993 442.795 177.923M1 222.102C173.532 236.907 270.264 237.293 442.795 222.102M1 266.282C175.058 283.588 271.803 283.738 442.795 266.282M1 310.461C173.533 304.01 270.264 303.146 442.795 310.461M1 354.641C169.194 334.478 265.346 331.781 442.795 354.641M1 398.82L442.795 398.82M1 443L442.795 443" stroke="url(#paint0_radial_4183_1047)" stroke-width="0.677914"/>
<defs>
<radialGradient id="paint0_radial_4183_1047" cx="0" cy="0" r="1" gradientUnits="userSpaceOnUse" gradientTransform="translate(212 244) rotate(-72.6107) scale(242.587)">
<stop stop-color="#AAFF8F"/>
<stop offset="1" stop-color="#E9EBF8" stop-opacity="0"/>
</radialGradient>
</defs>
</svg>
