<svg width="155" height="154" viewBox="0 0 155 154" fill="none" xmlns="http://www.w3.org/2000/svg">
<path id="Vector" opacity="0.8" d="M1.07081 153.649L1.0708 0.719721M16.3637 153.649L16.3637 0.719721M31.6566 153.649L31.6566 0.719721M46.9496 153.649L46.9496 0.719721M62.2425 153.649L62.2425 0.719721M77.5354 153.649L77.5354 0.719721M92.8283 153.649L92.8283 0.719721M108.121 153.649L108.121 0.719721M123.414 153.649L123.414 0.719721M138.707 153.649L138.707 0.719721M154 153.649V0.719721M1 0.790522H153.929M1 16.0835L153.929 16.0834M1 31.3764L153.929 31.3764M1 46.6693L153.929 46.6693M1 61.9622L153.929 61.9622M1 77.2551L153.929 77.2551M1 92.5481L153.929 92.548M1 107.841L153.929 107.841M1 123.134L153.929 123.134M1 138.427L153.929 138.427M1 153.72L153.929 153.72" stroke="url(#paint0_radial_4572_84473)" stroke-width="0.234663"/>
<defs>
<radialGradient id="paint0_radial_4572_84473" cx="0" cy="0" r="1" gradientUnits="userSpaceOnUse" gradientTransform="translate(77.5 77.2197) rotate(-0.120908) scale(89.954)">
<stop stop-color="#191919"/>
<stop offset="1" stop-color="#E9EBF8" stop-opacity="0"/>
</radialGradient>
</defs>
</svg>
