<svg width="1440" height="1109" viewBox="0 0 1440 1109" fill="none" xmlns="http://www.w3.org/2000/svg">
<g opacity="0.3" filter="url(#filter0_f_4448_7315)">
<path d="M943.597 -187.758C940.838 -196.189 932.233 -201.246 923.525 -199.553C914.874 -197.872 908.803 -190.047 909.324 -181.249L932.074 203.067C934.482 243.734 972.162 272.969 1012.15 265.196C1051.91 257.467 1075.9 216.643 1063.31 178.147L943.597 -187.758Z" fill="url(#paint0_linear_4448_7315)"/>
</g>
<g opacity="0.3" filter="url(#filter1_f_4448_7315)">
<path d="M462.731 -187.758C465.49 -196.189 474.095 -201.246 482.803 -199.553C491.454 -197.872 497.525 -190.047 497.004 -181.249L474.254 203.067C471.847 243.734 434.166 272.969 394.176 265.196C354.416 257.467 330.424 216.643 343.019 178.147L462.731 -187.758Z" fill="url(#paint1_linear_4448_7315)"/>
</g>
<g opacity="0.2" filter="url(#filter2_f_4448_7315)">
<path d="M233.688 -190.309C131.936 -176.395 75.5909 -64.9418 124.714 25.2469L554.779 814.827C596.27 891.002 686.427 926.441 768.683 898.908C879.221 861.908 925.423 730.775 862.49 632.658L377.071 -124.152C346.23 -172.235 290.286 -198.048 233.688 -190.309Z" fill="url(#paint2_linear_4448_7315)"/>
</g>
<g opacity="0.4" filter="url(#filter3_f_4448_7315)">
<rect width="100.273" height="1005.65" transform="matrix(0.874619 -0.484809 -0.488017 -0.872834 710.344 865.829)" fill="black"/>
</g>
<defs>
<filter id="filter0_f_4448_7315" x="509.293" y="-599.879" width="957.383" height="1266.33" filterUnits="userSpaceOnUse" color-interpolation-filters="sRGB">
<feFlood flood-opacity="0" result="BackgroundImageFix"/>
<feBlend mode="normal" in="SourceGraphic" in2="BackgroundImageFix" result="shape"/>
<feGaussianBlur stdDeviation="200" result="effect1_foregroundBlur_4448_7315"/>
</filter>
<filter id="filter1_f_4448_7315" x="-60.3477" y="-599.879" width="957.383" height="1266.33" filterUnits="userSpaceOnUse" color-interpolation-filters="sRGB">
<feFlood flood-opacity="0" result="BackgroundImageFix"/>
<feBlend mode="normal" in="SourceGraphic" in2="BackgroundImageFix" result="shape"/>
<feGaussianBlur stdDeviation="200" result="effect1_foregroundBlur_4448_7315"/>
</filter>
<filter id="filter2_f_4448_7315" x="-93.291" y="-391.665" width="1184.18" height="1499.85" filterUnits="userSpaceOnUse" color-interpolation-filters="sRGB">
<feFlood flood-opacity="0" result="BackgroundImageFix"/>
<feBlend mode="normal" in="SourceGraphic" in2="BackgroundImageFix" result="shape"/>
<feGaussianBlur stdDeviation="100" result="effect1_foregroundBlur_4448_7315"/>
</filter>
<filter id="filter3_f_4448_7315" x="126.471" y="-153.65" width="764.671" height="1112.58" filterUnits="userSpaceOnUse" color-interpolation-filters="sRGB">
<feFlood flood-opacity="0" result="BackgroundImageFix"/>
<feBlend mode="normal" in="SourceGraphic" in2="BackgroundImageFix" result="shape"/>
<feGaussianBlur stdDeviation="46.5485" result="effect1_foregroundBlur_4448_7315"/>
</filter>
<linearGradient id="paint0_linear_4448_7315" x1="1020.8" y1="104.608" x2="892.377" y2="197.277" gradientUnits="userSpaceOnUse">
<stop stop-color="white"/>
<stop offset="1" stop-color="#999999"/>
</linearGradient>
<linearGradient id="paint1_linear_4448_7315" x1="385.53" y1="104.608" x2="513.952" y2="197.277" gradientUnits="userSpaceOnUse">
<stop stop-color="white"/>
<stop offset="1" stop-color="#999999"/>
</linearGradient>
<linearGradient id="paint2_linear_4448_7315" x1="837.993" y1="365.501" x2="837.993" y2="580.001" gradientUnits="userSpaceOnUse">
<stop stop-color="white"/>
<stop offset="1" stop-color="white" stop-opacity="0.58"/>
</linearGradient>
</defs>
</svg>
