<svg width="21" height="21" viewBox="0 0 21 21" fill="none" xmlns="http://www.w3.org/2000/svg">
<g id="codicon:terminal-linux" clip-path="url(#clip0_4755_28478)">
<path id="Vector" d="M17.1011 14.7966C17.29 14.8723 17.4529 15.0012 17.5698 15.1678C17.6748 15.3241 17.7486 15.5128 17.7948 15.7341C17.8198 15.8641 17.8498 15.9841 17.8823 16.0966C17.9436 16.3074 18.0358 16.5079 18.1561 16.6916C18.2148 16.7828 18.2936 16.8828 18.3911 16.9941C18.4748 17.0853 18.5498 17.2028 18.6161 17.3453C18.6772 17.4735 18.71 17.6133 18.7123 17.7553C18.7172 17.8918 18.6763 18.026 18.5961 18.1366C18.5145 18.2439 18.4152 18.3365 18.3023 18.4103C18.1523 18.5141 17.9961 18.6053 17.8336 18.6841C17.6711 18.7616 17.5086 18.8428 17.3461 18.9278C17.1031 19.0436 16.8709 19.1808 16.6523 19.3378C16.4573 19.4816 16.2611 19.6628 16.0661 19.8853C15.8388 20.14 15.5756 20.3602 15.2848 20.5391C15.1363 20.6333 14.9751 20.7057 14.8061 20.7541C14.6436 20.7991 14.4811 20.8291 14.3186 20.8416C13.9411 20.8416 13.6286 20.7766 13.3811 20.6466C13.1336 20.5166 12.9186 20.2791 12.7361 19.9341C12.6836 19.8353 12.6323 19.7741 12.5798 19.7478C12.4988 19.7135 12.4134 19.6903 12.3261 19.6791L11.3373 19.6016C11.0123 19.5766 10.6811 19.5628 10.3423 19.5628C10.061 19.5632 9.78012 19.5858 9.50233 19.6303C9.21608 19.6766 8.93233 19.7316 8.65233 19.7966C8.59483 19.8091 8.53608 19.8591 8.47733 19.9428C8.40418 20.0444 8.3222 20.1394 8.23233 20.2266C8.11055 20.3425 7.96865 20.4353 7.81358 20.5003C7.5926 20.5866 7.35705 20.6295 7.11983 20.6266C6.90483 20.6266 6.67358 20.6041 6.42608 20.5591C6.19453 20.5188 5.97063 20.4429 5.76233 20.3341C5.38658 20.1419 4.98552 20.0038 4.57108 19.9241C4.17983 19.8528 3.76733 19.7866 3.33108 19.7291C3.18649 19.7102 3.04296 19.6839 2.90108 19.6503C2.77001 19.6207 2.64656 19.5641 2.53858 19.4841C2.43949 19.4108 2.35688 19.3175 2.29608 19.2103C2.22942 19.0738 2.1956 18.9235 2.19733 18.7716C2.19733 18.5691 2.22358 18.3741 2.27608 18.1853C2.32858 17.9978 2.35733 17.7978 2.36358 17.5903C2.36358 17.4466 2.35358 17.3066 2.33483 17.1703C2.31416 17.0244 2.30081 16.8776 2.29483 16.7303C2.29483 16.3991 2.37358 16.1553 2.52983 15.9978C2.68608 15.8416 2.91358 15.7178 3.21358 15.6266C3.34686 15.5862 3.47237 15.5237 3.58483 15.4416C3.68799 15.3637 3.78572 15.279 3.87733 15.1878C3.97034 15.0944 4.05523 14.9932 4.13108 14.8853C4.20983 14.7741 4.29733 14.6628 4.39483 14.5528C4.41428 14.5278 4.42484 14.497 4.42483 14.4653C4.42483 14.3866 4.42108 14.3116 4.41483 14.2403L4.39483 14.0053C4.39483 13.5628 4.46358 13.1178 4.59983 12.6678C4.73733 12.2178 4.91608 11.7803 5.13733 11.3491C5.35823 10.9204 5.60624 10.5062 5.87983 10.1091C6.15233 9.71281 6.42358 9.34406 6.68983 9.00531C7.05148 8.55256 7.33843 8.0449 7.53983 7.50156C7.72733 6.98156 7.82608 6.41406 7.83233 5.80156C7.83233 5.54281 7.81983 5.28531 7.79358 5.03156C7.76735 4.77198 7.75442 4.51122 7.75483 4.25031C7.75483 3.72906 7.81358 3.26031 7.92983 2.84406C8.04733 2.42656 8.22983 2.06906 8.47733 1.76906C8.72483 1.46906 9.04733 1.24531 9.44358 1.09531C9.84233 0.945312 10.3173 0.864062 10.8698 0.851562C11.5286 0.851562 12.0523 0.981562 12.4436 1.24281C12.8336 1.50281 13.1336 1.84406 13.3411 2.26781C13.5498 2.69031 13.6836 3.16281 13.7411 3.68406C13.8011 4.20406 13.8336 4.73156 13.8398 5.26531V5.43156C13.8398 5.69906 13.8423 5.93656 13.8498 6.14406C13.8615 6.56593 13.9575 6.98119 14.1323 7.36531C14.2236 7.56656 14.3598 7.78531 14.5423 8.01906C14.8548 8.43031 15.1748 8.84406 15.4998 9.26031C15.8248 9.67656 16.1211 10.1066 16.3873 10.5478C16.6548 10.9916 16.8736 11.4541 17.0423 11.9353C17.2123 12.4178 17.2998 12.9378 17.3061 13.4978C17.3078 13.9393 17.2385 14.377 17.1011 14.7966ZM8.90858 4.62156C8.99858 4.62156 9.07358 4.64406 9.13358 4.68906C9.19454 4.73813 9.24153 4.80236 9.26983 4.87531C9.3012 4.95039 9.32385 5.02882 9.33733 5.10906C9.34983 5.18781 9.35733 5.26906 9.35733 5.35406C9.35937 5.40775 9.34911 5.4612 9.32733 5.51031C9.30591 5.55181 9.27612 5.58842 9.23983 5.61781L9.12233 5.71531C9.08044 5.75079 9.04155 5.78967 9.00608 5.83156C8.9592 5.90454 8.89528 5.96503 8.81983 6.00781C8.74242 6.05275 8.66732 6.10156 8.59483 6.15406C8.52559 6.2043 8.46039 6.25989 8.39983 6.32031C8.36956 6.35294 8.34621 6.39136 8.33117 6.43325C8.31613 6.47513 8.30972 6.51963 8.31233 6.56406C8.31233 6.62281 8.34108 6.67156 8.39983 6.71031C8.54559 6.80211 8.6612 6.93468 8.73233 7.09156C8.79733 7.24156 8.86983 7.38781 8.94733 7.53156C9.02483 7.67406 9.12608 7.79406 9.24983 7.89281C9.37358 7.99031 9.56608 8.03906 9.82483 8.03906H9.88483C10.1448 8.02656 10.3923 7.95781 10.6273 7.83406C10.8611 7.71031 11.0961 7.58031 11.3298 7.44281C11.3705 7.41992 11.4132 7.40068 11.4573 7.38531C11.5027 7.36912 11.5453 7.34592 11.5836 7.31656L12.2961 6.76031C12.3085 6.71841 12.3185 6.67584 12.3261 6.63281C12.3337 6.58712 12.3403 6.54128 12.3461 6.49531C12.3483 6.43317 12.3308 6.37192 12.2961 6.32031C12.2641 6.27497 12.2248 6.23526 12.1798 6.20281C12.1298 6.16874 12.0732 6.14572 12.0136 6.13531C11.954 6.12335 11.8955 6.10663 11.8386 6.08531C11.6828 6.05328 11.5338 5.99404 11.3986 5.91031C11.2643 5.82693 11.1198 5.76138 10.9686 5.71531C10.9436 5.70781 10.9236 5.68906 10.9098 5.65656C10.8949 5.61807 10.882 5.57886 10.8711 5.53906C10.8582 5.49785 10.8548 5.45427 10.8611 5.41156C10.8682 5.37883 10.8647 5.34467 10.8511 5.31406C10.8511 5.23656 10.8573 5.15531 10.8711 5.07031C10.8846 4.98426 10.9143 4.90155 10.9586 4.82656C10.9967 4.75711 11.0501 4.69726 11.1148 4.65156C11.1919 4.60659 11.2794 4.58246 11.3686 4.58156C11.5711 4.58156 11.7173 4.65656 11.8086 4.80656C11.8998 4.95656 11.9486 5.11906 11.9548 5.29406C11.9564 5.37185 11.9397 5.44892 11.9061 5.51906C11.8727 5.58579 11.8556 5.65946 11.8561 5.73406C11.8561 5.78656 11.8736 5.82156 11.9061 5.84156C11.9454 5.86315 11.9889 5.87634 12.0336 5.88031C12.1836 5.88031 12.2798 5.84531 12.3261 5.77406C12.3787 5.67481 12.4053 5.56388 12.4036 5.45156C12.4036 5.30156 12.3911 5.13531 12.3661 4.95281C12.3413 4.77625 12.2882 4.60486 12.2086 4.44531C12.1357 4.29548 12.0327 4.16229 11.9061 4.05406C11.7704 3.94629 11.6004 3.89124 11.4273 3.89906C11.0898 3.89906 10.8448 3.98281 10.6948 4.15281C10.5448 4.32156 10.4673 4.57531 10.4611 4.91406C10.4611 5.01156 10.4673 5.10906 10.4798 5.20656C10.4923 5.30531 10.4998 5.40281 10.4998 5.50031C10.4998 5.53281 10.4961 5.54906 10.4898 5.54906C10.4695 5.54465 10.4498 5.53794 10.4311 5.52906C10.3921 5.51327 10.3534 5.49702 10.3148 5.48031C10.267 5.46014 10.2177 5.44383 10.1673 5.43156C10.0843 5.41138 9.99798 5.40798 9.91358 5.42156C9.86175 5.42813 9.80957 5.43147 9.75733 5.43156C9.66608 5.43156 9.61983 5.41531 9.61983 5.38281C9.61983 5.28531 9.61483 5.16156 9.60108 5.01156C9.58858 4.86156 9.55608 4.71156 9.50358 4.56156C9.45993 4.42811 9.394 4.303 9.30858 4.19156C9.22983 4.09406 9.11358 4.04156 8.95733 4.03531C8.85237 4.03289 8.75059 4.07145 8.67358 4.14281C8.59334 4.21705 8.52429 4.30252 8.46858 4.39656C8.40868 4.49812 8.37197 4.61166 8.36108 4.72906C8.35059 4.83352 8.33767 4.93771 8.32233 5.04156C8.32734 5.21402 8.3568 5.38489 8.40983 5.54906C8.44233 5.65281 8.47858 5.74406 8.51733 5.82281C8.55608 5.90031 8.60233 5.93906 8.65483 5.93906C8.68608 5.93906 8.72983 5.91656 8.78108 5.87156C8.83358 5.82531 8.85983 5.78406 8.85983 5.74406C8.85983 5.72406 8.84983 5.71156 8.82983 5.70531C8.81092 5.6988 8.79108 5.69543 8.77108 5.69531C8.72608 5.69531 8.68608 5.67281 8.65358 5.62656C8.62008 5.57864 8.59396 5.52598 8.57608 5.47031C8.55557 5.40895 8.53598 5.34727 8.51733 5.28531C8.4784 5.11666 8.50287 4.93958 8.58608 4.78781C8.64483 4.68281 8.75233 4.62781 8.90858 4.62156ZM6.77858 19.8266C6.93483 19.8266 7.08858 19.8141 7.23858 19.7866C7.38707 19.761 7.5295 19.708 7.65858 19.6303C7.78236 19.5587 7.88366 19.4539 7.95108 19.3278C8.0222 19.1814 8.0622 19.0218 8.06858 18.8591C8.06859 18.7428 8.04872 18.6274 8.00983 18.5178C7.97011 18.406 7.91409 18.3007 7.84358 18.2053C7.76643 18.083 7.68168 17.9657 7.58983 17.8541C7.49793 17.742 7.41318 17.6243 7.33608 17.5016C7.21451 17.3229 7.09367 17.1437 6.97358 16.9641C6.85733 16.7891 6.73983 16.6041 6.62358 16.4078C6.5208 16.2415 6.42284 16.0723 6.32983 15.9003C6.23425 15.7248 6.12297 15.5583 5.99733 15.4028C5.91799 15.3037 5.82643 15.2151 5.72483 15.1391C5.62045 15.0606 5.49287 15.0193 5.36233 15.0216C5.22615 15.0196 5.09415 15.0686 4.99233 15.1591C4.87596 15.2605 4.7681 15.3713 4.66983 15.4903C4.55457 15.6254 4.43055 15.7528 4.29858 15.8716C4.16108 15.9953 3.98608 16.0928 3.77108 16.1641C3.62558 16.2031 3.49175 16.2769 3.38108 16.3791C3.28983 16.4703 3.24358 16.6103 3.24358 16.7991C3.24358 16.9291 3.25358 17.0591 3.27358 17.1891C3.29233 17.3191 3.30608 17.4503 3.31233 17.5803C3.31233 17.7553 3.28733 17.9216 3.23358 18.0778C3.18316 18.2255 3.15698 18.3805 3.15608 18.5366C3.15608 18.7128 3.21858 18.8366 3.34108 18.9078C3.46608 18.9803 3.60483 19.0291 3.76108 19.0541C3.95733 19.0878 4.14233 19.1128 4.31858 19.1328C4.49358 19.1528 4.66608 19.1828 4.83608 19.2203C5.00483 19.2603 5.17358 19.3016 5.34358 19.3478C5.51233 19.3928 5.69233 19.4653 5.88108 19.5628C5.91858 19.5816 5.97858 19.6053 6.05608 19.6303L6.31983 19.7178C6.41733 19.7516 6.50858 19.7778 6.59358 19.7966C6.65407 19.8128 6.71606 19.8228 6.77858 19.8266ZM10.3536 18.6541C10.5361 18.6541 10.7311 18.6353 10.9398 18.5953C11.3648 18.5157 11.7759 18.3742 12.1598 18.1753C12.3386 18.0842 12.5085 17.9766 12.6673 17.8541C12.6831 17.8363 12.6966 17.8165 12.7073 17.7953C12.7198 17.7702 12.7294 17.7438 12.7361 17.7166V17.7066C12.7748 17.5641 12.8073 17.4066 12.8336 17.2378C12.8607 17.0659 12.8836 16.8933 12.9023 16.7203C12.9212 16.5473 12.9442 16.3748 12.9711 16.2028C12.9961 16.0341 13.0198 15.8678 13.0386 15.7053C13.0648 15.5303 13.0973 15.3603 13.1361 15.1978C13.1761 15.0353 13.2273 14.8816 13.2923 14.7378C13.3566 14.5963 13.4459 14.4675 13.5561 14.3578C13.6843 14.2343 13.829 14.1291 13.9861 14.0453V14.0253L13.9761 13.9966C13.9783 13.9303 13.9986 13.8659 14.0348 13.8103C14.0786 13.7386 14.1275 13.67 14.1811 13.6053C14.2331 13.5396 14.2961 13.4833 14.3673 13.4391C14.4324 13.4001 14.501 13.3674 14.5723 13.3416C14.5329 13.1845 14.4904 13.0282 14.4448 12.8728C14.3996 12.7182 14.3604 12.5618 14.3273 12.4041C14.2953 12.2045 14.2566 12.006 14.2111 11.8091C14.1749 11.6563 14.1289 11.506 14.0736 11.3591C14.0176 11.2159 13.9419 11.0812 13.8486 10.9591C13.7523 10.8291 13.6311 10.6716 13.4886 10.4903C13.4341 10.4295 13.3848 10.3643 13.3411 10.2953C13.3071 10.2178 13.2876 10.1348 13.2836 10.0503C13.268 9.96485 13.2484 9.88017 13.2248 9.79656C13.137 9.48001 13.0361 9.16723 12.9223 8.85906C12.8623 8.69451 12.7904 8.53451 12.7073 8.38031C12.6409 8.25684 12.5692 8.13631 12.4923 8.01906C12.4273 7.92156 12.3586 7.87281 12.2873 7.87281C12.1311 7.87281 11.9448 7.93531 11.7298 8.05906C11.5161 8.18281 11.2873 8.31906 11.0473 8.46906C10.8061 8.61906 10.5723 8.75906 10.3436 8.88906C10.1161 9.01906 9.91108 9.08031 9.72858 9.07406C9.53382 9.07393 9.34466 9.00883 9.19108 8.88906C9.02554 8.76293 8.8746 8.6187 8.74108 8.45906C8.60483 8.29656 8.49108 8.15656 8.39983 8.03906C8.30858 7.92156 8.24108 7.85656 8.19483 7.84406C8.14358 7.84406 8.11358 7.88281 8.10733 7.96031C8.10037 8.04805 8.09703 8.13605 8.09733 8.22406V8.39031C8.09733 8.43031 8.09108 8.45531 8.07733 8.46906C8.00608 8.61906 7.92733 8.76531 7.84358 8.90781C7.75858 9.05156 7.67483 9.19781 7.58983 9.34781C7.42145 9.63607 7.32738 9.96167 7.31608 10.2953C7.31608 10.3928 7.32233 10.4903 7.33608 10.5878C7.34858 10.6853 7.38108 10.7803 7.43358 10.8716L7.41358 10.9091C7.36339 10.9787 7.3078 11.0444 7.24733 11.1053C7.18574 11.1681 7.13047 11.2367 7.08233 11.3103C6.84323 11.6635 6.67081 12.0575 6.57358 12.4728C6.47608 12.8891 6.42358 13.3128 6.41733 13.7416C6.41733 13.8528 6.42483 13.9641 6.43733 14.0741C6.44983 14.1853 6.45733 14.2953 6.45733 14.4066C6.45695 14.4426 6.4536 14.4786 6.44733 14.5141C6.44105 14.5496 6.4377 14.5855 6.43733 14.6216C6.57627 14.6372 6.70995 14.6838 6.82858 14.7578C6.97858 14.8428 7.14108 14.9503 7.31608 15.0803C7.49108 15.2103 7.65858 15.3603 7.81483 15.5303C7.97108 15.6991 8.11983 15.8641 8.26358 16.0278C8.40733 16.1903 8.51108 16.3528 8.57608 16.5153C8.64108 16.6778 8.68358 16.8116 8.70233 16.9153C8.70569 16.9909 8.69356 17.0664 8.66669 17.1371C8.63982 17.2078 8.59878 17.2723 8.54608 17.3266C8.43398 17.4359 8.30146 17.5221 8.15608 17.5803C8.26733 17.7753 8.40358 17.9416 8.56608 18.0778C8.72858 18.2153 8.90483 18.3253 9.09358 18.4103C9.28233 18.4953 9.48733 18.5566 9.70858 18.5953C9.92983 18.6353 10.1461 18.6541 10.3536 18.6541ZM14.2698 20.0416C14.4061 20.0416 14.5398 20.0216 14.6698 19.9828C14.8668 19.9263 15.0543 19.8408 15.2261 19.7291C15.3961 19.6178 15.5511 19.4816 15.6948 19.3178C16.0344 18.926 16.4498 18.6071 16.9161 18.3803L17.2386 18.2341C17.3492 18.1858 17.4565 18.1303 17.5598 18.0678C17.6344 18.0206 17.7036 17.9652 17.7661 17.9028C17.7975 17.8724 17.8224 17.8358 17.8392 17.7954C17.856 17.755 17.8643 17.7116 17.8636 17.6678C17.8637 17.6175 17.8534 17.5678 17.8336 17.5216C17.8103 17.4695 17.7809 17.4205 17.7461 17.3753C17.657 17.2513 17.5723 17.1241 17.4923 16.9941C17.4199 16.8758 17.3576 16.7516 17.3061 16.6228L17.1498 16.2328C17.0935 16.0896 17.0475 15.9426 17.0123 15.7928C16.9988 15.7465 16.9758 15.7035 16.9448 15.6666C16.882 15.5726 16.7962 15.4963 16.6955 15.4449C16.5949 15.3935 16.4828 15.3687 16.3698 15.3728C16.2532 15.3724 16.1386 15.4026 16.0373 15.4603L15.7048 15.6466C15.5891 15.7108 15.472 15.7724 15.3536 15.8316C15.2384 15.8895 15.1112 15.9195 14.9823 15.9191C14.8671 15.9241 14.7535 15.8902 14.6598 15.8228C14.57 15.7514 14.4966 15.6615 14.4448 15.5591C14.3893 15.4548 14.3404 15.3471 14.2986 15.2366L14.1811 14.9141C14.1302 14.9977 14.0716 15.0763 14.0061 15.1491C13.9392 15.2236 13.8862 15.3095 13.8498 15.4028C13.7648 15.5978 13.7123 15.8153 13.6936 16.0566C13.6611 16.4341 13.6186 16.8016 13.5661 17.1603C13.5126 17.5261 13.4247 17.886 13.3036 18.2353C13.269 18.347 13.2427 18.461 13.2248 18.5766C13.2054 18.6962 13.1921 18.8168 13.1848 18.9378C13.1848 19.2566 13.2836 19.5203 13.4786 19.7291C13.6736 19.9366 13.9373 20.0416 14.2698 20.0416Z" fill="white"/>
</g>
<defs>
<clipPath id="clip0_4755_28478">
<rect width="20" height="20" fill="white" transform="translate(0.5 0.851562)"/>
</clipPath>
</defs>
</svg>
