<svg width="615" height="403" viewBox="0 0 615 403" fill="none" xmlns="http://www.w3.org/2000/svg">
<g opacity="0.1">
<mask id="path-1-inside-1_4107_863" fill="white">
<path fill-rule="evenodd" clip-rule="evenodd" d="M445.238 -291V-250.524H526.19V-210.048H445.238V-169.571H526.19V-129.095H485.714V-88.619H526.19V-7.66669H485.714V32.8095H607.143V73.2857H647.619V32.8095H850V73.2857H728.571V113.762H850V154.238H809.524V194.714H850V235.19H647.619V194.714H728.571V113.762H688.095V73.2857H647.619V154.238H566.667V113.762H485.714V32.8095H445.238V-7.66669H404.762V-48.1429H364.286V-7.66669H323.81V-48.1429H364.286V-88.619H323.81V-291H445.238ZM404.762 -250.524V-210.048H364.286V-250.524H404.762ZM445.238 -169.571V-88.619H485.714V-7.66669H445.238V-48.1429H404.762V-88.619H364.286V-169.571H445.238ZM404.762 32.8095V113.762H364.286V154.238H445.238V194.714H364.286V275.667H404.762V235.19H445.238V275.667H485.714V154.238H526.19V194.714H607.143V235.19H526.19V316.143H364.286V275.667H323.81V356.619H283.333V437.571H323.81V397.095H364.286V356.619H404.762V397.095H364.286V518.524H445.238V559H364.286V518.524H283.333V559H242.857V518.524H202.381V559H161.905V518.524H80.9524V559H40.4762V518.524H80.9524V397.095H121.429V437.571H161.905V397.095H202.381V316.143H242.857V275.667H161.905V235.19H121.429V316.143H161.905V356.619H40.4762V397.095H0V316.143H40.4762V275.667H0V194.714H40.4762V113.762H0V73.2857H40.4762V32.8095H80.9524V73.2857H121.429V32.8095H161.905V73.2857H202.381V32.8095H242.857V73.2857H202.381V113.762H161.905V73.2857H121.429V113.762H80.9524V154.238H202.381V235.19H242.857V194.714H283.333V154.238H242.857V113.762H283.333V154.238H323.81V73.2857H283.333V32.8095H323.81V73.2857H364.286V32.8095H404.762ZM607.143 73.2857V113.762H566.667V73.2857H607.143ZM323.81 194.714V235.19H283.333V275.667H242.857V235.19H283.333V194.714H323.81ZM121.429 194.714V235.19H80.9524V275.667H40.4762V194.714H121.429ZM283.333 316.143V356.619H242.857V316.143H283.333ZM526.19 356.619V559H485.714V397.095H445.238V356.619H526.19ZM283.333 437.571V518.524H242.857V437.571H283.333ZM202.381 437.571V478.048H161.905V437.571H202.381ZM850 -291V-7.66669H566.667V-291H850ZM809.524 -250.524V-48.1429H607.143V-250.524H809.524ZM769.048 -210.048V-88.619H647.619V-210.048H769.048ZM283.333 -291V-7.66669H0V-291H283.333ZM242.857 -250.524V-48.1429H40.4762V-250.524H242.857ZM202.381 -210.048V-88.619H80.9524V-210.048H202.381ZM850 275.667V559H566.667V275.667H850ZM809.524 316.143V518.524H607.143V316.143H809.524ZM769.048 356.619V478.048H647.619V356.619H769.048Z"/>
</mask>
<path fill-rule="evenodd" clip-rule="evenodd" d="M445.238 -291V-250.524H526.19V-210.048H445.238V-169.571H526.19V-129.095H485.714V-88.619H526.19V-7.66669H485.714V32.8095H607.143V73.2857H647.619V32.8095H850V73.2857H728.571V113.762H850V154.238H809.524V194.714H850V235.19H647.619V194.714H728.571V113.762H688.095V73.2857H647.619V154.238H566.667V113.762H485.714V32.8095H445.238V-7.66669H404.762V-48.1429H364.286V-7.66669H323.81V-48.1429H364.286V-88.619H323.81V-291H445.238ZM404.762 -250.524V-210.048H364.286V-250.524H404.762ZM445.238 -169.571V-88.619H485.714V-7.66669H445.238V-48.1429H404.762V-88.619H364.286V-169.571H445.238ZM404.762 32.8095V113.762H364.286V154.238H445.238V194.714H364.286V275.667H404.762V235.19H445.238V275.667H485.714V154.238H526.19V194.714H607.143V235.19H526.19V316.143H364.286V275.667H323.81V356.619H283.333V437.571H323.81V397.095H364.286V356.619H404.762V397.095H364.286V518.524H445.238V559H364.286V518.524H283.333V559H242.857V518.524H202.381V559H161.905V518.524H80.9524V559H40.4762V518.524H80.9524V397.095H121.429V437.571H161.905V397.095H202.381V316.143H242.857V275.667H161.905V235.19H121.429V316.143H161.905V356.619H40.4762V397.095H0V316.143H40.4762V275.667H0V194.714H40.4762V113.762H0V73.2857H40.4762V32.8095H80.9524V73.2857H121.429V32.8095H161.905V73.2857H202.381V32.8095H242.857V73.2857H202.381V113.762H161.905V73.2857H121.429V113.762H80.9524V154.238H202.381V235.19H242.857V194.714H283.333V154.238H242.857V113.762H283.333V154.238H323.81V73.2857H283.333V32.8095H323.81V73.2857H364.286V32.8095H404.762ZM607.143 73.2857V113.762H566.667V73.2857H607.143ZM323.81 194.714V235.19H283.333V275.667H242.857V235.19H283.333V194.714H323.81ZM121.429 194.714V235.19H80.9524V275.667H40.4762V194.714H121.429ZM283.333 316.143V356.619H242.857V316.143H283.333ZM526.19 356.619V559H485.714V397.095H445.238V356.619H526.19ZM283.333 437.571V518.524H242.857V437.571H283.333ZM202.381 437.571V478.048H161.905V437.571H202.381ZM850 -291V-7.66669H566.667V-291H850ZM809.524 -250.524V-48.1429H607.143V-250.524H809.524ZM769.048 -210.048V-88.619H647.619V-210.048H769.048ZM283.333 -291V-7.66669H0V-291H283.333ZM242.857 -250.524V-48.1429H40.4762V-250.524H242.857ZM202.381 -210.048V-88.619H80.9524V-210.048H202.381ZM850 275.667V559H566.667V275.667H850ZM809.524 316.143V518.524H607.143V316.143H809.524ZM769.048 356.619V478.048H647.619V356.619H769.048Z" fill="url(#paint0_radial_4107_863)" fill-opacity="0.02"/>
<path d="M445.238 -291V-292H446.238V-291H445.238ZM445.238 -250.524V-249.524H444.238V-250.524H445.238ZM526.19 -250.524V-251.524H527.19V-250.524H526.19ZM526.19 -210.048H527.19V-209.048H526.19V-210.048ZM445.238 -210.048H444.238V-211.048H445.238V-210.048ZM526.19 -169.571V-170.571H527.19V-169.571H526.19ZM526.19 -129.095H527.19V-128.095H526.19V-129.095ZM485.714 -129.095H484.714V-130.095H485.714V-129.095ZM526.19 -88.619V-89.619H527.19V-88.619H526.19ZM526.19 -7.66669H527.19V-6.66669H526.19V-7.66669ZM607.143 32.8095V31.8095H608.143V32.8095H607.143ZM647.619 32.8095H646.619V31.8095H647.619V32.8095ZM850 32.8095V31.8095H851V32.8095H850ZM850 73.2857H851V74.2857H850V73.2857ZM728.571 73.2857H727.571V72.2857H728.571V73.2857ZM850 113.762V112.762H851V113.762H850ZM850 154.238H851V155.238H850V154.238ZM809.524 154.238H808.524V153.238H809.524V154.238ZM809.524 194.714V195.714H808.524V194.714H809.524ZM850 194.714V193.714H851V194.714H850ZM850 235.19H851V236.19H850V235.19ZM647.619 235.19V236.19H646.619V235.19H647.619ZM647.619 194.714H646.619V193.714H647.619V194.714ZM728.571 194.714H729.571V195.714H728.571V194.714ZM688.095 113.762V114.762H687.095V113.762H688.095ZM688.095 73.2857V72.2857H689.095V73.2857H688.095ZM647.619 154.238H648.619V155.238H647.619V154.238ZM566.667 154.238V155.238H565.667V154.238H566.667ZM485.714 113.762V114.762H484.714V113.762H485.714ZM445.238 32.8095V33.8095H444.238V32.8095H445.238ZM404.762 -7.66669V-6.66669H403.762V-7.66669H404.762ZM364.286 -7.66669H365.286V-6.66669H364.286V-7.66669ZM323.81 -7.66669V-6.66669H322.81V-7.66669H323.81ZM323.81 -48.1429H322.81V-49.1429H323.81V-48.1429ZM323.81 -88.619V-87.619H322.81V-88.619H323.81ZM323.81 -291H322.81V-292H323.81V-291ZM404.762 -250.524V-251.524H405.762V-250.524H404.762ZM404.762 -210.048H405.762V-209.048H404.762V-210.048ZM364.286 -210.048V-209.048H363.286V-210.048H364.286ZM364.286 -250.524H363.286V-251.524H364.286V-250.524ZM445.238 -88.619V-87.619H444.238V-88.619H445.238ZM445.238 -48.1429V-49.1429H446.238V-48.1429H445.238ZM404.762 -88.619V-89.619H405.762V-88.619H404.762ZM364.286 -169.571H363.286V-170.571H364.286V-169.571ZM404.762 32.8095V31.8095H405.762V32.8095H404.762ZM404.762 113.762H405.762V114.762H404.762V113.762ZM364.286 113.762H363.286V112.762H364.286V113.762ZM364.286 154.238V155.238H363.286V154.238H364.286ZM445.238 154.238V153.238H446.238V154.238H445.238ZM445.238 194.714H446.238V195.714H445.238V194.714ZM364.286 194.714H363.286V193.714H364.286V194.714ZM404.762 275.667H405.762V276.667H404.762V275.667ZM404.762 235.19H403.762V234.19H404.762V235.19ZM445.238 235.19V234.19H446.238V235.19H445.238ZM445.238 275.667V276.667H444.238V275.667H445.238ZM485.714 275.667H486.714V276.667H485.714V275.667ZM485.714 154.238H484.714V153.238H485.714V154.238ZM526.19 154.238V153.238H527.19V154.238H526.19ZM526.19 194.714V195.714H525.19V194.714H526.19ZM607.143 194.714V193.714H608.143V194.714H607.143ZM607.143 235.19H608.143V236.19H607.143V235.19ZM526.19 235.19H525.19V234.19H526.19V235.19ZM526.19 316.143H527.19V317.143H526.19V316.143ZM364.286 316.143V317.143H363.286V316.143H364.286ZM323.81 275.667H322.81V274.667H323.81V275.667ZM323.81 356.619H324.81V357.619H323.81V356.619ZM323.81 437.571H324.81V438.571H323.81V437.571ZM323.81 397.095H322.81V396.095H323.81V397.095ZM364.286 356.619H363.286V355.619H364.286V356.619ZM404.762 356.619V355.619H405.762V356.619H404.762ZM404.762 397.095H405.762V398.095H404.762V397.095ZM445.238 518.524V517.524H446.238V518.524H445.238ZM445.238 559H446.238V560H445.238V559ZM364.286 559V560H363.286V559H364.286ZM283.333 559H284.333V560H283.333V559ZM242.857 559V560H241.857V559H242.857ZM202.381 518.524H201.381V517.524H202.381V518.524ZM202.381 559H203.381V560H202.381V559ZM161.905 559V560H160.905V559H161.905ZM161.905 518.524V517.524H162.905V518.524H161.905ZM80.9524 559H81.9524V560H80.9524V559ZM40.4762 559V560H39.4762V559H40.4762ZM40.4762 518.524H39.4762V517.524H40.4762V518.524ZM80.9524 397.095H79.9524V396.095H80.9524V397.095ZM121.429 397.095V396.095H122.429V397.095H121.429ZM121.429 437.571V438.571H120.429V437.571H121.429ZM161.905 397.095H160.905V396.095H161.905V397.095ZM202.381 397.095H203.381V398.095H202.381V397.095ZM202.381 316.143H201.381V315.143H202.381V316.143ZM161.905 275.667V276.667H160.905V275.667H161.905ZM161.905 235.19V234.19H162.905V235.19H161.905ZM121.429 316.143V317.143H120.429V316.143H121.429ZM161.905 316.143V315.143H162.905V316.143H161.905ZM161.905 356.619H162.905V357.619H161.905V356.619ZM40.4762 356.619H39.4762V355.619H40.4762V356.619ZM40.4762 397.095H41.4762V398.095H40.4762V397.095ZM0 397.095V398.095H-1V397.095H0ZM0 316.143H-1V315.143H0V316.143ZM40.4762 316.143H41.4762V317.143H40.4762V316.143ZM0 275.667V276.667H-1V275.667H0ZM0 194.714H-1V193.714H0V194.714ZM40.4762 113.762V112.762H41.4762V113.762H40.4762ZM0 113.762V114.762H-1V113.762H0ZM0 73.2857H-1V72.2857H0V73.2857ZM40.4762 73.2857H41.4762V74.2857H40.4762V73.2857ZM40.4762 32.8095H39.4762V31.8095H40.4762V32.8095ZM80.9524 32.8095V31.8095H81.9524V32.8095H80.9524ZM80.9524 73.2857V74.2857H79.9524V73.2857H80.9524ZM121.429 32.8095H120.429V31.8095H121.429V32.8095ZM161.905 32.8095V31.8095H162.905V32.8095H161.905ZM202.381 32.8095H201.381V31.8095H202.381V32.8095ZM242.857 32.8095V31.8095H243.857V32.8095H242.857ZM242.857 73.2857H243.857V74.2857H242.857V73.2857ZM202.381 113.762H203.381V114.762H202.381V113.762ZM161.905 113.762V114.762H160.905V113.762H161.905ZM121.429 113.762H122.429V114.762H121.429V113.762ZM80.9524 113.762H79.9524V112.762H80.9524V113.762ZM80.9524 154.238V155.238H79.9524V154.238H80.9524ZM202.381 154.238V153.238H203.381V154.238H202.381ZM202.381 235.19V236.19H201.381V235.19H202.381ZM242.857 194.714H241.857V193.714H242.857V194.714ZM242.857 154.238V155.238H241.857V154.238H242.857ZM242.857 113.762H241.857V112.762H242.857V113.762ZM283.333 113.762V112.762H284.333V113.762H283.333ZM323.81 154.238H324.81V155.238H323.81V154.238ZM283.333 73.2857V74.2857H282.333V73.2857H283.333ZM283.333 32.8095H282.333V31.8095H283.333V32.8095ZM323.81 32.8095V31.8095H324.81V32.8095H323.81ZM364.286 73.2857H365.286V74.2857H364.286V73.2857ZM364.286 32.8095H363.286V31.8095H364.286V32.8095ZM607.143 113.762H608.143V114.762H607.143V113.762ZM566.667 73.2857H565.667V72.2857H566.667V73.2857ZM323.81 194.714V193.714H324.81V194.714H323.81ZM323.81 235.19H324.81V236.19H323.81V235.19ZM283.333 275.667H284.333V276.667H283.333V275.667ZM121.429 194.714V193.714H122.429V194.714H121.429ZM80.9524 235.19H79.9524V234.19H80.9524V235.19ZM80.9524 275.667H81.9524V276.667H80.9524V275.667ZM283.333 316.143V315.143H284.333V316.143H283.333ZM242.857 356.619V357.619H241.857V356.619H242.857ZM526.19 356.619V355.619H527.19V356.619H526.19ZM526.19 559H527.19V560H526.19V559ZM485.714 559V560H484.714V559H485.714ZM485.714 397.095V396.095H486.714V397.095H485.714ZM445.238 397.095V398.095H444.238V397.095H445.238ZM445.238 356.619H444.238V355.619H445.238V356.619ZM242.857 437.571H241.857V436.571H242.857V437.571ZM202.381 437.571V436.571H203.381V437.571H202.381ZM202.381 478.048H203.381V479.048H202.381V478.048ZM161.905 478.048V479.048H160.905V478.048H161.905ZM850 -291V-292H851V-291H850ZM850 -7.66669H851V-6.66669H850V-7.66669ZM566.667 -7.66669V-6.66669H565.667V-7.66669H566.667ZM566.667 -291H565.667V-292H566.667V-291ZM809.524 -250.524V-251.524H810.524V-250.524H809.524ZM809.524 -48.1429H810.524V-47.1429H809.524V-48.1429ZM607.143 -48.1429V-47.1429H606.143V-48.1429H607.143ZM607.143 -250.524H606.143V-251.524H607.143V-250.524ZM769.048 -210.048V-211.048H770.048V-210.048H769.048ZM769.048 -88.619H770.048V-87.619H769.048V-88.619ZM647.619 -88.619V-87.619H646.619V-88.619H647.619ZM647.619 -210.048H646.619V-211.048H647.619V-210.048ZM283.333 -291V-292H284.333V-291H283.333ZM283.333 -7.66669H284.333V-6.66669H283.333V-7.66669ZM0 -7.66669V-6.66669H-1V-7.66669H0ZM0 -291H-1V-292H0V-291ZM242.857 -250.524V-251.524H243.857V-250.524H242.857ZM242.857 -48.1429H243.857V-47.1429H242.857V-48.1429ZM40.4762 -48.1429V-47.1429H39.4762V-48.1429H40.4762ZM40.4762 -250.524H39.4762V-251.524H40.4762V-250.524ZM202.381 -210.048V-211.048H203.381V-210.048H202.381ZM202.381 -88.619H203.381V-87.619H202.381V-88.619ZM80.9524 -88.619V-87.619H79.9524V-88.619H80.9524ZM80.9524 -210.048H79.9524V-211.048H80.9524V-210.048ZM850 275.667V274.667H851V275.667H850ZM850 559H851V560H850V559ZM566.667 559V560H565.667V559H566.667ZM566.667 275.667H565.667V274.667H566.667V275.667ZM809.524 316.143V315.143H810.524V316.143H809.524ZM809.524 518.524H810.524V519.524H809.524V518.524ZM607.143 518.524V519.524H606.143V518.524H607.143ZM607.143 316.143H606.143V315.143H607.143V316.143ZM769.048 356.619V355.619H770.048V356.619H769.048ZM769.048 478.048H770.048V479.048H769.048V478.048ZM647.619 478.048V479.048H646.619V478.048H647.619ZM647.619 356.619H646.619V355.619H647.619V356.619ZM446.238 -291V-250.524H444.238V-291H446.238ZM445.238 -251.524H526.19V-249.524H445.238V-251.524ZM527.19 -250.524V-210.048H525.19V-250.524H527.19ZM526.19 -209.048H445.238V-211.048H526.19V-209.048ZM446.238 -210.048V-169.571H444.238V-210.048H446.238ZM445.238 -170.571H526.19V-168.571H445.238V-170.571ZM527.19 -169.571V-129.095H525.19V-169.571H527.19ZM526.19 -128.095H485.714V-130.095H526.19V-128.095ZM486.714 -129.095V-88.619H484.714V-129.095H486.714ZM485.714 -89.619H526.19V-87.619H485.714V-89.619ZM527.19 -88.619V-7.66669H525.19V-88.619H527.19ZM526.19 -6.66669H485.714V-8.66669H526.19V-6.66669ZM486.714 -7.66669V32.8095H484.714V-7.66669H486.714ZM485.714 31.8095H607.143V33.8095H485.714V31.8095ZM608.143 32.8095V73.2857H606.143V32.8095H608.143ZM607.143 72.2857H647.619V74.2857H607.143V72.2857ZM646.619 73.2857V32.8095H648.619V73.2857H646.619ZM647.619 31.8095H850V33.8095H647.619V31.8095ZM851 32.8095V73.2857H849V32.8095H851ZM850 74.2857H728.571V72.2857H850V74.2857ZM729.571 73.2857V113.762H727.571V73.2857H729.571ZM728.571 112.762H850V114.762H728.571V112.762ZM851 113.762V154.238H849V113.762H851ZM850 155.238H809.524V153.238H850V155.238ZM810.524 154.238V194.714H808.524V154.238H810.524ZM809.524 193.714H850V195.714H809.524V193.714ZM851 194.714V235.19H849V194.714H851ZM850 236.19H647.619V234.19H850V236.19ZM646.619 235.19V194.714H648.619V235.19H646.619ZM647.619 193.714H728.571V195.714H647.619V193.714ZM727.571 194.714V113.762H729.571V194.714H727.571ZM728.571 114.762H688.095V112.762H728.571V114.762ZM687.095 113.762V73.2857H689.095V113.762H687.095ZM688.095 74.2857H647.619V72.2857H688.095V74.2857ZM648.619 73.2857V154.238H646.619V73.2857H648.619ZM647.619 155.238H566.667V153.238H647.619V155.238ZM565.667 154.238V113.762H567.667V154.238H565.667ZM566.667 114.762H485.714V112.762H566.667V114.762ZM484.714 113.762V32.8095H486.714V113.762H484.714ZM485.714 33.8095H445.238V31.8095H485.714V33.8095ZM444.238 32.8095V-7.66669H446.238V32.8095H444.238ZM445.238 -6.66669H404.762V-8.66669H445.238V-6.66669ZM403.762 -7.66669V-48.1429H405.762V-7.66669H403.762ZM404.762 -47.1429H364.286V-49.1429H404.762V-47.1429ZM365.286 -48.1429V-7.66669H363.286V-48.1429H365.286ZM364.286 -6.66669H323.81V-8.66669H364.286V-6.66669ZM322.81 -7.66669V-48.1429H324.81V-7.66669H322.81ZM323.81 -49.1429H364.286V-47.1429H323.81V-49.1429ZM363.286 -48.1429V-88.619H365.286V-48.1429H363.286ZM364.286 -87.619H323.81V-89.619H364.286V-87.619ZM322.81 -88.619V-291H324.81V-88.619H322.81ZM323.81 -292H445.238V-290H323.81V-292ZM405.762 -250.524V-210.048H403.762V-250.524H405.762ZM404.762 -209.048H364.286V-211.048H404.762V-209.048ZM363.286 -210.048V-250.524H365.286V-210.048H363.286ZM364.286 -251.524H404.762V-249.524H364.286V-251.524ZM446.238 -169.571V-88.619H444.238V-169.571H446.238ZM445.238 -89.619H485.714V-87.619H445.238V-89.619ZM486.714 -88.619V-7.66669H484.714V-88.619H486.714ZM485.714 -6.66669H445.238V-8.66669H485.714V-6.66669ZM444.238 -7.66669V-48.1429H446.238V-7.66669H444.238ZM445.238 -47.1429H404.762V-49.1429H445.238V-47.1429ZM403.762 -48.1429V-88.619H405.762V-48.1429H403.762ZM404.762 -87.619H364.286V-89.619H404.762V-87.619ZM363.286 -88.619V-169.571H365.286V-88.619H363.286ZM364.286 -170.571H445.238V-168.571H364.286V-170.571ZM405.762 32.8095V113.762H403.762V32.8095H405.762ZM404.762 114.762H364.286V112.762H404.762V114.762ZM365.286 113.762V154.238H363.286V113.762H365.286ZM364.286 153.238H445.238V155.238H364.286V153.238ZM446.238 154.238V194.714H444.238V154.238H446.238ZM445.238 195.714H364.286V193.714H445.238V195.714ZM365.286 194.714V275.667H363.286V194.714H365.286ZM364.286 274.667H404.762V276.667H364.286V274.667ZM403.762 275.667V235.19H405.762V275.667H403.762ZM404.762 234.19H445.238V236.19H404.762V234.19ZM446.238 235.19V275.667H444.238V235.19H446.238ZM445.238 274.667H485.714V276.667H445.238V274.667ZM484.714 275.667V154.238H486.714V275.667H484.714ZM485.714 153.238H526.19V155.238H485.714V153.238ZM527.19 154.238V194.714H525.19V154.238H527.19ZM526.19 193.714H607.143V195.714H526.19V193.714ZM608.143 194.714V235.19H606.143V194.714H608.143ZM607.143 236.19H526.19V234.19H607.143V236.19ZM527.19 235.19V316.143H525.19V235.19H527.19ZM526.19 317.143H364.286V315.143H526.19V317.143ZM363.286 316.143V275.667H365.286V316.143H363.286ZM364.286 276.667H323.81V274.667H364.286V276.667ZM324.81 275.667V356.619H322.81V275.667H324.81ZM323.81 357.619H283.333V355.619H323.81V357.619ZM284.333 356.619V437.571H282.333V356.619H284.333ZM283.333 436.571H323.81V438.571H283.333V436.571ZM322.81 437.571V397.095H324.81V437.571H322.81ZM323.81 396.095H364.286V398.095H323.81V396.095ZM363.286 397.095V356.619H365.286V397.095H363.286ZM364.286 355.619H404.762V357.619H364.286V355.619ZM405.762 356.619V397.095H403.762V356.619H405.762ZM404.762 398.095H364.286V396.095H404.762V398.095ZM365.286 397.095V518.524H363.286V397.095H365.286ZM364.286 517.524H445.238V519.524H364.286V517.524ZM446.238 518.524V559H444.238V518.524H446.238ZM445.238 560H364.286V558H445.238V560ZM363.286 559V518.524H365.286V559H363.286ZM364.286 519.524H283.333V517.524H364.286V519.524ZM284.333 518.524V559H282.333V518.524H284.333ZM283.333 560H242.857V558H283.333V560ZM241.857 559V518.524H243.857V559H241.857ZM242.857 519.524H202.381V517.524H242.857V519.524ZM203.381 518.524V559H201.381V518.524H203.381ZM202.381 560H161.905V558H202.381V560ZM160.905 559V518.524H162.905V559H160.905ZM161.905 519.524H80.9524V517.524H161.905V519.524ZM81.9524 518.524V559H79.9524V518.524H81.9524ZM80.9524 560H40.4762V558H80.9524V560ZM39.4762 559V518.524H41.4762V559H39.4762ZM40.4762 517.524H80.9524V519.524H40.4762V517.524ZM79.9524 518.524V397.095H81.9524V518.524H79.9524ZM80.9524 396.095H121.429V398.095H80.9524V396.095ZM122.429 397.095V437.571H120.429V397.095H122.429ZM121.429 436.571H161.905V438.571H121.429V436.571ZM160.905 437.571V397.095H162.905V437.571H160.905ZM161.905 396.095H202.381V398.095H161.905V396.095ZM201.381 397.095V316.143H203.381V397.095H201.381ZM202.381 315.143H242.857V317.143H202.381V315.143ZM241.857 316.143V275.667H243.857V316.143H241.857ZM242.857 276.667H161.905V274.667H242.857V276.667ZM160.905 275.667V235.19H162.905V275.667H160.905ZM161.905 236.19H121.429V234.19H161.905V236.19ZM122.429 235.19V316.143H120.429V235.19H122.429ZM121.429 315.143H161.905V317.143H121.429V315.143ZM162.905 316.143V356.619H160.905V316.143H162.905ZM161.905 357.619H40.4762V355.619H161.905V357.619ZM41.4762 356.619V397.095H39.4762V356.619H41.4762ZM40.4762 398.095H0V396.095H40.4762V398.095ZM-1 397.095V316.143H1V397.095H-1ZM0 315.143H40.4762V317.143H0V315.143ZM39.4762 316.143V275.667H41.4762V316.143H39.4762ZM40.4762 276.667H0V274.667H40.4762V276.667ZM-1 275.667V194.714H1V275.667H-1ZM0 193.714H40.4762V195.714H0V193.714ZM39.4762 194.714V113.762H41.4762V194.714H39.4762ZM40.4762 114.762H0V112.762H40.4762V114.762ZM-1 113.762V73.2857H1V113.762H-1ZM0 72.2857H40.4762V74.2857H0V72.2857ZM39.4762 73.2857V32.8095H41.4762V73.2857H39.4762ZM40.4762 31.8095H80.9524V33.8095H40.4762V31.8095ZM81.9524 32.8095V73.2857H79.9524V32.8095H81.9524ZM80.9524 72.2857H121.429V74.2857H80.9524V72.2857ZM120.429 73.2857V32.8095H122.429V73.2857H120.429ZM121.429 31.8095H161.905V33.8095H121.429V31.8095ZM162.905 32.8095V73.2857H160.905V32.8095H162.905ZM161.905 72.2857H202.381V74.2857H161.905V72.2857ZM201.381 73.2857V32.8095H203.381V73.2857H201.381ZM202.381 31.8095H242.857V33.8095H202.381V31.8095ZM243.857 32.8095V73.2857H241.857V32.8095H243.857ZM242.857 74.2857H202.381V72.2857H242.857V74.2857ZM203.381 73.2857V113.762H201.381V73.2857H203.381ZM202.381 114.762H161.905V112.762H202.381V114.762ZM160.905 113.762V73.2857H162.905V113.762H160.905ZM161.905 74.2857H121.429V72.2857H161.905V74.2857ZM122.429 73.2857V113.762H120.429V73.2857H122.429ZM121.429 114.762H80.9524V112.762H121.429V114.762ZM81.9524 113.762V154.238H79.9524V113.762H81.9524ZM80.9524 153.238H202.381V155.238H80.9524V153.238ZM203.381 154.238V235.19H201.381V154.238H203.381ZM202.381 234.19H242.857V236.19H202.381V234.19ZM241.857 235.19V194.714H243.857V235.19H241.857ZM242.857 193.714H283.333V195.714H242.857V193.714ZM282.333 194.714V154.238H284.333V194.714H282.333ZM283.333 155.238H242.857V153.238H283.333V155.238ZM241.857 154.238V113.762H243.857V154.238H241.857ZM242.857 112.762H283.333V114.762H242.857V112.762ZM284.333 113.762V154.238H282.333V113.762H284.333ZM283.333 153.238H323.81V155.238H283.333V153.238ZM322.81 154.238V73.2857H324.81V154.238H322.81ZM323.81 74.2857H283.333V72.2857H323.81V74.2857ZM282.333 73.2857V32.8095H284.333V73.2857H282.333ZM283.333 31.8095H323.81V33.8095H283.333V31.8095ZM324.81 32.8095V73.2857H322.81V32.8095H324.81ZM323.81 72.2857H364.286V74.2857H323.81V72.2857ZM363.286 73.2857V32.8095H365.286V73.2857H363.286ZM364.286 31.8095H404.762V33.8095H364.286V31.8095ZM608.143 73.2857V113.762H606.143V73.2857H608.143ZM607.143 114.762H566.667V112.762H607.143V114.762ZM565.667 113.762V73.2857H567.667V113.762H565.667ZM566.667 72.2857H607.143V74.2857H566.667V72.2857ZM324.81 194.714V235.19H322.81V194.714H324.81ZM323.81 236.19H283.333V234.19H323.81V236.19ZM284.333 235.19V275.667H282.333V235.19H284.333ZM283.333 276.667H242.857V274.667H283.333V276.667ZM241.857 275.667V235.19H243.857V275.667H241.857ZM242.857 234.19H283.333V236.19H242.857V234.19ZM282.333 235.19V194.714H284.333V235.19H282.333ZM283.333 193.714H323.81V195.714H283.333V193.714ZM122.429 194.714V235.19H120.429V194.714H122.429ZM121.429 236.19H80.9524V234.19H121.429V236.19ZM81.9524 235.19V275.667H79.9524V235.19H81.9524ZM80.9524 276.667H40.4762V274.667H80.9524V276.667ZM39.4762 275.667V194.714H41.4762V275.667H39.4762ZM40.4762 193.714H121.429V195.714H40.4762V193.714ZM284.333 316.143V356.619H282.333V316.143H284.333ZM283.333 357.619H242.857V355.619H283.333V357.619ZM241.857 356.619V316.143H243.857V356.619H241.857ZM242.857 315.143H283.333V317.143H242.857V315.143ZM527.19 356.619V559H525.19V356.619H527.19ZM526.19 560H485.714V558H526.19V560ZM484.714 559V397.095H486.714V559H484.714ZM485.714 398.095H445.238V396.095H485.714V398.095ZM444.238 397.095V356.619H446.238V397.095H444.238ZM445.238 355.619H526.19V357.619H445.238V355.619ZM284.333 437.571V518.524H282.333V437.571H284.333ZM283.333 519.524H242.857V517.524H283.333V519.524ZM241.857 518.524V437.571H243.857V518.524H241.857ZM242.857 436.571H283.333V438.571H242.857V436.571ZM203.381 437.571V478.048H201.381V437.571H203.381ZM202.381 479.048H161.905V477.048H202.381V479.048ZM160.905 478.048V437.571H162.905V478.048H160.905ZM161.905 436.571H202.381V438.571H161.905V436.571ZM851 -291V-7.66669H849V-291H851ZM850 -6.66669H566.667V-8.66669H850V-6.66669ZM565.667 -7.66669V-291H567.667V-7.66669H565.667ZM566.667 -292H850V-290H566.667V-292ZM810.524 -250.524V-48.1429H808.524V-250.524H810.524ZM809.524 -47.1429H607.143V-49.1429H809.524V-47.1429ZM606.143 -48.1429V-250.524H608.143V-48.1429H606.143ZM607.143 -251.524H809.524V-249.524H607.143V-251.524ZM770.048 -210.048V-88.619H768.048V-210.048H770.048ZM769.048 -87.619H647.619V-89.619H769.048V-87.619ZM646.619 -88.619V-210.048H648.619V-88.619H646.619ZM647.619 -211.048H769.048V-209.048H647.619V-211.048ZM284.333 -291V-7.66669H282.333V-291H284.333ZM283.333 -6.66669H0V-8.66669H283.333V-6.66669ZM-1 -7.66669V-291H1V-7.66669H-1ZM0 -292H283.333V-290H0V-292ZM243.857 -250.524V-48.1429H241.857V-250.524H243.857ZM242.857 -47.1429H40.4762V-49.1429H242.857V-47.1429ZM39.4762 -48.1429V-250.524H41.4762V-48.1429H39.4762ZM40.4762 -251.524H242.857V-249.524H40.4762V-251.524ZM203.381 -210.048V-88.619H201.381V-210.048H203.381ZM202.381 -87.619H80.9524V-89.619H202.381V-87.619ZM79.9524 -88.619V-210.048H81.9524V-88.619H79.9524ZM80.9524 -211.048H202.381V-209.048H80.9524V-211.048ZM851 275.667V559H849V275.667H851ZM850 560H566.667V558H850V560ZM565.667 559V275.667H567.667V559H565.667ZM566.667 274.667H850V276.667H566.667V274.667ZM810.524 316.143V518.524H808.524V316.143H810.524ZM809.524 519.524H607.143V517.524H809.524V519.524ZM606.143 518.524V316.143H608.143V518.524H606.143ZM607.143 315.143H809.524V317.143H607.143V315.143ZM770.048 356.619V478.048H768.048V356.619H770.048ZM769.048 479.048H647.619V477.048H769.048V479.048ZM646.619 478.048V356.619H648.619V478.048H646.619ZM647.619 355.619H769.048V357.619H647.619V355.619Z" fill="url(#paint1_radial_4107_863)" mask="url(#path-1-inside-1_4107_863)"/>
</g>
<defs>
<radialGradient id="paint0_radial_4107_863" cx="0" cy="0" r="1" gradientUnits="userSpaceOnUse" gradientTransform="translate(425 134) rotate(90) scale(248.517)">
<stop stop-color="#D9D9D9"/>
<stop offset="1" stop-color="#737373"/>
</radialGradient>
<radialGradient id="paint1_radial_4107_863" cx="0" cy="0" r="1" gradientUnits="userSpaceOnUse" gradientTransform="translate(425 3.43858) rotate(90) scale(416.896)">
<stop stop-color="#F8F8F7"/>
<stop offset="1" stop-color="#030303" stop-opacity="0"/>
</radialGradient>
</defs>
</svg>
