<svg width="358" height="351" viewBox="0 0 358 351" fill="none" xmlns="http://www.w3.org/2000/svg">
<mask id="path-1-inside-1_4572_43928" fill="white">
<path fill-rule="evenodd" clip-rule="evenodd" d="M167.629 0.825439V21.3137H126.652V41.802H167.629V62.2903H126.652V82.7786H147.141V103.267H126.652V144.243H147.141V164.732H85.6758V185.22H65.1875V164.732H-37.2539V185.22H24.2109V205.708H-37.2539V226.197H-16.7656V246.685H-37.2539V267.173H65.1875V246.685H24.2109V205.708H44.6992V185.22H65.1875V226.197H106.164V205.708H147.141V164.732H167.629V144.243H188.117V123.755H208.605V144.243H229.094V123.755H208.605V103.267H229.094V0.825439H167.629ZM188.117 21.3137V41.802H208.605V21.3137H188.117ZM167.629 62.2903V103.267H147.141V144.243H167.629V123.755H188.117V103.267H208.605V62.2903H167.629ZM188.117 164.732V205.708H208.605V226.197H167.629V246.685H208.605V287.661H188.117V267.173H167.629V287.661H147.141V226.197H126.652V246.685H85.6758V267.173H126.652V308.15H208.605V287.661H229.094V328.638H249.582V369.615H229.094V349.126H208.605V328.638H188.117V349.126H208.605V410.591H167.629V431.079H208.605V410.591H249.582V431.079H270.07V410.591H290.559V431.079H311.047V410.591H352.023V431.079H372.512V410.591H352.023V349.126H331.535V369.615H311.047V349.126H290.559V308.15H270.07V287.661H311.047V267.173H331.535V308.15H311.047V328.638H372.512V349.126H393V308.15H372.512V287.661H393V246.685H372.512V205.708H393V185.22H372.512V164.732H352.023V185.22H331.535V164.732H311.047V185.22H290.559V164.732H270.07V185.22H290.559V205.708H311.047V185.22H331.535V205.708H352.023V226.197H290.559V267.173H270.07V246.685H249.582V226.197H270.07V205.708H249.582V226.197H229.094V185.22H249.582V164.732H229.094V185.22H208.605V164.732H188.117ZM85.6758 185.22V205.708H106.164V185.22H85.6758ZM229.094 246.685V267.173H249.582V287.661H270.07V267.173H249.582V246.685H229.094ZM331.535 246.685V267.173H352.023V287.661H372.512V246.685H331.535ZM249.582 308.15V328.638H270.07V308.15H249.582ZM126.652 328.638V431.079H147.141V349.126H167.629V328.638H126.652ZM249.582 369.615V410.591H270.07V369.615H249.582ZM290.559 369.615V390.103H311.047V369.615H290.559ZM-37.2539 0.825439V144.243H106.164V0.825439H-37.2539ZM-16.7656 21.3137V123.755H85.6758V21.3137H-16.7656ZM3.72266 41.802V103.267H65.1875V41.802H3.72266ZM249.582 0.825439V144.243H393V0.825439H249.582ZM270.07 21.3137V123.755H372.512V21.3137H270.07ZM290.559 41.802V103.267H352.023V41.802H290.559ZM-37.2539 287.661V431.079H106.164V287.661H-37.2539ZM-16.7656 308.15V410.591H85.6758V308.15H-16.7656ZM3.72266 328.638V390.103H65.1875V328.638H3.72266Z"/>
</mask>
<path fill-rule="evenodd" clip-rule="evenodd" d="M167.629 0.825439V21.3137H126.652V41.802H167.629V62.2903H126.652V82.7786H147.141V103.267H126.652V144.243H147.141V164.732H85.6758V185.22H65.1875V164.732H-37.2539V185.22H24.2109V205.708H-37.2539V226.197H-16.7656V246.685H-37.2539V267.173H65.1875V246.685H24.2109V205.708H44.6992V185.22H65.1875V226.197H106.164V205.708H147.141V164.732H167.629V144.243H188.117V123.755H208.605V144.243H229.094V123.755H208.605V103.267H229.094V0.825439H167.629ZM188.117 21.3137V41.802H208.605V21.3137H188.117ZM167.629 62.2903V103.267H147.141V144.243H167.629V123.755H188.117V103.267H208.605V62.2903H167.629ZM188.117 164.732V205.708H208.605V226.197H167.629V246.685H208.605V287.661H188.117V267.173H167.629V287.661H147.141V226.197H126.652V246.685H85.6758V267.173H126.652V308.15H208.605V287.661H229.094V328.638H249.582V369.615H229.094V349.126H208.605V328.638H188.117V349.126H208.605V410.591H167.629V431.079H208.605V410.591H249.582V431.079H270.07V410.591H290.559V431.079H311.047V410.591H352.023V431.079H372.512V410.591H352.023V349.126H331.535V369.615H311.047V349.126H290.559V308.15H270.07V287.661H311.047V267.173H331.535V308.15H311.047V328.638H372.512V349.126H393V308.15H372.512V287.661H393V246.685H372.512V205.708H393V185.22H372.512V164.732H352.023V185.22H331.535V164.732H311.047V185.22H290.559V164.732H270.07V185.22H290.559V205.708H311.047V185.22H331.535V205.708H352.023V226.197H290.559V267.173H270.07V246.685H249.582V226.197H270.07V205.708H249.582V226.197H229.094V185.22H249.582V164.732H229.094V185.22H208.605V164.732H188.117ZM85.6758 185.22V205.708H106.164V185.22H85.6758ZM229.094 246.685V267.173H249.582V287.661H270.07V267.173H249.582V246.685H229.094ZM331.535 246.685V267.173H352.023V287.661H372.512V246.685H331.535ZM249.582 308.15V328.638H270.07V308.15H249.582ZM126.652 328.638V431.079H147.141V349.126H167.629V328.638H126.652ZM249.582 369.615V410.591H270.07V369.615H249.582ZM290.559 369.615V390.103H311.047V369.615H290.559ZM-37.2539 0.825439V144.243H106.164V0.825439H-37.2539ZM-16.7656 21.3137V123.755H85.6758V21.3137H-16.7656ZM3.72266 41.802V103.267H65.1875V41.802H3.72266ZM249.582 0.825439V144.243H393V0.825439H249.582ZM270.07 21.3137V123.755H372.512V21.3137H270.07ZM290.559 41.802V103.267H352.023V41.802H290.559ZM-37.2539 287.661V431.079H106.164V287.661H-37.2539ZM-16.7656 308.15V410.591H85.6758V308.15H-16.7656ZM3.72266 328.638V390.103H65.1875V328.638H3.72266Z" fill="url(#paint0_radial_4572_43928)" fill-opacity="0.02"/>
<path d="M167.629 0.825439V-0.0861155H166.717V0.825439H167.629ZM167.629 21.3137V22.2253H168.54V21.3137H167.629ZM126.652 21.3137V20.4022H125.741V21.3137H126.652ZM126.652 41.802H125.741V42.7136H126.652V41.802ZM167.629 41.802H168.54V40.8904H167.629V41.802ZM126.652 62.2903V61.3787H125.741V62.2903H126.652ZM126.652 82.7786H125.741V83.6901H126.652V82.7786ZM147.141 82.7786H148.052V81.867H147.141V82.7786ZM126.652 103.267V102.355H125.741V103.267H126.652ZM126.652 144.243H125.741V145.155H126.652V144.243ZM85.6758 164.732V163.82H84.7642V164.732H85.6758ZM65.1875 164.732H66.0991V163.82H65.1875V164.732ZM-37.2539 164.732V163.82H-38.1655V164.732H-37.2539ZM-37.2539 185.22H-38.1655V186.132H-37.2539V185.22ZM24.2109 185.22H25.1225V184.308H24.2109V185.22ZM-37.2539 205.708V204.797H-38.1655V205.708H-37.2539ZM-37.2539 226.197H-38.1655V227.108H-37.2539V226.197ZM-16.7656 226.197H-15.8541V225.285H-16.7656V226.197ZM-16.7656 246.685V247.596H-15.8541V246.685H-16.7656ZM-37.2539 246.685V245.773H-38.1655V246.685H-37.2539ZM-37.2539 267.173H-38.1655V268.085H-37.2539V267.173ZM65.1875 267.173V268.085H66.0991V267.173H65.1875ZM65.1875 246.685H66.0991V245.773H65.1875V246.685ZM24.2109 246.685H23.2994V247.596H24.2109V246.685ZM44.6992 205.708V206.62H45.6108V205.708H44.6992ZM44.6992 185.22V184.308H43.7877V185.22H44.6992ZM65.1875 226.197H64.2759V227.108H65.1875V226.197ZM106.164 226.197V227.108H107.076V226.197H106.164ZM147.141 205.708V206.62H148.052V205.708H147.141ZM167.629 164.732V165.643H168.54V164.732H167.629ZM188.117 144.243V145.155H189.029V144.243H188.117ZM208.605 144.243H207.694V145.155H208.605V144.243ZM229.094 144.243V145.155H230.005V144.243H229.094ZM229.094 123.755H230.005V122.844H229.094V123.755ZM229.094 103.267V104.178H230.005V103.267H229.094ZM229.094 0.825439H230.005V-0.0861155H229.094V0.825439ZM188.117 21.3137V20.4022H187.206V21.3137H188.117ZM188.117 41.802H187.206V42.7136H188.117V41.802ZM208.605 41.802V42.7136H209.517V41.802H208.605ZM208.605 21.3137H209.517V20.4022H208.605V21.3137ZM167.629 103.267V104.178H168.54V103.267H167.629ZM167.629 123.755V122.844H166.717V123.755H167.629ZM188.117 103.267V102.355H187.206V103.267H188.117ZM208.605 62.2903H209.517V61.3787H208.605V62.2903ZM188.117 164.732V163.82H187.206V164.732H188.117ZM188.117 205.708H187.206V206.62H188.117V205.708ZM208.605 205.708H209.517V204.797H208.605V205.708ZM208.605 226.197V227.108H209.517V226.197H208.605ZM167.629 226.197V225.285H166.717V226.197H167.629ZM167.629 246.685H166.717V247.596H167.629V246.685ZM208.605 246.685H209.517V245.773H208.605V246.685ZM188.117 287.661H187.206V288.573H188.117V287.661ZM188.117 267.173H189.029V266.262H188.117V267.173ZM167.629 267.173V266.262H166.717V267.173H167.629ZM167.629 287.661V288.573H168.54V287.661H167.629ZM147.141 287.661H146.229V288.573H147.141V287.661ZM147.141 226.197H148.052V225.285H147.141V226.197ZM126.652 226.197V225.285H125.741V226.197H126.652ZM126.652 246.685V247.596H127.564V246.685H126.652ZM85.6758 246.685V245.773H84.7642V246.685H85.6758ZM85.6758 267.173H84.7642V268.085H85.6758V267.173ZM126.652 267.173H127.564V266.262H126.652V267.173ZM126.652 308.15H125.741V309.061H126.652V308.15ZM208.605 308.15V309.061H209.517V308.15H208.605ZM229.094 287.661H230.005V286.75H229.094V287.661ZM229.094 328.638H228.182V329.549H229.094V328.638ZM229.094 369.615H228.182V370.526H229.094V369.615ZM229.094 349.126H230.005V348.215H229.094V349.126ZM208.605 328.638H209.517V327.726H208.605V328.638ZM188.117 328.638V327.726H187.206V328.638H188.117ZM188.117 349.126H187.206V350.038H188.117V349.126ZM167.629 410.591V409.68H166.717V410.591H167.629ZM167.629 431.079H166.717V431.991H167.629V431.079ZM208.605 431.079V431.991H209.517V431.079H208.605ZM249.582 431.079H248.67V431.991H249.582V431.079ZM270.07 431.079V431.991H270.982V431.079H270.07ZM290.559 410.591H291.47V409.68H290.559V410.591ZM290.559 431.079H289.647V431.991H290.559V431.079ZM311.047 431.079V431.991H311.958V431.079H311.047ZM311.047 410.591V409.68H310.135V410.591H311.047ZM352.023 431.079H351.112V431.991H352.023V431.079ZM372.512 431.079V431.991H373.423V431.079H372.512ZM372.512 410.591H373.423V409.68H372.512V410.591ZM352.023 349.126H352.935V348.215H352.023V349.126ZM331.535 349.126V348.215H330.624V349.126H331.535ZM331.535 369.615V370.526H332.447V369.615H331.535ZM311.047 349.126H311.958V348.215H311.047V349.126ZM290.559 349.126H289.647V350.038H290.559V349.126ZM290.559 308.15H291.47V307.238H290.559V308.15ZM311.047 287.661V288.573H311.958V287.661H311.047ZM311.047 267.173V266.262H310.135V267.173H311.047ZM331.535 308.15V309.061H332.447V308.15H331.535ZM311.047 308.15V307.238H310.135V308.15H311.047ZM311.047 328.638H310.135V329.549H311.047V328.638ZM372.512 328.638H373.423V327.726H372.512V328.638ZM372.512 349.126H371.6V350.038H372.512V349.126ZM393 349.126V350.038H393.912V349.126H393ZM393 308.15H393.912V307.238H393V308.15ZM372.512 308.15H371.6V309.061H372.512V308.15ZM393 287.661V288.573H393.912V287.661H393ZM393 246.685H393.912V245.773H393V246.685ZM372.512 205.708V204.797H371.6V205.708H372.512ZM393 205.708V206.62H393.912V205.708H393ZM393 185.22H393.912V184.308H393V185.22ZM372.512 185.22H371.6V186.132H372.512V185.22ZM372.512 164.732H373.423V163.82H372.512V164.732ZM352.023 164.732V163.82H351.112V164.732H352.023ZM352.023 185.22V186.132H352.935V185.22H352.023ZM331.535 164.732H332.447V163.82H331.535V164.732ZM311.047 164.732V163.82H310.135V164.732H311.047ZM290.559 164.732H291.47V163.82H290.559V164.732ZM270.07 164.732V163.82H269.159V164.732H270.07ZM270.07 185.22H269.159V186.132H270.07V185.22ZM290.559 205.708H289.647V206.62H290.559V205.708ZM311.047 205.708V206.62H311.958V205.708H311.047ZM331.535 205.708H330.624V206.62H331.535V205.708ZM352.023 205.708H352.935V204.797H352.023V205.708ZM352.023 226.197V227.108H352.935V226.197H352.023ZM290.559 226.197V225.285H289.647V226.197H290.559ZM290.559 267.173V268.085H291.47V267.173H290.559ZM270.07 246.685H270.982V245.773H270.07V246.685ZM270.07 226.197V227.108H270.982V226.197H270.07ZM270.07 205.708H270.982V204.797H270.07V205.708ZM249.582 205.708V204.797H248.67V205.708H249.582ZM229.094 226.197H228.182V227.108H229.094V226.197ZM249.582 185.22V186.132H250.494V185.22H249.582ZM249.582 164.732H250.494V163.82H249.582V164.732ZM229.094 164.732V163.82H228.182V164.732H229.094ZM208.605 185.22H207.694V186.132H208.605V185.22ZM208.605 164.732H209.517V163.82H208.605V164.732ZM85.6758 205.708H84.7642V206.62H85.6758V205.708ZM106.164 185.22H107.076V184.308H106.164V185.22ZM229.094 246.685V245.773H228.182V246.685H229.094ZM229.094 267.173H228.182V268.085H229.094V267.173ZM249.582 287.661H248.67V288.573H249.582V287.661ZM331.535 246.685V245.773H330.624V246.685H331.535ZM352.023 267.173H352.935V266.262H352.023V267.173ZM352.023 287.661H351.112V288.573H352.023V287.661ZM249.582 308.15V307.238H248.67V308.15H249.582ZM270.07 328.638V329.549H270.982V328.638H270.07ZM126.652 328.638V327.726H125.741V328.638H126.652ZM126.652 431.079H125.741V431.991H126.652V431.079ZM147.141 431.079V431.991H148.052V431.079H147.141ZM147.141 349.126V348.215H146.229V349.126H147.141ZM167.629 349.126V350.038H168.54V349.126H167.629ZM167.629 328.638H168.54V327.726H167.629V328.638ZM270.07 369.615H270.982V368.703H270.07V369.615ZM290.559 369.615V368.703H289.647V369.615H290.559ZM290.559 390.103H289.647V391.014H290.559V390.103ZM311.047 390.103V391.014H311.958V390.103H311.047ZM-37.2539 0.825439V-0.0861155H-38.1655V0.825439H-37.2539ZM-37.2539 144.243H-38.1655V145.155H-37.2539V144.243ZM106.164 144.243V145.155H107.076V144.243H106.164ZM106.164 0.825439H107.076V-0.0861155H106.164V0.825439ZM-16.7656 21.3137V20.4022H-17.6772V21.3137H-16.7656ZM-16.7656 123.755H-17.6772V124.667H-16.7656V123.755ZM85.6758 123.755V124.667H86.5873V123.755H85.6758ZM85.6758 21.3137H86.5873V20.4022H85.6758V21.3137ZM3.72266 41.802V40.8904H2.8111V41.802H3.72266ZM3.72266 103.267H2.8111V104.178H3.72266V103.267ZM65.1875 103.267V104.178H66.0991V103.267H65.1875ZM65.1875 41.802H66.0991V40.8904H65.1875V41.802ZM249.582 0.825439V-0.0861155H248.67V0.825439H249.582ZM249.582 144.243H248.67V145.155H249.582V144.243ZM393 144.243V145.155H393.912V144.243H393ZM393 0.825439H393.912V-0.0861155H393V0.825439ZM270.07 21.3137V20.4022H269.159V21.3137H270.07ZM270.07 123.755H269.159V124.667H270.07V123.755ZM372.512 123.755V124.667H373.423V123.755H372.512ZM372.512 21.3137H373.423V20.4022H372.512V21.3137ZM290.559 41.802V40.8904H289.647V41.802H290.559ZM290.559 103.267H289.647V104.178H290.559V103.267ZM352.023 103.267V104.178H352.935V103.267H352.023ZM352.023 41.802H352.935V40.8904H352.023V41.802ZM-37.2539 287.661V286.75H-38.1655V287.661H-37.2539ZM-37.2539 431.079H-38.1655V431.991H-37.2539V431.079ZM106.164 431.079V431.991H107.076V431.079H106.164ZM106.164 287.661H107.076V286.75H106.164V287.661ZM-16.7656 308.15V307.238H-17.6772V308.15H-16.7656ZM-16.7656 410.591H-17.6772V411.503H-16.7656V410.591ZM85.6758 410.591V411.503H86.5873V410.591H85.6758ZM85.6758 308.15H86.5873V307.238H85.6758V308.15ZM3.72266 328.638V327.726H2.8111V328.638H3.72266ZM3.72266 390.103H2.8111V391.014H3.72266V390.103ZM65.1875 390.103V391.014H66.0991V390.103H65.1875ZM65.1875 328.638H66.0991V327.726H65.1875V328.638ZM166.717 0.825439V21.3137H168.54V0.825439H166.717ZM167.629 20.4022H126.652V22.2253H167.629V20.4022ZM125.741 21.3137V41.802H127.564V21.3137H125.741ZM126.652 42.7136H167.629V40.8904H126.652V42.7136ZM166.717 41.802V62.2903H168.54V41.802H166.717ZM167.629 61.3787H126.652V63.2018H167.629V61.3787ZM125.741 62.2903V82.7786H127.564V62.2903H125.741ZM126.652 83.6901H147.141V81.867H126.652V83.6901ZM146.229 82.7786V103.267H148.052V82.7786H146.229ZM147.141 102.355H126.652V104.178H147.141V102.355ZM125.741 103.267V144.243H127.564V103.267H125.741ZM126.652 145.155H147.141V143.332H126.652V145.155ZM146.229 144.243V164.732H148.052V144.243H146.229ZM147.141 163.82H85.6758V165.643H147.141V163.82ZM84.7642 164.732V185.22H86.5873V164.732H84.7642ZM85.6758 184.308H65.1875V186.132H85.6758V184.308ZM66.0991 185.22V164.732H64.2759V185.22H66.0991ZM65.1875 163.82H-37.2539V165.643H65.1875V163.82ZM-38.1655 164.732V185.22H-36.3424V164.732H-38.1655ZM-37.2539 186.132H24.2109V184.308H-37.2539V186.132ZM23.2994 185.22V205.708H25.1225V185.22H23.2994ZM24.2109 204.797H-37.2539V206.62H24.2109V204.797ZM-38.1655 205.708V226.197H-36.3424V205.708H-38.1655ZM-37.2539 227.108H-16.7656V225.285H-37.2539V227.108ZM-17.6772 226.197V246.685H-15.8541V226.197H-17.6772ZM-16.7656 245.773H-37.2539V247.596H-16.7656V245.773ZM-38.1655 246.685V267.173H-36.3424V246.685H-38.1655ZM-37.2539 268.085H65.1875V266.262H-37.2539V268.085ZM66.0991 267.173V246.685H64.2759V267.173H66.0991ZM65.1875 245.773H24.2109V247.596H65.1875V245.773ZM25.1225 246.685V205.708H23.2994V246.685H25.1225ZM24.2109 206.62H44.6992V204.797H24.2109V206.62ZM45.6108 205.708V185.22H43.7877V205.708H45.6108ZM44.6992 186.132H65.1875V184.308H44.6992V186.132ZM64.2759 185.22V226.197H66.0991V185.22H64.2759ZM65.1875 227.108H106.164V225.285H65.1875V227.108ZM107.076 226.197V205.708H105.253V226.197H107.076ZM106.164 206.62H147.141V204.797H106.164V206.62ZM148.052 205.708V164.732H146.229V205.708H148.052ZM147.141 165.643H167.629V163.82H147.141V165.643ZM168.54 164.732V144.243H166.717V164.732H168.54ZM167.629 145.155H188.117V143.332H167.629V145.155ZM189.029 144.243V123.755H187.206V144.243H189.029ZM188.117 124.667H208.605V122.844H188.117V124.667ZM207.694 123.755V144.243H209.517V123.755H207.694ZM208.605 145.155H229.094V143.332H208.605V145.155ZM230.005 144.243V123.755H228.182V144.243H230.005ZM229.094 122.844H208.605V124.667H229.094V122.844ZM209.517 123.755V103.267H207.694V123.755H209.517ZM208.605 104.178H229.094V102.355H208.605V104.178ZM230.005 103.267V0.825439H228.182V103.267H230.005ZM229.094 -0.0861155H167.629V1.73699H229.094V-0.0861155ZM187.206 21.3137V41.802H189.029V21.3137H187.206ZM188.117 42.7136H208.605V40.8904H188.117V42.7136ZM209.517 41.802V21.3137H207.694V41.802H209.517ZM208.605 20.4022H188.117V22.2253H208.605V20.4022ZM166.717 62.2903V103.267H168.54V62.2903H166.717ZM167.629 102.355H147.141V104.178H167.629V102.355ZM146.229 103.267V144.243H148.052V103.267H146.229ZM147.141 145.155H167.629V143.332H147.141V145.155ZM168.54 144.243V123.755H166.717V144.243H168.54ZM167.629 124.667H188.117V122.844H167.629V124.667ZM189.029 123.755V103.267H187.206V123.755H189.029ZM188.117 104.178H208.605V102.355H188.117V104.178ZM209.517 103.267V62.2903H207.694V103.267H209.517ZM208.605 61.3787H167.629V63.2018H208.605V61.3787ZM187.206 164.732V205.708H189.029V164.732H187.206ZM188.117 206.62H208.605V204.797H188.117V206.62ZM207.694 205.708V226.197H209.517V205.708H207.694ZM208.605 225.285H167.629V227.108H208.605V225.285ZM166.717 226.197V246.685H168.54V226.197H166.717ZM167.629 247.596H208.605V245.773H167.629V247.596ZM207.694 246.685V287.661H209.517V246.685H207.694ZM208.605 286.75H188.117V288.573H208.605V286.75ZM189.029 287.661V267.173H187.206V287.661H189.029ZM188.117 266.262H167.629V268.085H188.117V266.262ZM166.717 267.173V287.661H168.54V267.173H166.717ZM167.629 286.75H147.141V288.573H167.629V286.75ZM148.052 287.661V226.197H146.229V287.661H148.052ZM147.141 225.285H126.652V227.108H147.141V225.285ZM125.741 226.197V246.685H127.564V226.197H125.741ZM126.652 245.773H85.6758V247.596H126.652V245.773ZM84.7642 246.685V267.173H86.5873V246.685H84.7642ZM85.6758 268.085H126.652V266.262H85.6758V268.085ZM125.741 267.173V308.15H127.564V267.173H125.741ZM126.652 309.061H208.605V307.238H126.652V309.061ZM209.517 308.15V287.661H207.694V308.15H209.517ZM208.605 288.573H229.094V286.75H208.605V288.573ZM228.182 287.661V328.638H230.005V287.661H228.182ZM229.094 329.549H249.582V327.726H229.094V329.549ZM248.67 328.638V369.615H250.494V328.638H248.67ZM249.582 368.703H229.094V370.526H249.582V368.703ZM230.005 369.615V349.126H228.182V369.615H230.005ZM229.094 348.215H208.605V350.038H229.094V348.215ZM209.517 349.126V328.638H207.694V349.126H209.517ZM208.605 327.726H188.117V329.549H208.605V327.726ZM187.206 328.638V349.126H189.029V328.638H187.206ZM188.117 350.038H208.605V348.215H188.117V350.038ZM207.694 349.126V410.591H209.517V349.126H207.694ZM208.605 409.68H167.629V411.503H208.605V409.68ZM166.717 410.591V431.079H168.54V410.591H166.717ZM167.629 431.991H208.605V430.168H167.629V431.991ZM209.517 431.079V410.591H207.694V431.079H209.517ZM208.605 411.503H249.582V409.68H208.605V411.503ZM248.67 410.591V431.079H250.494V410.591H248.67ZM249.582 431.991H270.07V430.168H249.582V431.991ZM270.982 431.079V410.591H269.159V431.079H270.982ZM270.07 411.503H290.559V409.68H270.07V411.503ZM289.647 410.591V431.079H291.47V410.591H289.647ZM290.559 431.991H311.047V430.168H290.559V431.991ZM311.958 431.079V410.591H310.135V431.079H311.958ZM311.047 411.503H352.023V409.68H311.047V411.503ZM351.112 410.591V431.079H352.935V410.591H351.112ZM352.023 431.991H372.512V430.168H352.023V431.991ZM373.423 431.079V410.591H371.6V431.079H373.423ZM372.512 409.68H352.023V411.503H372.512V409.68ZM352.935 410.591V349.126H351.112V410.591H352.935ZM352.023 348.215H331.535V350.038H352.023V348.215ZM330.624 349.126V369.615H332.447V349.126H330.624ZM331.535 368.703H311.047V370.526H331.535V368.703ZM311.958 369.615V349.126H310.135V369.615H311.958ZM311.047 348.215H290.559V350.038H311.047V348.215ZM291.47 349.126V308.15H289.647V349.126H291.47ZM290.559 307.238H270.07V309.061H290.559V307.238ZM270.982 308.15V287.661H269.159V308.15H270.982ZM270.07 288.573H311.047V286.75H270.07V288.573ZM311.958 287.661V267.173H310.135V287.661H311.958ZM311.047 268.085H331.535V266.262H311.047V268.085ZM330.624 267.173V308.15H332.447V267.173H330.624ZM331.535 307.238H311.047V309.061H331.535V307.238ZM310.135 308.15V328.638H311.958V308.15H310.135ZM311.047 329.549H372.512V327.726H311.047V329.549ZM371.6 328.638V349.126H373.423V328.638H371.6ZM372.512 350.038H393V348.215H372.512V350.038ZM393.912 349.126V308.15H392.088V349.126H393.912ZM393 307.238H372.512V309.061H393V307.238ZM373.423 308.15V287.661H371.6V308.15H373.423ZM372.512 288.573H393V286.75H372.512V288.573ZM393.912 287.661V246.685H392.088V287.661H393.912ZM393 245.773H372.512V247.596H393V245.773ZM373.423 246.685V205.708H371.6V246.685H373.423ZM372.512 206.62H393V204.797H372.512V206.62ZM393.912 205.708V185.22H392.088V205.708H393.912ZM393 184.308H372.512V186.132H393V184.308ZM373.423 185.22V164.732H371.6V185.22H373.423ZM372.512 163.82H352.023V165.643H372.512V163.82ZM351.112 164.732V185.22H352.935V164.732H351.112ZM352.023 184.308H331.535V186.132H352.023V184.308ZM332.447 185.22V164.732H330.624V185.22H332.447ZM331.535 163.82H311.047V165.643H331.535V163.82ZM310.135 164.732V185.22H311.958V164.732H310.135ZM311.047 184.308H290.559V186.132H311.047V184.308ZM291.47 185.22V164.732H289.647V185.22H291.47ZM290.559 163.82H270.07V165.643H290.559V163.82ZM269.159 164.732V185.22H270.982V164.732H269.159ZM270.07 186.132H290.559V184.308H270.07V186.132ZM289.647 185.22V205.708H291.47V185.22H289.647ZM290.559 206.62H311.047V204.797H290.559V206.62ZM311.958 205.708V185.22H310.135V205.708H311.958ZM311.047 186.132H331.535V184.308H311.047V186.132ZM330.624 185.22V205.708H332.447V185.22H330.624ZM331.535 206.62H352.023V204.797H331.535V206.62ZM351.112 205.708V226.197H352.935V205.708H351.112ZM352.023 225.285H290.559V227.108H352.023V225.285ZM289.647 226.197V267.173H291.47V226.197H289.647ZM290.559 266.262H270.07V268.085H290.559V266.262ZM270.982 267.173V246.685H269.159V267.173H270.982ZM270.07 245.773H249.582V247.596H270.07V245.773ZM250.494 246.685V226.197H248.67V246.685H250.494ZM249.582 227.108H270.07V225.285H249.582V227.108ZM270.982 226.197V205.708H269.159V226.197H270.982ZM270.07 204.797H249.582V206.62H270.07V204.797ZM248.67 205.708V226.197H250.494V205.708H248.67ZM249.582 225.285H229.094V227.108H249.582V225.285ZM230.005 226.197V185.22H228.182V226.197H230.005ZM229.094 186.132H249.582V184.308H229.094V186.132ZM250.494 185.22V164.732H248.67V185.22H250.494ZM249.582 163.82H229.094V165.643H249.582V163.82ZM228.182 164.732V185.22H230.005V164.732H228.182ZM229.094 184.308H208.605V186.132H229.094V184.308ZM209.517 185.22V164.732H207.694V185.22H209.517ZM208.605 163.82H188.117V165.643H208.605V163.82ZM84.7642 185.22V205.708H86.5873V185.22H84.7642ZM85.6758 206.62H106.164V204.797H85.6758V206.62ZM107.076 205.708V185.22H105.253V205.708H107.076ZM106.164 184.308H85.6758V186.132H106.164V184.308ZM228.182 246.685V267.173H230.005V246.685H228.182ZM229.094 268.085H249.582V266.262H229.094V268.085ZM248.67 267.173V287.661H250.494V267.173H248.67ZM249.582 288.573H270.07V286.75H249.582V288.573ZM270.982 287.661V267.173H269.159V287.661H270.982ZM270.07 266.262H249.582V268.085H270.07V266.262ZM250.494 267.173V246.685H248.67V267.173H250.494ZM249.582 245.773H229.094V247.596H249.582V245.773ZM330.624 246.685V267.173H332.447V246.685H330.624ZM331.535 268.085H352.023V266.262H331.535V268.085ZM351.112 267.173V287.661H352.935V267.173H351.112ZM352.023 288.573H372.512V286.75H352.023V288.573ZM373.423 287.661V246.685H371.6V287.661H373.423ZM372.512 245.773H331.535V247.596H372.512V245.773ZM248.67 308.15V328.638H250.494V308.15H248.67ZM249.582 329.549H270.07V327.726H249.582V329.549ZM270.982 328.638V308.15H269.159V328.638H270.982ZM270.07 307.238H249.582V309.061H270.07V307.238ZM125.741 328.638V431.079H127.564V328.638H125.741ZM126.652 431.991H147.141V430.168H126.652V431.991ZM148.052 431.079V349.126H146.229V431.079H148.052ZM147.141 350.038H167.629V348.215H147.141V350.038ZM168.54 349.126V328.638H166.717V349.126H168.54ZM167.629 327.726H126.652V329.549H167.629V327.726ZM248.67 369.615V410.591H250.494V369.615H248.67ZM249.582 411.503H270.07V409.68H249.582V411.503ZM270.982 410.591V369.615H269.159V410.591H270.982ZM270.07 368.703H249.582V370.526H270.07V368.703ZM289.647 369.615V390.103H291.47V369.615H289.647ZM290.559 391.014H311.047V389.191H290.559V391.014ZM311.958 390.103V369.615H310.135V390.103H311.958ZM311.047 368.703H290.559V370.526H311.047V368.703ZM-38.1655 0.825439V144.243H-36.3424V0.825439H-38.1655ZM-37.2539 145.155H106.164V143.332H-37.2539V145.155ZM107.076 144.243V0.825439H105.253V144.243H107.076ZM106.164 -0.0861155H-37.2539V1.73699H106.164V-0.0861155ZM-17.6772 21.3137V123.755H-15.8541V21.3137H-17.6772ZM-16.7656 124.667H85.6758V122.844H-16.7656V124.667ZM86.5873 123.755V21.3137H84.7642V123.755H86.5873ZM85.6758 20.4022H-16.7656V22.2253H85.6758V20.4022ZM2.8111 41.802V103.267H4.63421V41.802H2.8111ZM3.72266 104.178H65.1875V102.355H3.72266V104.178ZM66.0991 103.267V41.802H64.2759V103.267H66.0991ZM65.1875 40.8904H3.72266V42.7136H65.1875V40.8904ZM248.67 0.825439V144.243H250.494V0.825439H248.67ZM249.582 145.155H393V143.332H249.582V145.155ZM393.912 144.243V0.825439H392.088V144.243H393.912ZM393 -0.0861155H249.582V1.73699H393V-0.0861155ZM269.159 21.3137V123.755H270.982V21.3137H269.159ZM270.07 124.667H372.512V122.844H270.07V124.667ZM373.423 123.755V21.3137H371.6V123.755H373.423ZM372.512 20.4022H270.07V22.2253H372.512V20.4022ZM289.647 41.802V103.267H291.47V41.802H289.647ZM290.559 104.178H352.023V102.355H290.559V104.178ZM352.935 103.267V41.802H351.112V103.267H352.935ZM352.023 40.8904H290.559V42.7136H352.023V40.8904ZM-38.1655 287.661V431.079H-36.3424V287.661H-38.1655ZM-37.2539 431.991H106.164V430.168H-37.2539V431.991ZM107.076 431.079V287.661H105.253V431.079H107.076ZM106.164 286.75H-37.2539V288.573H106.164V286.75ZM-17.6772 308.15V410.591H-15.8541V308.15H-17.6772ZM-16.7656 411.503H85.6758V409.68H-16.7656V411.503ZM86.5873 410.591V308.15H84.7642V410.591H86.5873ZM85.6758 307.238H-16.7656V309.061H85.6758V307.238ZM2.8111 328.638V390.103H4.63421V328.638H2.8111ZM3.72266 391.014H65.1875V389.191H3.72266V391.014ZM66.0991 390.103V328.638H64.2759V390.103H66.0991ZM65.1875 327.726H3.72266V329.549H65.1875V327.726Z" fill="url(#paint1_radial_4572_43928)" mask="url(#path-1-inside-1_4572_43928)"/>
<defs>
<radialGradient id="paint0_radial_4572_43928" cx="0" cy="0" r="1" gradientUnits="userSpaceOnUse" gradientTransform="translate(177.873 215.952) rotate(90) scale(125.795)">
<stop stop-color="#D9D9D9"/>
<stop offset="1" stop-color="#737373"/>
</radialGradient>
<radialGradient id="paint1_radial_4572_43928" cx="0" cy="0" r="1" gradientUnits="userSpaceOnUse" gradientTransform="translate(177.873 149.865) rotate(90) scale(211.025)">
<stop stop-color="#747474"/>
<stop offset="1" stop-color="#030303" stop-opacity="0"/>
</radialGradient>
</defs>
</svg>
