<svg width="472" height="375" viewBox="0 0 472 375" fill="none" xmlns="http://www.w3.org/2000/svg">
<mask id="path-1-inside-1_4107_6759" fill="white">
<path fill-rule="evenodd" clip-rule="evenodd" d="M224.762 0.125488V22.6017H179.81V45.0779H224.762V67.5541H179.81V90.0303H202.286V112.506H179.81V157.459H202.286V179.935H134.857V202.411H112.381V179.935H0V202.411H67.4286V224.887H0V247.364H22.4762V269.84H0V292.316H112.381V269.84H67.4286V224.887H89.9048V202.411H112.381V247.364H157.333V224.887H202.286V179.935H224.762V157.459H247.238V134.983H269.714V157.459H292.19V134.983H269.714V112.506H292.19V0.125488H224.762ZM247.238 22.6017V45.0779H269.714V22.6017H247.238ZM224.762 67.5541V112.506H202.286V157.459H224.762V134.983H247.238V112.506H269.714V67.5541H224.762ZM247.238 179.935V224.887H269.714V247.364H224.762V269.84H269.714V314.792H247.238V292.316H224.762V314.792H202.286V247.364H179.81V269.84H134.857V292.316H179.81V337.268H269.714V314.792H292.19V359.745H314.667V404.697H292.19V382.221H269.714V359.745H247.238V382.221H269.714V449.649H224.762V472.125H269.714V449.649H314.667V472.125H337.143V449.649H359.619V472.125H382.095V449.649H427.048V472.125H449.524V449.649H427.048V382.221H404.571V404.697H382.095V382.221H359.619V337.268H337.143V314.792H382.095V292.316H404.571V337.268H382.095V359.745H449.524V382.221H472V337.268H449.524V314.792H472V269.84H449.524V224.887H472V202.411H449.524V179.935H427.048V202.411H404.571V179.935H382.095V202.411H359.619V179.935H337.143V202.411H359.619V224.887H382.095V202.411H404.571V224.887H427.048V247.364H359.619V292.316H337.143V269.84H314.667V247.364H337.143V224.887H314.667V247.364H292.19V202.411H314.667V179.935H292.19V202.411H269.714V179.935H247.238ZM134.857 202.411V224.887H157.333V202.411H134.857ZM292.19 269.84V292.316H314.667V314.792H337.143V292.316H314.667V269.84H292.19ZM404.571 269.84V292.316H427.048V314.792H449.524V269.84H404.571ZM314.667 337.268V359.745H337.143V337.268H314.667ZM179.81 359.745V472.125H202.286V382.221H224.762V359.745H179.81ZM314.667 404.697V449.649H337.143V404.697H314.667ZM359.619 404.697V427.173H382.095V404.697H359.619ZM0 0.125488V157.459H157.333V0.125488H0ZM22.4762 22.6017V134.983H134.857V22.6017H22.4762ZM44.9524 45.0779V112.506H112.381V45.0779H44.9524ZM314.667 0.125488V157.459H472V0.125488H314.667ZM337.143 22.6017V134.983H449.524V22.6017H337.143ZM359.619 45.0779V112.506H427.048V45.0779H359.619ZM0 314.792V472.125H157.333V314.792H0ZM22.4762 337.268V449.649H134.857V337.268H22.4762ZM44.9524 359.745V427.173H112.381V359.745H44.9524Z"/>
</mask>
<path fill-rule="evenodd" clip-rule="evenodd" d="M224.762 0.125488V22.6017H179.81V45.0779H224.762V67.5541H179.81V90.0303H202.286V112.506H179.81V157.459H202.286V179.935H134.857V202.411H112.381V179.935H0V202.411H67.4286V224.887H0V247.364H22.4762V269.84H0V292.316H112.381V269.84H67.4286V224.887H89.9048V202.411H112.381V247.364H157.333V224.887H202.286V179.935H224.762V157.459H247.238V134.983H269.714V157.459H292.19V134.983H269.714V112.506H292.19V0.125488H224.762ZM247.238 22.6017V45.0779H269.714V22.6017H247.238ZM224.762 67.5541V112.506H202.286V157.459H224.762V134.983H247.238V112.506H269.714V67.5541H224.762ZM247.238 179.935V224.887H269.714V247.364H224.762V269.84H269.714V314.792H247.238V292.316H224.762V314.792H202.286V247.364H179.81V269.84H134.857V292.316H179.81V337.268H269.714V314.792H292.19V359.745H314.667V404.697H292.19V382.221H269.714V359.745H247.238V382.221H269.714V449.649H224.762V472.125H269.714V449.649H314.667V472.125H337.143V449.649H359.619V472.125H382.095V449.649H427.048V472.125H449.524V449.649H427.048V382.221H404.571V404.697H382.095V382.221H359.619V337.268H337.143V314.792H382.095V292.316H404.571V337.268H382.095V359.745H449.524V382.221H472V337.268H449.524V314.792H472V269.84H449.524V224.887H472V202.411H449.524V179.935H427.048V202.411H404.571V179.935H382.095V202.411H359.619V179.935H337.143V202.411H359.619V224.887H382.095V202.411H404.571V224.887H427.048V247.364H359.619V292.316H337.143V269.84H314.667V247.364H337.143V224.887H314.667V247.364H292.19V202.411H314.667V179.935H292.19V202.411H269.714V179.935H247.238ZM134.857 202.411V224.887H157.333V202.411H134.857ZM292.19 269.84V292.316H314.667V314.792H337.143V292.316H314.667V269.84H292.19ZM404.571 269.84V292.316H427.048V314.792H449.524V269.84H404.571ZM314.667 337.268V359.745H337.143V337.268H314.667ZM179.81 359.745V472.125H202.286V382.221H224.762V359.745H179.81ZM314.667 404.697V449.649H337.143V404.697H314.667ZM359.619 404.697V427.173H382.095V404.697H359.619ZM0 0.125488V157.459H157.333V0.125488H0ZM22.4762 22.6017V134.983H134.857V22.6017H22.4762ZM44.9524 45.0779V112.506H112.381V45.0779H44.9524ZM314.667 0.125488V157.459H472V0.125488H314.667ZM337.143 22.6017V134.983H449.524V22.6017H337.143ZM359.619 45.0779V112.506H427.048V45.0779H359.619ZM0 314.792V472.125H157.333V314.792H0ZM22.4762 337.268V449.649H134.857V337.268H22.4762ZM44.9524 359.745V427.173H112.381V359.745H44.9524Z" fill="url(#paint0_radial_4107_6759)" fill-opacity="0.02"/>
<path d="M224.762 0.125488V-0.874512H223.762V0.125488H224.762ZM224.762 22.6017V23.6017H225.762V22.6017H224.762ZM179.81 22.6017V21.6017H178.81V22.6017H179.81ZM179.81 45.0779H178.81V46.0779H179.81V45.0779ZM224.762 45.0779H225.762V44.0779H224.762V45.0779ZM179.81 67.5541V66.5541H178.81V67.5541H179.81ZM179.81 90.0303H178.81V91.0303H179.81V90.0303ZM202.286 90.0303H203.286V89.0303H202.286V90.0303ZM179.81 112.506V111.506H178.81V112.506H179.81ZM179.81 157.459H178.81V158.459H179.81V157.459ZM134.857 179.935V178.935H133.857V179.935H134.857ZM112.381 179.935H113.381V178.935H112.381V179.935ZM0 179.935V178.935H-1V179.935H0ZM0 202.411H-1V203.411H0V202.411ZM67.4286 202.411H68.4286V201.411H67.4286V202.411ZM0 224.887V223.887H-1V224.887H0ZM0 247.364H-1V248.364H0V247.364ZM22.4762 247.364H23.4762V246.364H22.4762V247.364ZM22.4762 269.84V270.84H23.4762V269.84H22.4762ZM0 269.84V268.84H-1V269.84H0ZM0 292.316H-1V293.316H0V292.316ZM112.381 292.316V293.316H113.381V292.316H112.381ZM112.381 269.84H113.381V268.84H112.381V269.84ZM67.4286 269.84H66.4286V270.84H67.4286V269.84ZM89.9048 224.887V225.887H90.9048V224.887H89.9048ZM89.9048 202.411V201.411H88.9048V202.411H89.9048ZM112.381 247.364H111.381V248.364H112.381V247.364ZM157.333 247.364V248.364H158.333V247.364H157.333ZM202.286 224.887V225.887H203.286V224.887H202.286ZM224.762 179.935V180.935H225.762V179.935H224.762ZM247.238 157.459V158.459H248.238V157.459H247.238ZM269.714 157.459H268.714V158.459H269.714V157.459ZM292.19 157.459V158.459H293.19V157.459H292.19ZM292.19 134.983H293.19V133.983H292.19V134.983ZM292.19 112.506V113.506H293.19V112.506H292.19ZM292.19 0.125488H293.19V-0.874512H292.19V0.125488ZM247.238 22.6017V21.6017H246.238V22.6017H247.238ZM247.238 45.0779H246.238V46.0779H247.238V45.0779ZM269.714 45.0779V46.0779H270.714V45.0779H269.714ZM269.714 22.6017H270.714V21.6017H269.714V22.6017ZM224.762 112.506V113.506H225.762V112.506H224.762ZM224.762 134.983V133.983H223.762V134.983H224.762ZM247.238 112.506V111.506H246.238V112.506H247.238ZM269.714 67.5541H270.714V66.5541H269.714V67.5541ZM247.238 179.935V178.935H246.238V179.935H247.238ZM247.238 224.887H246.238V225.887H247.238V224.887ZM269.714 224.887H270.714V223.887H269.714V224.887ZM269.714 247.364V248.364H270.714V247.364H269.714ZM224.762 247.364V246.364H223.762V247.364H224.762ZM224.762 269.84H223.762V270.84H224.762V269.84ZM269.714 269.84H270.714V268.84H269.714V269.84ZM247.238 314.792H246.238V315.792H247.238V314.792ZM247.238 292.316H248.238V291.316H247.238V292.316ZM224.762 292.316V291.316H223.762V292.316H224.762ZM224.762 314.792V315.792H225.762V314.792H224.762ZM202.286 314.792H201.286V315.792H202.286V314.792ZM202.286 247.364H203.286V246.364H202.286V247.364ZM179.81 247.364V246.364H178.81V247.364H179.81ZM179.81 269.84V270.84H180.81V269.84H179.81ZM134.857 269.84V268.84H133.857V269.84H134.857ZM134.857 292.316H133.857V293.316H134.857V292.316ZM179.81 292.316H180.81V291.316H179.81V292.316ZM179.81 337.268H178.81V338.268H179.81V337.268ZM269.714 337.268V338.268H270.714V337.268H269.714ZM292.19 314.792H293.19V313.792H292.19V314.792ZM292.19 359.745H291.19V360.745H292.19V359.745ZM292.19 404.697H291.19V405.697H292.19V404.697ZM292.19 382.221H293.19V381.221H292.19V382.221ZM269.714 359.745H270.714V358.745H269.714V359.745ZM247.238 359.745V358.745H246.238V359.745H247.238ZM247.238 382.221H246.238V383.221H247.238V382.221ZM224.762 449.649V448.649H223.762V449.649H224.762ZM224.762 472.125H223.762V473.125H224.762V472.125ZM269.714 472.125V473.125H270.714V472.125H269.714ZM314.667 472.125H313.667V473.125H314.667V472.125ZM337.143 472.125V473.125H338.143V472.125H337.143ZM359.619 449.649H360.619V448.649H359.619V449.649ZM359.619 472.125H358.619V473.125H359.619V472.125ZM382.095 472.125V473.125H383.095V472.125H382.095ZM382.095 449.649V448.649H381.095V449.649H382.095ZM427.048 472.125H426.048V473.125H427.048V472.125ZM449.524 472.125V473.125H450.524V472.125H449.524ZM449.524 449.649H450.524V448.649H449.524V449.649ZM427.048 382.221H428.048V381.221H427.048V382.221ZM404.571 382.221V381.221H403.571V382.221H404.571ZM404.571 404.697V405.697H405.571V404.697H404.571ZM382.095 382.221H383.095V381.221H382.095V382.221ZM359.619 382.221H358.619V383.221H359.619V382.221ZM359.619 337.268H360.619V336.268H359.619V337.268ZM382.095 314.792V315.792H383.095V314.792H382.095ZM382.095 292.316V291.316H381.095V292.316H382.095ZM404.571 337.268V338.268H405.571V337.268H404.571ZM382.095 337.268V336.268H381.095V337.268H382.095ZM382.095 359.745H381.095V360.745H382.095V359.745ZM449.524 359.745H450.524V358.745H449.524V359.745ZM449.524 382.221H448.524V383.221H449.524V382.221ZM472 382.221V383.221H473V382.221H472ZM472 337.268H473V336.268H472V337.268ZM449.524 337.268H448.524V338.268H449.524V337.268ZM472 314.792V315.792H473V314.792H472ZM472 269.84H473V268.84H472V269.84ZM449.524 224.887V223.887H448.524V224.887H449.524ZM472 224.887V225.887H473V224.887H472ZM472 202.411H473V201.411H472V202.411ZM449.524 202.411H448.524V203.411H449.524V202.411ZM449.524 179.935H450.524V178.935H449.524V179.935ZM427.048 179.935V178.935H426.048V179.935H427.048ZM427.048 202.411V203.411H428.048V202.411H427.048ZM404.571 179.935H405.571V178.935H404.571V179.935ZM382.095 179.935V178.935H381.095V179.935H382.095ZM359.619 179.935H360.619V178.935H359.619V179.935ZM337.143 179.935V178.935H336.143V179.935H337.143ZM337.143 202.411H336.143V203.411H337.143V202.411ZM359.619 224.887H358.619V225.887H359.619V224.887ZM382.095 224.887V225.887H383.095V224.887H382.095ZM404.571 224.887H403.571V225.887H404.571V224.887ZM427.048 224.887H428.048V223.887H427.048V224.887ZM427.048 247.364V248.364H428.048V247.364H427.048ZM359.619 247.364V246.364H358.619V247.364H359.619ZM359.619 292.316V293.316H360.619V292.316H359.619ZM337.143 269.84H338.143V268.84H337.143V269.84ZM337.143 247.364V248.364H338.143V247.364H337.143ZM337.143 224.887H338.143V223.887H337.143V224.887ZM314.667 224.887V223.887H313.667V224.887H314.667ZM292.19 247.364H291.19V248.364H292.19V247.364ZM314.667 202.411V203.411H315.667V202.411H314.667ZM314.667 179.935H315.667V178.935H314.667V179.935ZM292.19 179.935V178.935H291.19V179.935H292.19ZM269.714 202.411H268.714V203.411H269.714V202.411ZM269.714 179.935H270.714V178.935H269.714V179.935ZM134.857 224.887H133.857V225.887H134.857V224.887ZM157.333 202.411H158.333V201.411H157.333V202.411ZM292.19 269.84V268.84H291.19V269.84H292.19ZM292.19 292.316H291.19V293.316H292.19V292.316ZM314.667 314.792H313.667V315.792H314.667V314.792ZM404.571 269.84V268.84H403.571V269.84H404.571ZM427.048 292.316H428.048V291.316H427.048V292.316ZM427.048 314.792H426.048V315.792H427.048V314.792ZM314.667 337.268V336.268H313.667V337.268H314.667ZM337.143 359.745V360.745H338.143V359.745H337.143ZM179.81 359.745V358.745H178.81V359.745H179.81ZM179.81 472.125H178.81V473.125H179.81V472.125ZM202.286 472.125V473.125H203.286V472.125H202.286ZM202.286 382.221V381.221H201.286V382.221H202.286ZM224.762 382.221V383.221H225.762V382.221H224.762ZM224.762 359.745H225.762V358.745H224.762V359.745ZM337.143 404.697H338.143V403.697H337.143V404.697ZM359.619 404.697V403.697H358.619V404.697H359.619ZM359.619 427.173H358.619V428.173H359.619V427.173ZM382.095 427.173V428.173H383.095V427.173H382.095ZM0 0.125488V-0.874512H-1V0.125488H0ZM0 157.459H-1V158.459H0V157.459ZM157.333 157.459V158.459H158.333V157.459H157.333ZM157.333 0.125488H158.333V-0.874512H157.333V0.125488ZM22.4762 22.6017V21.6017H21.4762V22.6017H22.4762ZM22.4762 134.983H21.4762V135.983H22.4762V134.983ZM134.857 134.983V135.983H135.857V134.983H134.857ZM134.857 22.6017H135.857V21.6017H134.857V22.6017ZM44.9524 45.0779V44.0779H43.9524V45.0779H44.9524ZM44.9524 112.506H43.9524V113.506H44.9524V112.506ZM112.381 112.506V113.506H113.381V112.506H112.381ZM112.381 45.0779H113.381V44.0779H112.381V45.0779ZM314.667 0.125488V-0.874512H313.667V0.125488H314.667ZM314.667 157.459H313.667V158.459H314.667V157.459ZM472 157.459V158.459H473V157.459H472ZM472 0.125488H473V-0.874512H472V0.125488ZM337.143 22.6017V21.6017H336.143V22.6017H337.143ZM337.143 134.983H336.143V135.983H337.143V134.983ZM449.524 134.983V135.983H450.524V134.983H449.524ZM449.524 22.6017H450.524V21.6017H449.524V22.6017ZM359.619 45.0779V44.0779H358.619V45.0779H359.619ZM359.619 112.506H358.619V113.506H359.619V112.506ZM427.048 112.506V113.506H428.048V112.506H427.048ZM427.048 45.0779H428.048V44.0779H427.048V45.0779ZM0 314.792V313.792H-1V314.792H0ZM0 472.125H-1V473.125H0V472.125ZM157.333 472.125V473.125H158.333V472.125H157.333ZM157.333 314.792H158.333V313.792H157.333V314.792ZM22.4762 337.268V336.268H21.4762V337.268H22.4762ZM22.4762 449.649H21.4762V450.649H22.4762V449.649ZM134.857 449.649V450.649H135.857V449.649H134.857ZM134.857 337.268H135.857V336.268H134.857V337.268ZM44.9524 359.745V358.745H43.9524V359.745H44.9524ZM44.9524 427.173H43.9524V428.173H44.9524V427.173ZM112.381 427.173V428.173H113.381V427.173H112.381ZM112.381 359.745H113.381V358.745H112.381V359.745ZM223.762 0.125488V22.6017H225.762V0.125488H223.762ZM224.762 21.6017H179.81V23.6017H224.762V21.6017ZM178.81 22.6017V45.0779H180.81V22.6017H178.81ZM179.81 46.0779H224.762V44.0779H179.81V46.0779ZM223.762 45.0779V67.5541H225.762V45.0779H223.762ZM224.762 66.5541H179.81V68.5541H224.762V66.5541ZM178.81 67.5541V90.0303H180.81V67.5541H178.81ZM179.81 91.0303H202.286V89.0303H179.81V91.0303ZM201.286 90.0303V112.506H203.286V90.0303H201.286ZM202.286 111.506H179.81V113.506H202.286V111.506ZM178.81 112.506V157.459H180.81V112.506H178.81ZM179.81 158.459H202.286V156.459H179.81V158.459ZM201.286 157.459V179.935H203.286V157.459H201.286ZM202.286 178.935H134.857V180.935H202.286V178.935ZM133.857 179.935V202.411H135.857V179.935H133.857ZM134.857 201.411H112.381V203.411H134.857V201.411ZM113.381 202.411V179.935H111.381V202.411H113.381ZM112.381 178.935H0V180.935H112.381V178.935ZM-1 179.935V202.411H1V179.935H-1ZM0 203.411H67.4286V201.411H0V203.411ZM66.4286 202.411V224.887H68.4286V202.411H66.4286ZM67.4286 223.887H0V225.887H67.4286V223.887ZM-1 224.887V247.364H1V224.887H-1ZM0 248.364H22.4762V246.364H0V248.364ZM21.4762 247.364V269.84H23.4762V247.364H21.4762ZM22.4762 268.84H0V270.84H22.4762V268.84ZM-1 269.84V292.316H1V269.84H-1ZM0 293.316H112.381V291.316H0V293.316ZM113.381 292.316V269.84H111.381V292.316H113.381ZM112.381 268.84H67.4286V270.84H112.381V268.84ZM68.4286 269.84V224.887H66.4286V269.84H68.4286ZM67.4286 225.887H89.9048V223.887H67.4286V225.887ZM90.9048 224.887V202.411H88.9048V224.887H90.9048ZM89.9048 203.411H112.381V201.411H89.9048V203.411ZM111.381 202.411V247.364H113.381V202.411H111.381ZM112.381 248.364H157.333V246.364H112.381V248.364ZM158.333 247.364V224.887H156.333V247.364H158.333ZM157.333 225.887H202.286V223.887H157.333V225.887ZM203.286 224.887V179.935H201.286V224.887H203.286ZM202.286 180.935H224.762V178.935H202.286V180.935ZM225.762 179.935V157.459H223.762V179.935H225.762ZM224.762 158.459H247.238V156.459H224.762V158.459ZM248.238 157.459V134.983H246.238V157.459H248.238ZM247.238 135.983H269.714V133.983H247.238V135.983ZM268.714 134.983V157.459H270.714V134.983H268.714ZM269.714 158.459H292.19V156.459H269.714V158.459ZM293.19 157.459V134.983H291.19V157.459H293.19ZM292.19 133.983H269.714V135.983H292.19V133.983ZM270.714 134.983V112.506H268.714V134.983H270.714ZM269.714 113.506H292.19V111.506H269.714V113.506ZM293.19 112.506V0.125488H291.19V112.506H293.19ZM292.19 -0.874512H224.762V1.12549H292.19V-0.874512ZM246.238 22.6017V45.0779H248.238V22.6017H246.238ZM247.238 46.0779H269.714V44.0779H247.238V46.0779ZM270.714 45.0779V22.6017H268.714V45.0779H270.714ZM269.714 21.6017H247.238V23.6017H269.714V21.6017ZM223.762 67.5541V112.506H225.762V67.5541H223.762ZM224.762 111.506H202.286V113.506H224.762V111.506ZM201.286 112.506V157.459H203.286V112.506H201.286ZM202.286 158.459H224.762V156.459H202.286V158.459ZM225.762 157.459V134.983H223.762V157.459H225.762ZM224.762 135.983H247.238V133.983H224.762V135.983ZM248.238 134.983V112.506H246.238V134.983H248.238ZM247.238 113.506H269.714V111.506H247.238V113.506ZM270.714 112.506V67.5541H268.714V112.506H270.714ZM269.714 66.5541H224.762V68.5541H269.714V66.5541ZM246.238 179.935V224.887H248.238V179.935H246.238ZM247.238 225.887H269.714V223.887H247.238V225.887ZM268.714 224.887V247.364H270.714V224.887H268.714ZM269.714 246.364H224.762V248.364H269.714V246.364ZM223.762 247.364V269.84H225.762V247.364H223.762ZM224.762 270.84H269.714V268.84H224.762V270.84ZM268.714 269.84V314.792H270.714V269.84H268.714ZM269.714 313.792H247.238V315.792H269.714V313.792ZM248.238 314.792V292.316H246.238V314.792H248.238ZM247.238 291.316H224.762V293.316H247.238V291.316ZM223.762 292.316V314.792H225.762V292.316H223.762ZM224.762 313.792H202.286V315.792H224.762V313.792ZM203.286 314.792V247.364H201.286V314.792H203.286ZM202.286 246.364H179.81V248.364H202.286V246.364ZM178.81 247.364V269.84H180.81V247.364H178.81ZM179.81 268.84H134.857V270.84H179.81V268.84ZM133.857 269.84V292.316H135.857V269.84H133.857ZM134.857 293.316H179.81V291.316H134.857V293.316ZM178.81 292.316V337.268H180.81V292.316H178.81ZM179.81 338.268H269.714V336.268H179.81V338.268ZM270.714 337.268V314.792H268.714V337.268H270.714ZM269.714 315.792H292.19V313.792H269.714V315.792ZM291.19 314.792V359.745H293.19V314.792H291.19ZM292.19 360.745H314.667V358.745H292.19V360.745ZM313.667 359.745V404.697H315.667V359.745H313.667ZM314.667 403.697H292.19V405.697H314.667V403.697ZM293.19 404.697V382.221H291.19V404.697H293.19ZM292.19 381.221H269.714V383.221H292.19V381.221ZM270.714 382.221V359.745H268.714V382.221H270.714ZM269.714 358.745H247.238V360.745H269.714V358.745ZM246.238 359.745V382.221H248.238V359.745H246.238ZM247.238 383.221H269.714V381.221H247.238V383.221ZM268.714 382.221V449.649H270.714V382.221H268.714ZM269.714 448.649H224.762V450.649H269.714V448.649ZM223.762 449.649V472.125H225.762V449.649H223.762ZM224.762 473.125H269.714V471.125H224.762V473.125ZM270.714 472.125V449.649H268.714V472.125H270.714ZM269.714 450.649H314.667V448.649H269.714V450.649ZM313.667 449.649V472.125H315.667V449.649H313.667ZM314.667 473.125H337.143V471.125H314.667V473.125ZM338.143 472.125V449.649H336.143V472.125H338.143ZM337.143 450.649H359.619V448.649H337.143V450.649ZM358.619 449.649V472.125H360.619V449.649H358.619ZM359.619 473.125H382.095V471.125H359.619V473.125ZM383.095 472.125V449.649H381.095V472.125H383.095ZM382.095 450.649H427.048V448.649H382.095V450.649ZM426.048 449.649V472.125H428.048V449.649H426.048ZM427.048 473.125H449.524V471.125H427.048V473.125ZM450.524 472.125V449.649H448.524V472.125H450.524ZM449.524 448.649H427.048V450.649H449.524V448.649ZM428.048 449.649V382.221H426.048V449.649H428.048ZM427.048 381.221H404.571V383.221H427.048V381.221ZM403.571 382.221V404.697H405.571V382.221H403.571ZM404.571 403.697H382.095V405.697H404.571V403.697ZM383.095 404.697V382.221H381.095V404.697H383.095ZM382.095 381.221H359.619V383.221H382.095V381.221ZM360.619 382.221V337.268H358.619V382.221H360.619ZM359.619 336.268H337.143V338.268H359.619V336.268ZM338.143 337.268V314.792H336.143V337.268H338.143ZM337.143 315.792H382.095V313.792H337.143V315.792ZM383.095 314.792V292.316H381.095V314.792H383.095ZM382.095 293.316H404.571V291.316H382.095V293.316ZM403.571 292.316V337.268H405.571V292.316H403.571ZM404.571 336.268H382.095V338.268H404.571V336.268ZM381.095 337.268V359.745H383.095V337.268H381.095ZM382.095 360.745H449.524V358.745H382.095V360.745ZM448.524 359.745V382.221H450.524V359.745H448.524ZM449.524 383.221H472V381.221H449.524V383.221ZM473 382.221V337.268H471V382.221H473ZM472 336.268H449.524V338.268H472V336.268ZM450.524 337.268V314.792H448.524V337.268H450.524ZM449.524 315.792H472V313.792H449.524V315.792ZM473 314.792V269.84H471V314.792H473ZM472 268.84H449.524V270.84H472V268.84ZM450.524 269.84V224.887H448.524V269.84H450.524ZM449.524 225.887H472V223.887H449.524V225.887ZM473 224.887V202.411H471V224.887H473ZM472 201.411H449.524V203.411H472V201.411ZM450.524 202.411V179.935H448.524V202.411H450.524ZM449.524 178.935H427.048V180.935H449.524V178.935ZM426.048 179.935V202.411H428.048V179.935H426.048ZM427.048 201.411H404.571V203.411H427.048V201.411ZM405.571 202.411V179.935H403.571V202.411H405.571ZM404.571 178.935H382.095V180.935H404.571V178.935ZM381.095 179.935V202.411H383.095V179.935H381.095ZM382.095 201.411H359.619V203.411H382.095V201.411ZM360.619 202.411V179.935H358.619V202.411H360.619ZM359.619 178.935H337.143V180.935H359.619V178.935ZM336.143 179.935V202.411H338.143V179.935H336.143ZM337.143 203.411H359.619V201.411H337.143V203.411ZM358.619 202.411V224.887H360.619V202.411H358.619ZM359.619 225.887H382.095V223.887H359.619V225.887ZM383.095 224.887V202.411H381.095V224.887H383.095ZM382.095 203.411H404.571V201.411H382.095V203.411ZM403.571 202.411V224.887H405.571V202.411H403.571ZM404.571 225.887H427.048V223.887H404.571V225.887ZM426.048 224.887V247.364H428.048V224.887H426.048ZM427.048 246.364H359.619V248.364H427.048V246.364ZM358.619 247.364V292.316H360.619V247.364H358.619ZM359.619 291.316H337.143V293.316H359.619V291.316ZM338.143 292.316V269.84H336.143V292.316H338.143ZM337.143 268.84H314.667V270.84H337.143V268.84ZM315.667 269.84V247.364H313.667V269.84H315.667ZM314.667 248.364H337.143V246.364H314.667V248.364ZM338.143 247.364V224.887H336.143V247.364H338.143ZM337.143 223.887H314.667V225.887H337.143V223.887ZM313.667 224.887V247.364H315.667V224.887H313.667ZM314.667 246.364H292.19V248.364H314.667V246.364ZM293.19 247.364V202.411H291.19V247.364H293.19ZM292.19 203.411H314.667V201.411H292.19V203.411ZM315.667 202.411V179.935H313.667V202.411H315.667ZM314.667 178.935H292.19V180.935H314.667V178.935ZM291.19 179.935V202.411H293.19V179.935H291.19ZM292.19 201.411H269.714V203.411H292.19V201.411ZM270.714 202.411V179.935H268.714V202.411H270.714ZM269.714 178.935H247.238V180.935H269.714V178.935ZM133.857 202.411V224.887H135.857V202.411H133.857ZM134.857 225.887H157.333V223.887H134.857V225.887ZM158.333 224.887V202.411H156.333V224.887H158.333ZM157.333 201.411H134.857V203.411H157.333V201.411ZM291.19 269.84V292.316H293.19V269.84H291.19ZM292.19 293.316H314.667V291.316H292.19V293.316ZM313.667 292.316V314.792H315.667V292.316H313.667ZM314.667 315.792H337.143V313.792H314.667V315.792ZM338.143 314.792V292.316H336.143V314.792H338.143ZM337.143 291.316H314.667V293.316H337.143V291.316ZM315.667 292.316V269.84H313.667V292.316H315.667ZM314.667 268.84H292.19V270.84H314.667V268.84ZM403.571 269.84V292.316H405.571V269.84H403.571ZM404.571 293.316H427.048V291.316H404.571V293.316ZM426.048 292.316V314.792H428.048V292.316H426.048ZM427.048 315.792H449.524V313.792H427.048V315.792ZM450.524 314.792V269.84H448.524V314.792H450.524ZM449.524 268.84H404.571V270.84H449.524V268.84ZM313.667 337.268V359.745H315.667V337.268H313.667ZM314.667 360.745H337.143V358.745H314.667V360.745ZM338.143 359.745V337.268H336.143V359.745H338.143ZM337.143 336.268H314.667V338.268H337.143V336.268ZM178.81 359.745V472.125H180.81V359.745H178.81ZM179.81 473.125H202.286V471.125H179.81V473.125ZM203.286 472.125V382.221H201.286V472.125H203.286ZM202.286 383.221H224.762V381.221H202.286V383.221ZM225.762 382.221V359.745H223.762V382.221H225.762ZM224.762 358.745H179.81V360.745H224.762V358.745ZM313.667 404.697V449.649H315.667V404.697H313.667ZM314.667 450.649H337.143V448.649H314.667V450.649ZM338.143 449.649V404.697H336.143V449.649H338.143ZM337.143 403.697H314.667V405.697H337.143V403.697ZM358.619 404.697V427.173H360.619V404.697H358.619ZM359.619 428.173H382.095V426.173H359.619V428.173ZM383.095 427.173V404.697H381.095V427.173H383.095ZM382.095 403.697H359.619V405.697H382.095V403.697ZM-1 0.125488V157.459H1V0.125488H-1ZM0 158.459H157.333V156.459H0V158.459ZM158.333 157.459V0.125488H156.333V157.459H158.333ZM157.333 -0.874512H0V1.12549H157.333V-0.874512ZM21.4762 22.6017V134.983H23.4762V22.6017H21.4762ZM22.4762 135.983H134.857V133.983H22.4762V135.983ZM135.857 134.983V22.6017H133.857V134.983H135.857ZM134.857 21.6017H22.4762V23.6017H134.857V21.6017ZM43.9524 45.0779V112.506H45.9524V45.0779H43.9524ZM44.9524 113.506H112.381V111.506H44.9524V113.506ZM113.381 112.506V45.0779H111.381V112.506H113.381ZM112.381 44.0779H44.9524V46.0779H112.381V44.0779ZM313.667 0.125488V157.459H315.667V0.125488H313.667ZM314.667 158.459H472V156.459H314.667V158.459ZM473 157.459V0.125488H471V157.459H473ZM472 -0.874512H314.667V1.12549H472V-0.874512ZM336.143 22.6017V134.983H338.143V22.6017H336.143ZM337.143 135.983H449.524V133.983H337.143V135.983ZM450.524 134.983V22.6017H448.524V134.983H450.524ZM449.524 21.6017H337.143V23.6017H449.524V21.6017ZM358.619 45.0779V112.506H360.619V45.0779H358.619ZM359.619 113.506H427.048V111.506H359.619V113.506ZM428.048 112.506V45.0779H426.048V112.506H428.048ZM427.048 44.0779H359.619V46.0779H427.048V44.0779ZM-1 314.792V472.125H1V314.792H-1ZM0 473.125H157.333V471.125H0V473.125ZM158.333 472.125V314.792H156.333V472.125H158.333ZM157.333 313.792H0V315.792H157.333V313.792ZM21.4762 337.268V449.649H23.4762V337.268H21.4762ZM22.4762 450.649H134.857V448.649H22.4762V450.649ZM135.857 449.649V337.268H133.857V449.649H135.857ZM134.857 336.268H22.4762V338.268H134.857V336.268ZM43.9524 359.745V427.173H45.9524V359.745H43.9524ZM44.9524 428.173H112.381V426.173H44.9524V428.173ZM113.381 427.173V359.745H111.381V427.173H113.381ZM112.381 358.745H44.9524V360.745H112.381V358.745Z" fill="url(#paint1_radial_4107_6759)" mask="url(#path-1-inside-1_4107_6759)"/>
<defs>
<radialGradient id="paint0_radial_4107_6759" cx="0" cy="0" r="1" gradientUnits="userSpaceOnUse" gradientTransform="translate(236 236.125) rotate(90) scale(138)">
<stop stop-color="#D9D9D9"/>
<stop offset="1" stop-color="#737373"/>
</radialGradient>
<radialGradient id="paint1_radial_4107_6759" cx="0" cy="0" r="1" gradientUnits="userSpaceOnUse" gradientTransform="translate(236 163.625) rotate(90) scale(231.5)">
<stop stop-color="#AAFF8F"/>
<stop offset="1" stop-color="#030303" stop-opacity="0"/>
</radialGradient>
</defs>
</svg>
